<?xml version="1.0" encoding="UTF-8" standalone="no"?>
<!DOCTYPE svg PUBLIC "-//W3C//DTD SVG 1.0//EN" "http://www.w3.org/TR/2001/PR-SVG-20010719/DTD/svg10.dtd">
<svg width="54cm" height="30cm" viewBox="37 157 1065 584" xmlns="http://www.w3.org/2000/svg" xmlns:xlink="http://www.w3.org/1999/xlink">
  <g>
    <rect style="fill: none; fill-opacity:0; stroke-width: 2; stroke-dasharray: 4; stroke: #000000" x="40" y="200" width="680" height="480"/>
    <text font-size="12.8" style="fill: #000000;text-anchor:middle;font-family:sans-serif;font-style:normal;font-weight:normal" x="380" y="443.9">
      <tspan x="380" y="443.9"></tspan>
    </text>
  </g>
  <text font-size="12.8" style="fill: #000000;text-anchor:start;font-family:sans-serif;font-style:normal;font-weight:normal" x="380" y="440">
    <tspan x="380" y="440"></tspan>
  </text>
  <text font-size="12.8" style="fill: #000000;text-anchor:start;font-family:sans-serif;font-style:normal;font-weight:normal" x="240" y="140">
    <tspan x="240" y="140"></tspan>
  </text>
  <g>
    <rect style="fill: none; fill-opacity:0; stroke-width: 4; stroke: #000000" x="40" y="160" width="680" height="40"/>
    <text font-size="12.8" style="fill: #000000;text-anchor:middle;font-family:sans-serif;font-style:normal;font-weight:normal" x="380" y="183.9">
      <tspan x="380" y="183.9">simulate.m</tspan>
    </text>
  </g>
  <g>
    <rect style="fill: #ffffff" x="60" y="300" width="160" height="40"/>
    <rect style="fill: none; fill-opacity:0; stroke-width: 2; stroke: #000000" x="60" y="300" width="160" height="40"/>
    <text font-size="12.8" style="fill: #000000;text-anchor:middle;font-family:sans-serif;font-style:normal;font-weight:normal" x="140" y="323.9">
      <tspan x="140" y="323.9">Algorithm Model</tspan>
    </text>
  </g>
  <g>
    <rect style="fill: #ffffff" x="420" y="220" width="120" height="40"/>
    <rect style="fill: none; fill-opacity:0; stroke-width: 2; stroke: #000000" x="420" y="220" width="120" height="40"/>
    <text font-size="12.8" style="fill: #000000;text-anchor:middle;font-family:sans-serif;font-style:normal;font-weight:normal" x="480" y="243.9">
      <tspan x="480" y="243.9">fins_scale.m</tspan>
    </text>
  </g>
  <g>
    <rect style="fill: #ffffff" x="580" y="220" width="120" height="40"/>
    <rect style="fill: none; fill-opacity:0; stroke-width: 2; stroke: #000000" x="580" y="220" width="120" height="40"/>
    <text font-size="12.8" style="fill: #000000;text-anchor:middle;font-family:sans-serif;font-style:normal;font-weight:normal" x="640" y="243.9">
      <tspan x="640" y="243.9">fins_write.m</tspan>
    </text>
  </g>
  <g>
    <rect style="fill: #ffffff" x="60" y="220" width="160" height="40"/>
    <rect style="fill: none; fill-opacity:0; stroke-width: 2; stroke: #1e90ff" x="60" y="220" width="160" height="40"/>
    <text font-size="12.8" style="fill: #000000;text-anchor:middle;font-family:sans-serif;font-style:normal;font-weight:normal" x="140" y="243.9">
      <tspan x="140" y="243.9">model_in struct</tspan>
    </text>
  </g>
  <g>
    <rect style="fill: #ffffff" x="60" y="380" width="160" height="40"/>
    <rect style="fill: none; fill-opacity:0; stroke-width: 2; stroke: #1e90ff" x="60" y="380" width="160" height="40"/>
    <text font-size="12.8" style="fill: #000000;text-anchor:middle;font-family:sans-serif;font-style:normal;font-weight:normal" x="140" y="403.9">
      <tspan x="140" y="403.9">model_out struct</tspan>
    </text>
  </g>
  <g>
    <rect style="fill: #ffffff" x="260" y="220" width="120" height="40"/>
    <rect style="fill: none; fill-opacity:0; stroke-width: 2; stroke: #1e90ff" x="260" y="220" width="120" height="40"/>
    <text font-size="12.8" style="fill: #000000;text-anchor:middle;font-family:sans-serif;font-style:normal;font-weight:normal" x="320" y="243.9">
      <tspan x="320" y="243.9">sim_in struct</tspan>
    </text>
  </g>
  <g>
    <rect style="fill: #ffffff" x="740" y="220" width="100" height="40"/>
    <rect style="fill: none; fill-opacity:0; stroke-width: 2; stroke: #000000" x="740" y="220" width="100" height="40"/>
    <text font-size="12.8" style="fill: #000000;text-anchor:middle;font-family:sans-serif;font-style:normal;font-weight:normal" x="790" y="243.9">
      <tspan x="790" y="243.9">sim_in.txt</tspan>
    </text>
  </g>
  <g>
    <rect style="fill: #ffffff" x="60" y="620" width="320" height="40"/>
    <rect style="fill: none; fill-opacity:0; stroke-width: 2; stroke: #000000" x="60" y="620" width="320" height="40"/>
    <text font-size="12.8" style="fill: #000000;text-anchor:middle;font-family:sans-serif;font-style:normal;font-weight:normal" x="220" y="643.9">
      <tspan x="220" y="643.9">fins_error_write.m</tspan>
    </text>
  </g>
  <g>
    <rect style="fill: #ffffff" x="580" y="380" width="120" height="40"/>
    <rect style="fill: none; fill-opacity:0; stroke-width: 2; stroke: #000000" x="580" y="380" width="120" height="40"/>
    <text font-size="12.8" style="fill: #000000;text-anchor:middle;font-family:sans-serif;font-style:normal;font-weight:normal" x="640" y="403.9">
      <tspan x="640" y="403.9">fins_read.m</tspan>
    </text>
  </g>
  <g>
    <rect style="fill: #ffffff" x="740" y="380" width="100" height="40"/>
    <rect style="fill: none; fill-opacity:0; stroke-width: 2; stroke: #000000" x="740" y="380" width="100" height="40"/>
    <text font-size="12.8" style="fill: #000000;text-anchor:middle;font-family:sans-serif;font-style:normal;font-weight:normal" x="790" y="403.9">
      <tspan x="790" y="403.9">sim_out.txt</tspan>
    </text>
  </g>
  <g>
    <rect style="fill: #ffffff" x="260" y="380" width="120" height="40"/>
    <rect style="fill: none; fill-opacity:0; stroke-width: 2; stroke: #1e90ff" x="260" y="380" width="120" height="40"/>
    <text font-size="12.8" style="fill: #000000;text-anchor:middle;font-family:sans-serif;font-style:normal;font-weight:normal" x="320" y="403.9">
      <tspan x="320" y="403.9">sim_out struct</tspan>
    </text>
  </g>
  <g>
    <rect style="fill: #ffffff" x="60" y="700" width="320" height="40"/>
    <rect style="fill: none; fill-opacity:0; stroke-width: 2; stroke: #000000" x="60" y="700" width="320" height="40"/>
    <text font-size="12.8" style="fill: #000000;text-anchor:middle;font-family:sans-serif;font-style:normal;font-weight:normal" x="220" y="723.9">
      <tspan x="220" y="723.9">sim_results.txt</tspan>
    </text>
  </g>
  <g>
    <rect style="fill: #ffffff" x="480" y="580" width="200" height="40"/>
    <rect style="fill: none; fill-opacity:0; stroke-width: 2; stroke: #000000" x="480" y="580" width="200" height="40"/>
    <text font-size="12.8" style="fill: #000000;text-anchor:middle;font-family:sans-serif;font-style:normal;font-weight:normal" x="580" y="603.9">
      <tspan x="580" y="603.9">hex2signed.m</tspan>
    </text>
  </g>
  <g>
    <rect style="fill: #ffffff" x="480" y="620" width="200" height="40"/>
    <rect style="fill: none; fill-opacity:0; stroke-width: 2; stroke: #000000" x="480" y="620" width="200" height="40"/>
    <text font-size="12.8" style="fill: #000000;text-anchor:middle;font-family:sans-serif;font-style:normal;font-weight:normal" x="580" y="643.9">
      <tspan x="580" y="643.9">signed2hex.m</tspan>
    </text>
  </g>
  <g>
    <rect style="fill: #ffffff" x="480" y="500" width="200" height="40"/>
    <rect style="fill: none; fill-opacity:0; stroke-width: 2; stroke: #000000" x="480" y="500" width="200" height="40"/>
    <text font-size="12.8" style="fill: #000000;text-anchor:middle;font-family:sans-serif;font-style:normal;font-weight:normal" x="580" y="523.9">
      <tspan x="580" y="523.9">fins_check.m</tspan>
    </text>
  </g>
  <g>
    <rect style="fill: #ffffff" x="480" y="460" width="200" height="40"/>
    <rect style="fill: none; fill-opacity:0; stroke-width: 2; stroke: #000000" x="480" y="460" width="200" height="40"/>
    <text font-size="12.8" style="fill: #000000;text-anchor:middle;font-family:sans-serif;font-style:normal;font-weight:normal" x="580" y="483.9">
      <tspan x="580" y="483.9">fins_plot.m</tspan>
    </text>
  </g>
  <g>
    <rect style="fill: #ffffff" x="480" y="540" width="200" height="40"/>
    <rect style="fill: none; fill-opacity:0; stroke-width: 2; stroke: #000000" x="480" y="540" width="200" height="40"/>
    <text font-size="12.8" style="fill: #000000;text-anchor:middle;font-family:sans-serif;font-style:normal;font-weight:normal" x="580" y="563.9">
      <tspan x="580" y="563.9">fins_error_plot.m</tspan>
    </text>
  </g>
  <g>
    <rect style="fill: #ffffff" x="60" y="540" width="320" height="40"/>
    <rect style="fill: none; fill-opacity:0; stroke-width: 2; stroke: #1e90ff" x="60" y="540" width="320" height="40"/>
    <text font-size="12.8" style="fill: #000000;text-anchor:middle;font-family:sans-serif;font-style:normal;font-weight:normal" x="220" y="563.9">
      <tspan x="220" y="563.9">sim_error struct</tspan>
    </text>
  </g>
  <g>
    <rect style="fill: #ffffff" x="60" y="460" width="320" height="40"/>
    <rect style="fill: none; fill-opacity:0; stroke-width: 2; stroke: #000000" x="60" y="460" width="320" height="40"/>
    <text font-size="12.8" style="fill: #000000;text-anchor:middle;font-family:sans-serif;font-style:normal;font-weight:normal" x="220" y="483.9">
      <tspan x="220" y="483.9">fins_compare.m</tspan>
    </text>
  </g>
  <g>
    <rect style="fill: none; fill-opacity:0; stroke-width: 4; stroke: #000000" x="860" y="160" width="240" height="40"/>
    <text font-size="12.8" style="fill: #000000;text-anchor:middle;font-family:sans-serif;font-style:normal;font-weight:normal" x="980" y="183.9">
      <tspan x="980" y="183.9">testbench.vhd</tspan>
    </text>
  </g>
  <g>
    <rect style="fill: none; fill-opacity:0; stroke-width: 2; stroke-dasharray: 4; stroke: #000000" x="860" y="200" width="240" height="480"/>
    <text font-size="12.8" style="fill: #000000;text-anchor:middle;font-family:sans-serif;font-style:normal;font-weight:normal" x="980" y="443.9">
      <tspan x="980" y="443.9"></tspan>
    </text>
  </g>
  <g>
    <rect style="fill: #ffffff" x="880" y="220" width="200" height="40"/>
    <rect style="fill: none; fill-opacity:0; stroke-width: 2; stroke: #000000" x="880" y="220" width="200" height="40"/>
    <text font-size="12.8" style="fill: #000000;text-anchor:middle;font-family:sans-serif;font-style:normal;font-weight:normal" x="980" y="243.9">
      <tspan x="980" y="243.9">axis_file_reader.vhd</tspan>
    </text>
  </g>
  <g>
    <rect style="fill: #ffffff" x="880" y="380" width="200" height="40"/>
    <rect style="fill: none; fill-opacity:0; stroke-width: 2; stroke: #000000" x="880" y="380" width="200" height="40"/>
    <text font-size="12.8" style="fill: #000000;text-anchor:middle;font-family:sans-serif;font-style:normal;font-weight:normal" x="980" y="403.9">
      <tspan x="980" y="403.9">axis_file_writer.vhd</tspan>
    </text>
  </g>
  <g>
    <rect style="fill: #ffffff" x="880" y="300" width="200" height="40"/>
    <rect style="fill: none; fill-opacity:0; stroke-width: 2; stroke: #000000" x="880" y="300" width="200" height="40"/>
    <text font-size="12.8" style="fill: #000000;text-anchor:middle;font-family:sans-serif;font-style:normal;font-weight:normal" x="980" y="323.9">
      <tspan x="980" y="323.9">device_under_test.vhd</tspan>
    </text>
  </g>
  <g>
    <line style="fill: none; fill-opacity:0; stroke-width: 2; stroke: #000000" x1="980" y1="260" x2="980" y2="290.264"/>
    <polygon style="fill: #000000" points="980,297.764 975,287.764 980,290.264 985,287.764 "/>
    <polygon style="fill: none; fill-opacity:0; stroke-width: 2; stroke: #000000" points="980,297.764 975,287.764 980,290.264 985,287.764 "/>
  </g>
  <g>
    <line style="fill: none; fill-opacity:0; stroke-width: 2; stroke: #000000" x1="980" y1="340" x2="980" y2="370.264"/>
    <polygon style="fill: #000000" points="980,377.764 975,367.764 980,370.264 985,367.764 "/>
    <polygon style="fill: none; fill-opacity:0; stroke-width: 2; stroke: #000000" points="980,377.764 975,367.764 980,370.264 985,367.764 "/>
  </g>
  <g>
    <line style="fill: none; fill-opacity:0; stroke-width: 2; stroke: #000000" x1="840" y1="240" x2="870.264" y2="240"/>
    <polygon style="fill: #000000" points="877.764,240 867.764,245 870.264,240 867.764,235 "/>
    <polygon style="fill: none; fill-opacity:0; stroke-width: 2; stroke: #000000" points="877.764,240 867.764,245 870.264,240 867.764,235 "/>
  </g>
  <g>
    <line style="fill: none; fill-opacity:0; stroke-width: 2; stroke: #000000" x1="880" y1="400" x2="849.736" y2="400"/>
    <polygon style="fill: #000000" points="842.236,400 852.236,395 849.736,400 852.236,405 "/>
    <polygon style="fill: none; fill-opacity:0; stroke-width: 2; stroke: #000000" points="842.236,400 852.236,395 849.736,400 852.236,405 "/>
  </g>
  <g>
    <line style="fill: none; fill-opacity:0; stroke-width: 2; stroke: #000000" x1="740" y1="400" x2="709.736" y2="400"/>
    <polygon style="fill: #000000" points="702.236,400 712.236,395 709.736,400 712.236,405 "/>
    <polygon style="fill: none; fill-opacity:0; stroke-width: 2; stroke: #000000" points="702.236,400 712.236,395 709.736,400 712.236,405 "/>
  </g>
  <g>
    <line style="fill: none; fill-opacity:0; stroke-width: 2; stroke: #000000" x1="700" y1="240" x2="730.264" y2="240"/>
    <polygon style="fill: #000000" points="737.764,240 727.764,245 730.264,240 727.764,235 "/>
    <polygon style="fill: none; fill-opacity:0; stroke-width: 2; stroke: #000000" points="737.764,240 727.764,245 730.264,240 727.764,235 "/>
  </g>
  <g>
    <line style="fill: none; fill-opacity:0; stroke-width: 2; stroke: #000000" x1="220" y1="240" x2="250.264" y2="240"/>
    <polygon style="fill: #000000" points="257.764,240 247.764,245 250.264,240 247.764,235 "/>
    <polygon style="fill: none; fill-opacity:0; stroke-width: 2; stroke: #000000" points="257.764,240 247.764,245 250.264,240 247.764,235 "/>
  </g>
  <g>
    <line style="fill: none; fill-opacity:0; stroke-width: 2; stroke: #000000" x1="380" y1="240" x2="410.264" y2="240"/>
    <polygon style="fill: #000000" points="417.764,240 407.764,245 410.264,240 407.764,235 "/>
    <polygon style="fill: none; fill-opacity:0; stroke-width: 2; stroke: #000000" points="417.764,240 407.764,245 410.264,240 407.764,235 "/>
  </g>
  <g>
    <line style="fill: none; fill-opacity:0; stroke-width: 2; stroke: #000000" x1="540" y1="240" x2="570.264" y2="240"/>
    <polygon style="fill: #000000" points="577.764,240 567.764,245 570.264,240 567.764,235 "/>
    <polygon style="fill: none; fill-opacity:0; stroke-width: 2; stroke: #000000" points="577.764,240 567.764,245 570.264,240 567.764,235 "/>
  </g>
  <g>
    <line style="fill: none; fill-opacity:0; stroke-width: 2; stroke: #000000" x1="140" y1="260" x2="140" y2="290.264"/>
    <polygon style="fill: #000000" points="140,297.764 135,287.764 140,290.264 145,287.764 "/>
    <polygon style="fill: none; fill-opacity:0; stroke-width: 2; stroke: #000000" points="140,297.764 135,287.764 140,290.264 145,287.764 "/>
  </g>
  <g>
    <line style="fill: none; fill-opacity:0; stroke-width: 2; stroke: #000000" x1="140" y1="340" x2="140" y2="370.264"/>
    <polygon style="fill: #000000" points="140,377.764 135,367.764 140,370.264 145,367.764 "/>
    <polygon style="fill: none; fill-opacity:0; stroke-width: 2; stroke: #000000" points="140,377.764 135,367.764 140,370.264 145,367.764 "/>
  </g>
  <g>
    <line style="fill: none; fill-opacity:0; stroke-width: 2; stroke: #000000" x1="220" y1="400" x2="250.264" y2="400"/>
    <polygon style="fill: #000000" points="257.764,400 247.764,405 250.264,400 247.764,395 "/>
    <polygon style="fill: none; fill-opacity:0; stroke-width: 2; stroke: #000000" points="257.764,400 247.764,405 250.264,400 247.764,395 "/>
  </g>
  <g>
    <line style="fill: none; fill-opacity:0; stroke-width: 2; stroke: #000000" x1="580" y1="400" x2="389.736" y2="400"/>
    <polygon style="fill: #000000" points="382.236,400 392.236,395 389.736,400 392.236,405 "/>
    <polygon style="fill: none; fill-opacity:0; stroke-width: 2; stroke: #000000" points="382.236,400 392.236,395 389.736,400 392.236,405 "/>
  </g>
  <g>
    <line style="fill: none; fill-opacity:0; stroke-width: 2; stroke: #000000" x1="140" y1="420" x2="140" y2="450.264"/>
    <polygon style="fill: #000000" points="140,457.764 135,447.764 140,450.264 145,447.764 "/>
    <polygon style="fill: none; fill-opacity:0; stroke-width: 2; stroke: #000000" points="140,457.764 135,447.764 140,450.264 145,447.764 "/>
  </g>
  <g>
    <line style="fill: none; fill-opacity:0; stroke-width: 2; stroke: #000000" x1="320" y1="420" x2="320" y2="450.264"/>
    <polygon style="fill: #000000" points="320,457.764 315,447.764 320,450.264 325,447.764 "/>
    <polygon style="fill: none; fill-opacity:0; stroke-width: 2; stroke: #000000" points="320,457.764 315,447.764 320,450.264 325,447.764 "/>
  </g>
  <g>
    <line style="fill: none; fill-opacity:0; stroke-width: 2; stroke: #000000" x1="220" y1="500" x2="220" y2="530.264"/>
    <polygon style="fill: #000000" points="220,537.764 215,527.764 220,530.264 225,527.764 "/>
    <polygon style="fill: none; fill-opacity:0; stroke-width: 2; stroke: #000000" points="220,537.764 215,527.764 220,530.264 225,527.764 "/>
  </g>
  <g>
    <line style="fill: none; fill-opacity:0; stroke-width: 2; stroke: #000000" x1="220" y1="580" x2="220" y2="610.264"/>
    <polygon style="fill: #000000" points="220,617.764 215,607.764 220,610.264 225,607.764 "/>
    <polygon style="fill: none; fill-opacity:0; stroke-width: 2; stroke: #000000" points="220,617.764 215,607.764 220,610.264 225,607.764 "/>
  </g>
  <g>
    <line style="fill: none; fill-opacity:0; stroke-width: 2; stroke: #000000" x1="220" y1="660" x2="220" y2="690.264"/>
    <polygon style="fill: #000000" points="220,697.764 215,687.764 220,690.264 225,687.764 "/>
    <polygon style="fill: none; fill-opacity:0; stroke-width: 2; stroke: #000000" points="220,697.764 215,687.764 220,690.264 225,687.764 "/>
  </g>
</svg>
