<?xml version="1.0" encoding="UTF-8" standalone="no"?>
<!DOCTYPE svg PUBLIC "-//W3C//DTD SVG 1.0//EN" "http://www.w3.org/TR/2001/PR-SVG-20010719/DTD/svg10.dtd">
<svg width="37cm" height="28cm" viewBox="-664 -1244 727 547" xmlns="http://www.w3.org/2000/svg" xmlns:xlink="http://www.w3.org/1999/xlink">
  <g id="Background">
    <rect style="fill: none; stroke-opacity: 1; stroke-width: 6; stroke: #005596" x="-660" y="-1240" width="720" height="540" rx="0" ry="0"/>
    <rect style="fill: none; stroke-opacity: 1; stroke-width: 6; stroke: #c41230" x="-580" y="-1160" width="560" height="260" rx="0" ry="0"/>
    <g>
      <rect style="fill: #ffffff; fill-opacity: 1; stroke-opacity: 1; stroke-width: 4; stroke: #c41230" x="-300" y="-1100" width="160" height="160" rx="0" ry="0"/>
      <text font-size="16.9333" style="fill: #c41230; fill-opacity: 1; stroke: none;text-anchor:middle;font-family:sans-serif;font-style:normal;font-weight:700" x="-220" y="-1014.87">
        <tspan x="-220" y="-1014.87">IP 1</tspan>
      </text>
    </g>
    <text font-size="22.5778" style="fill: #005596; fill-opacity: 1; stroke: none;text-anchor:middle;font-family:sans-serif;font-style:normal;font-weight:700" x="-480" y="-1272.18">
      <tspan x="-480" y="-1272.18"></tspan>
    </text>
    <g>
      <rect style="fill: #ffffff; fill-opacity: 1; stroke-opacity: 1; stroke-width: 4; stroke: #c41230" x="-540" y="-1100" width="160" height="160" rx="0" ry="0"/>
      <text font-size="16.9333" style="fill: #c41230; fill-opacity: 1; stroke: none;text-anchor:middle;font-family:sans-serif;font-style:normal;font-weight:700" x="-460" y="-1014.87">
        <tspan x="-460" y="-1014.87">IP 0</tspan>
      </text>
    </g>
    <g>
      <rect style="fill: #ffffff; fill-opacity: 1; stroke-opacity: 1; stroke-width: 4; stroke: #005596" x="-620" y="-820" width="640" height="66.3333" rx="0" ry="0"/>
      <text font-size="16.9333" style="fill: #005596; fill-opacity: 1; stroke: none;text-anchor:middle;font-family:sans-serif;font-style:normal;font-weight:700" x="-300" y="-781.699">
        <tspan x="-300" y="-781.699">AXI INTERCONNECT</tspan>
      </text>
    </g>
    <text font-size="22.5778" style="fill: #005596; fill-opacity: 1; stroke: none;text-anchor:middle;font-family:sans-serif;font-style:normal;font-weight:700" x="-300" y="-1212.18">
      <tspan x="-300" y="-1212.18">PLATFORM</tspan>
    </text>
    <g>
      <polyline style="fill: none; stroke-opacity: 1; stroke-width: 4; stroke: #000000" points="-460,-928.028 -460,-831.972 "/>
      <polygon style="fill: #000000; fill-opacity: 1; stroke-opacity: 1; stroke-width: 4; stroke: #000000" fill-rule="evenodd" points="-460,-935.528 -455,-925.528 -460,-928.028 -465,-925.528 "/>
      <polygon style="fill: #000000; fill-opacity: 1; stroke-opacity: 1; stroke-width: 4; stroke: #000000" fill-rule="evenodd" points="-460,-824.472 -465,-834.472 -460,-831.972 -455,-834.472 "/>
    </g>
    <g>
      <line style="fill: none; stroke-opacity: 1; stroke-width: 4; stroke: #000000" x1="-368.028" y1="-1020" x2="-311.972" y2="-1020"/>
      <polygon style="fill: #000000; fill-opacity: 1; stroke-opacity: 1; stroke-width: 4; stroke: #000000" fill-rule="evenodd" points="-375.528,-1020 -365.528,-1025 -368.028,-1020 -365.528,-1015 "/>
      <polygon style="fill: #000000; fill-opacity: 1; stroke-opacity: 1; stroke-width: 4; stroke: #000000" fill-rule="evenodd" points="-304.472,-1020 -314.472,-1015 -311.972,-1020 -314.472,-1025 "/>
    </g>
    <g>
      <polyline style="fill: none; stroke-opacity: 1; stroke-width: 4; stroke: #000000" points="-220,-831.972 -220,-928.028 "/>
      <polygon style="fill: #000000; fill-opacity: 1; stroke-opacity: 1; stroke-width: 4; stroke: #000000" fill-rule="evenodd" points="-220,-824.472 -225,-834.472 -220,-831.972 -215,-834.472 "/>
      <polygon style="fill: #000000; fill-opacity: 1; stroke-opacity: 1; stroke-width: 4; stroke: #000000" fill-rule="evenodd" points="-220,-935.528 -215,-925.528 -220,-928.028 -225,-925.528 "/>
    </g>
    <g>
      <polyline style="fill: none; stroke-opacity: 1; stroke-width: 4; stroke: #000000" points="-551.972,-1020 -620,-1020 "/>
      <polygon style="fill: #000000; fill-opacity: 1; stroke-opacity: 1; stroke-width: 4; stroke: #000000" fill-rule="evenodd" points="-544.472,-1020 -554.472,-1015 -551.972,-1020 -554.472,-1025 "/>
    </g>
    <g>
      <polyline style="fill: none; stroke-opacity: 1; stroke-width: 4; stroke: #000000" points="8.02786,-1020 -140,-1020 "/>
      <polygon style="fill: #000000; fill-opacity: 1; stroke-opacity: 1; stroke-width: 4; stroke: #000000" fill-rule="evenodd" points="15.5279,-1020 5.52786,-1015 8.02786,-1020 5.52786,-1025 "/>
    </g>
    <line style="fill: none; stroke-opacity: 1; stroke-width: 8; stroke-dasharray: 8; stroke: #c41230" x1="-100" y1="-960" x2="-60" y2="-960"/>
    <text font-size="22.5778" style="fill: #c41230; fill-opacity: 1; stroke: none;text-anchor:middle;font-family:sans-serif;font-style:normal;font-weight:700" x="-300" y="-1132.51">
      <tspan x="-300" y="-1132.51">APPLICATION</tspan>
    </text>
    <g>
      <rect style="fill: #ffffff; fill-opacity: 1; stroke: none" x="-80" y="-1036.88" width="79" height="14.9"/>
      <text font-size="12.8" style="fill: #000000; fill-opacity: 1; stroke: none;text-anchor:start;font-family:sans-serif;font-style:normal;font-weight:normal" x="-80" y="-1025">
        <tspan x="-80" y="-1025">port-exports</tspan>
      </text>
    </g>
    <g>
      <rect style="fill: #ffffff; fill-opacity: 1; stroke: none" x="-622" y="-1043.88" width="79" height="14.9"/>
      <text font-size="12.8" style="fill: #000000; fill-opacity: 1; stroke: none;text-anchor:start;font-family:sans-serif;font-style:normal;font-weight:normal" x="-622" y="-1032">
        <tspan x="-622" y="-1032">port-exports</tspan>
      </text>
    </g>
    <text font-size="12.8" style="fill: #000000; fill-opacity: 1; stroke: none;text-anchor:start;font-family:sans-serif;font-style:normal;font-weight:normal" x="-378.332" y="-1029.82">
      <tspan x="-378.332" y="-1029.82">connections</tspan>
    </text>
    <g>
      <line style="fill: none; stroke-opacity: 1; stroke-width: 4; stroke: #000000" x1="-368.028" y1="-1000" x2="-311.972" y2="-1000"/>
      <polygon style="fill: #000000; fill-opacity: 1; stroke-opacity: 1; stroke-width: 4; stroke: #000000" fill-rule="evenodd" points="-375.528,-1000 -365.528,-1005 -368.028,-1000 -365.528,-995 "/>
      <polygon style="fill: #000000; fill-opacity: 1; stroke-opacity: 1; stroke-width: 4; stroke: #000000" fill-rule="evenodd" points="-304.472,-1000 -314.472,-995 -311.972,-1000 -314.472,-1005 "/>
    </g>
    <g>
      <polyline style="fill: none; stroke-opacity: 1; stroke-width: 4; stroke: #000000" points="8.02786,-1000 -140,-1000 "/>
      <polygon style="fill: #000000; fill-opacity: 1; stroke-opacity: 1; stroke-width: 4; stroke: #000000" fill-rule="evenodd" points="15.5279,-1000 5.52786,-995 8.02786,-1000 5.52786,-1005 "/>
    </g>
    <g>
      <polyline style="fill: none; stroke-opacity: 1; stroke-width: 4; stroke: #000000" points="-551.972,-1000 -620,-1000 "/>
      <polygon style="fill: #000000; fill-opacity: 1; stroke-opacity: 1; stroke-width: 4; stroke: #000000" fill-rule="evenodd" points="-544.472,-1000 -554.472,-995 -551.972,-1000 -554.472,-1005 "/>
    </g>
  </g>
</svg>
