<?xml version="1.0" encoding="UTF-8" standalone="no"?>
<!DOCTYPE svg PUBLIC "-//W3C//DTD SVG 1.0//EN" "http://www.w3.org/TR/2001/PR-SVG-20010719/DTD/svg10.dtd">
<svg width="60cm" height="24cm" viewBox="-423 -987 1185 480" xmlns="http://www.w3.org/2000/svg" xmlns:xlink="http://www.w3.org/1999/xlink">
  <g id="Background">
    <rect style="fill: none; stroke-opacity: 1; stroke-width: 4; stroke: #c41230" x="60" y="-960" width="340" height="280" rx="0" ry="0"/>
    <g>
      <rect style="fill: #ffffff; fill-opacity: 1; stroke-opacity: 1; stroke-width: 2; stroke: #000000" x="220" y="-800" width="160" height="100" rx="0" ry="0"/>
      <text font-size="12.8" style="fill: #000000; fill-opacity: 1; stroke: none;text-anchor:middle;font-family:sans-serif;font-style:normal;font-weight:normal" x="300" y="-770.119">
        <tspan x="300" y="-770.119">application_project.tcl</tspan>
        <tspan x="300" y="-754.119">nodes_instantiate.tcl</tspan>
        <tspan x="300" y="-738.119">application_create.tcl</tspan>
        <tspan x="300" y="-722.119">application_simulate.tcl</tspan>
      </text>
    </g>
    <rect style="fill: none; stroke-opacity: 1; stroke-width: 4; stroke: #7f7f7f" x="-420" y="-960" width="460" height="280" rx="0" ry="0"/>
    <polygon style="fill: #fffaef; fill-opacity: 1; stroke-opacity: 1; stroke-width: 2; stroke: #000000" fill-rule="evenodd" points="220,-580 226,-590 260,-590 268,-580 340,-580 340,-512 336,-508 220,-508 "/>
    <text font-size="12.8" style="fill: #000000; fill-opacity: 1; stroke: none;text-anchor:middle;font-family:sans-serif;font-style:normal;font-weight:normal" x="280" y="-544.569">
      <tspan x="280" y="-544.569">./gen/vivado/</tspan>
    </text>
    <polygon style="fill: #fffaef; fill-opacity: 1; stroke-opacity: 1; stroke-width: 2; stroke: #000000" fill-rule="evenodd" points="-320,-580 -314,-590 -280,-590 -272,-580 -200,-580 -200,-512 -204,-508 -320,-508 "/>
    <text font-size="12.8" style="fill: #000000; fill-opacity: 1; stroke: none;text-anchor:middle;font-family:sans-serif;font-style:normal;font-weight:normal" x="-260" y="-544.569">
      <tspan x="-260" y="-544.569">./gen/core/</tspan>
    </text>
    <polygon style="fill: #fffaef; fill-opacity: 1; stroke-opacity: 1; stroke-width: 2; stroke: #000000" fill-rule="evenodd" points="-60,-580 -54,-590 -20,-590 -12,-580 60,-580 60,-512 56,-508 -60,-508 "/>
    <text font-size="12.8" style="fill: #000000; fill-opacity: 1; stroke: none;text-anchor:middle;font-family:sans-serif;font-style:normal;font-weight:normal" x="0" y="-544.569">
      <tspan x="0" y="-544.569">./</tspan>
    </text>
    <g>
      <line style="fill: none; stroke-opacity: 1; stroke-width: 2; stroke: #000000" x1="280" y1="-700" x2="280" y2="-590.744"/>
      <polygon style="fill: #000000; fill-opacity: 1; stroke-opacity: 1; stroke-width: 2; stroke: #000000" fill-rule="evenodd" points="280,-583.244 275,-593.244 280,-590.744 285,-593.244 "/>
    </g>
    <g>
      <line style="fill: none; stroke-opacity: 1; stroke-width: 2; stroke: #000000" x1="-260" y1="-711.428" x2="-260" y2="-590.718"/>
      <polygon style="fill: #000000; fill-opacity: 1; stroke-opacity: 1; stroke-width: 2; stroke: #000000" fill-rule="evenodd" points="-260,-583.218 -265,-593.218 -260,-590.718 -255,-593.218 "/>
    </g>
    <text font-size="22.5778" style="fill: #7f7f7f; fill-opacity: 1; stroke: none;text-anchor:middle;font-family:sans-serif;font-style:normal;font-weight:700" x="-190" y="-965.325">
      <tspan x="-190" y="-965.325">CORE BACKEND</tspan>
    </text>
    <text font-size="22.5778" style="fill: #c41230; fill-opacity: 1; stroke: none;text-anchor:middle;font-family:sans-serif;font-style:normal;font-weight:700" x="230" y="-965.325">
      <tspan x="230" y="-965.325">VIVADO BACKEND</tspan>
    </text>
    <rect style="fill: none; stroke-opacity: 1; stroke-width: 4; stroke: #005596" x="420" y="-960" width="340" height="280" rx="0" ry="0"/>
    <text font-size="22.5778" style="fill: #005596; fill-opacity: 1; stroke: none;text-anchor:middle;font-family:sans-serif;font-style:normal;font-weight:700" x="590" y="-965.325">
      <tspan x="590" y="-965.325">QUARTUS BACKEND</tspan>
    </text>
    <g>
      <rect style="fill: #ffffff; fill-opacity: 1; stroke-opacity: 1; stroke-width: 2; stroke: #000000" x="440" y="-800" width="120" height="100" rx="0" ry="0"/>
      <text font-size="12.8" style="fill: #000000; fill-opacity: 1; stroke: none;text-anchor:middle;font-family:sans-serif;font-style:normal;font-weight:normal" x="500" y="-762.119">
        <tspan x="500" y="-762.119"></tspan>
        <tspan x="500" y="-746.119">Makefile</tspan>
        <tspan x="500" y="-730.119"></tspan>
      </text>
    </g>
    <g>
      <rect style="fill: #ffffff; fill-opacity: 1; stroke-opacity: 1; stroke-width: 2; stroke: #000000" x="580" y="-800" width="160" height="100" rx="0" ry="0"/>
      <text font-size="12.8" style="fill: #000000; fill-opacity: 1; stroke: none;text-anchor:middle;font-family:sans-serif;font-style:normal;font-weight:normal" x="660" y="-770.119">
        <tspan x="660" y="-770.119">application_project.tcl</tspan>
        <tspan x="660" y="-754.119">nodes_instantiate.tcl</tspan>
        <tspan x="660" y="-738.119">application_create.tcl</tspan>
        <tspan x="660" y="-722.119">application_simulate.tcl</tspan>
      </text>
    </g>
    <g>
      <rect style="fill: #ffffff; fill-opacity: 1; stroke-opacity: 1; stroke-width: 2; stroke: #000000" x="80" y="-800" width="120" height="100" rx="0" ry="0"/>
      <text font-size="12.8" style="fill: #000000; fill-opacity: 1; stroke: none;text-anchor:middle;font-family:sans-serif;font-style:normal;font-weight:normal" x="140" y="-762.119">
        <tspan x="140" y="-762.119"></tspan>
        <tspan x="140" y="-746.119">Makefile</tspan>
        <tspan x="140" y="-730.119"></tspan>
      </text>
    </g>
    <polygon style="fill: #fffaef; fill-opacity: 1; stroke-opacity: 1; stroke-width: 2; stroke: #000000" fill-rule="evenodd" points="600,-580 606,-590 640,-590 648,-580 720,-580 720,-512 716,-508 600,-508 "/>
    <text font-size="12.8" style="fill: #000000; fill-opacity: 1; stroke: none;text-anchor:middle;font-family:sans-serif;font-style:normal;font-weight:normal" x="660" y="-544.569">
      <tspan x="660" y="-544.569">./gen/quartus/</tspan>
    </text>
    <g>
      <line style="fill: none; stroke-opacity: 1; stroke-width: 2; stroke: #000000" x1="660" y1="-700" x2="660" y2="-590.744"/>
      <polygon style="fill: #000000; fill-opacity: 1; stroke-opacity: 1; stroke-width: 2; stroke: #000000" fill-rule="evenodd" points="660,-583.244 655,-593.244 660,-590.744 665,-593.244 "/>
    </g>
    <g>
      <polyline style="fill: none; stroke-opacity: 1; stroke-width: 2; stroke: #000000" points="500,-700 500,-620 24,-620 24,-589.736 "/>
      <polygon style="fill: #000000; fill-opacity: 1; stroke-opacity: 1; stroke-width: 2; stroke: #000000" fill-rule="evenodd" points="24,-582.236 19,-592.236 24,-589.736 29,-592.236 "/>
    </g>
    <g>
      <polyline style="fill: none; stroke-opacity: 1; stroke-width: 2; stroke: #000000" points="140,-700 140,-640.501 0,-640.501 0,-590.739 "/>
      <polygon style="fill: #000000; fill-opacity: 1; stroke-opacity: 1; stroke-width: 2; stroke: #000000" fill-rule="evenodd" points="0,-583.239 -5,-593.239 0,-590.739 5,-593.239 "/>
    </g>
    <g>
      <rect style="fill: #ffffff; fill-opacity: 1; stroke-opacity: 1; stroke-width: 2; stroke: #000000" x="-100" y="-780" width="120" height="80" rx="0" ry="0"/>
      <text font-size="12.8" style="fill: #000000; fill-opacity: 1; stroke: none;text-anchor:middle;font-family:sans-serif;font-style:normal;font-weight:normal" x="-40" y="-752.119">
        <tspan x="-40" y="-752.119"></tspan>
        <tspan x="-40" y="-736.119">.gitignore</tspan>
        <tspan x="-40" y="-720.119"></tspan>
      </text>
    </g>
    <g>
      <rect style="fill: #ffffff; fill-opacity: 1; stroke-opacity: 1; stroke-width: 2; stroke: #000000" x="-400" y="-780" width="140" height="80" rx="0" ry="0"/>
      <text font-size="12.8" style="fill: #000000; fill-opacity: 1; stroke: none;text-anchor:middle;font-family:sans-serif;font-style:normal;font-weight:normal" x="-330" y="-736.119">
        <tspan x="-330" y="-736.119">params.tcl</tspan>
      </text>
    </g>
    <g>
      <rect style="fill: #ffffff; fill-opacity: 1; stroke-opacity: 1; stroke-width: 2; stroke: #000000" x="-260" y="-860" width="140" height="80" rx="0" ry="0"/>
      <text font-size="12.8" style="fill: #000000; fill-opacity: 1; stroke: none;text-anchor:middle;font-family:sans-serif;font-style:normal;font-weight:normal" x="-190" y="-816.119">
        <tspan x="-190" y="-816.119">axis_verify.vhd</tspan>
      </text>
    </g>
    <g>
      <rect style="fill: #ffffff; fill-opacity: 1; stroke-opacity: 1; stroke-width: 2; stroke: #000000" x="-400" y="-940" width="140" height="80" rx="0" ry="0"/>
      <text font-size="12.8" style="fill: #000000; fill-opacity: 1; stroke: none;text-anchor:middle;font-family:sans-serif;font-style:normal;font-weight:normal" x="-330" y="-896.119">
        <tspan x="-330" y="-896.119">application_tb.vhd</tspan>
      </text>
    </g>
    <g>
      <rect style="fill: #ffffff; fill-opacity: 1; stroke-opacity: 1; stroke-width: 2; stroke: #000000" x="-260" y="-780" width="140" height="80" rx="0" ry="0"/>
      <text font-size="12.8" style="fill: #000000; fill-opacity: 1; stroke: none;text-anchor:middle;font-family:sans-serif;font-style:normal;font-weight:normal" x="-190" y="-736.119">
        <tspan x="-190" y="-736.119">nodeset.json</tspan>
      </text>
    </g>
    <g>
      <line style="fill: none; stroke-opacity: 1; stroke-width: 2; stroke: #000000" x1="-40" y1="-700" x2="-40" y2="-597.736"/>
      <polygon style="fill: #000000; fill-opacity: 1; stroke-opacity: 1; stroke-width: 2; stroke: #000000" fill-rule="evenodd" points="-40,-590.236 -45,-600.236 -40,-597.736 -35,-600.236 "/>
    </g>
    <g>
      <rect style="fill: #ffffff; fill-opacity: 1; stroke-opacity: 1; stroke-width: 2; stroke: #000000" x="-400" y="-860" width="140" height="80" rx="0" ry="0"/>
      <text font-size="12.8" style="fill: #000000; fill-opacity: 1; stroke: none;text-anchor:middle;font-family:sans-serif;font-style:normal;font-weight:normal" x="-330" y="-832.119">
        <tspan x="-330" y="-832.119">pkg.vhd</tspan>
        <tspan x="-330" y="-816.119">pkg.py</tspan>
        <tspan x="-330" y="-800.119">pkg.m</tspan>
      </text>
    </g>
    <text font-size="12.8" style="fill: #000000; fill-opacity: 1; stroke: none;text-anchor:middle;font-family:sans-serif;font-style:normal;font-weight:700" x="-330" y="-928.119">
      <tspan x="-330" y="-928.119">DEFAULT TOP</tspan>
    </text>
    <text font-size="12.8" style="fill: #000000; fill-opacity: 1; stroke: none;text-anchor:middle;font-family:sans-serif;font-style:normal;font-weight:700" x="-40" y="-768.119">
      <tspan x="-40" y="-768.119">GIT</tspan>
    </text>
    <text font-size="12.8" style="fill: #000000; fill-opacity: 1; stroke: none;text-anchor:middle;font-family:sans-serif;font-style:normal;font-weight:700" x="-330" y="-768.119">
      <tspan x="-330" y="-768.119">PARAMETERS</tspan>
    </text>
    <text font-size="12.8" style="fill: #000000; fill-opacity: 1; stroke: none;text-anchor:middle;font-family:sans-serif;font-style:normal;font-weight:700" x="-190" y="-848.119">
      <tspan x="-190" y="-848.119">SIMULATION</tspan>
    </text>
    <text font-size="12.8" style="fill: #000000; fill-opacity: 1; stroke: none;text-anchor:middle;font-family:sans-serif;font-style:normal;font-weight:700" x="-190" y="-768.119">
      <tspan x="-190" y="-768.119">JSON</tspan>
    </text>
    <text font-size="12.8" style="fill: #000000; fill-opacity: 1; stroke: none;text-anchor:middle;font-family:sans-serif;font-style:normal;font-weight:700" x="-330" y="-848.119">
      <tspan x="-330" y="-848.119">PACKAGES</tspan>
    </text>
    <text font-size="12.8" style="fill: #000000; fill-opacity: 1; stroke: none;text-anchor:middle;font-family:sans-serif;font-style:normal;font-weight:700" x="140" y="-788.119">
      <tspan x="140" y="-788.119">MAKE</tspan>
    </text>
    <text font-size="12.8" style="fill: #000000; fill-opacity: 1; stroke: none;text-anchor:middle;font-family:sans-serif;font-style:normal;font-weight:700" x="660" y="-788.119">
      <tspan x="660" y="-788.119">SCRIPTS</tspan>
    </text>
    <text font-size="12.8" style="fill: #000000; fill-opacity: 1; stroke: none;text-anchor:middle;font-family:sans-serif;font-style:normal;font-weight:700" x="500" y="-788.119">
      <tspan x="500" y="-788.119">MAKE</tspan>
    </text>
    <g>
      <rect style="fill: #ffffff; fill-opacity: 1; stroke-opacity: 1; stroke-width: 2; stroke: #000000" x="-260" y="-940" width="140" height="80" rx="0" ry="0"/>
      <text font-size="12.8" style="fill: #000000; fill-opacity: 1; stroke: none;text-anchor:middle;font-family:sans-serif;font-style:normal;font-weight:normal" x="-190" y="-912.119">
        <tspan x="-190" y="-912.119"></tspan>
        <tspan x="-190" y="-896.119">core.vhd</tspan>
        <tspan x="-190" y="-880.119"></tspan>
      </text>
    </g>
    <text font-size="12.8" style="fill: #000000; fill-opacity: 1; stroke: none;text-anchor:middle;font-family:sans-serif;font-style:normal;font-weight:700" x="-190" y="-928.119">
      <tspan x="-190" y="-928.119">USER STUB</tspan>
    </text>
    <line style="fill: none; stroke-opacity: 1; stroke-width: 8; stroke: #c41230" x1="220" y1="-800" x2="380" y2="-700"/>
    <text font-size="12.8" style="fill: #000000; fill-opacity: 1; stroke: none;text-anchor:middle;font-family:sans-serif;font-style:normal;font-weight:700" x="300" y="-788.119">
      <tspan x="300" y="-788.119">SCRIPTS</tspan>
    </text>
    <line style="fill: none; stroke-opacity: 1; stroke-width: 8; stroke: #c41230" x1="220" y1="-700" x2="380" y2="-800"/>
    <g>
      <rect style="fill: #ffffff; fill-opacity: 1; stroke: none" x="220" y="-699.302" width="158.25" height="15.4275"/>
      <text font-size="13.2532" style="fill: #c41230; fill-opacity: 1; stroke: none;text-anchor:start;font-family:sans-serif;font-style:normal;font-weight:700" x="220" y="-687">
        <tspan x="220" y="-687">Not yet implemented</tspan>
      </text>
    </g>
  </g>
</svg>
