<?xml version="1.0" encoding="UTF-8" standalone="no"?>
<!DOCTYPE svg PUBLIC "-//W3C//DTD SVG 1.0//EN" "http://www.w3.org/TR/2001/PR-SVG-20010719/DTD/svg10.dtd">
<svg width="65cm" height="17cm" viewBox="-643 -847 1285 340" xmlns="http://www.w3.org/2000/svg" xmlns:xlink="http://www.w3.org/1999/xlink">
  <rect style="fill: none; fill-opacity:0; stroke-width: 4; stroke: #c41230" x="60" y="-820" width="280" height="160"/>
  <rect style="fill: none; fill-opacity:0; stroke-width: 4; stroke: #7f7f7f" x="-640" y="-820" width="680" height="160"/>
  <g>
    <polygon style="fill: #fffaef" points="200,-580 206,-590 240,-590 248,-580 320,-580 320,-512 316,-508 200,-508 "/>
    <polygon style="fill: none; fill-opacity:0; stroke-width: 2; stroke: #000000" points="200,-580 206,-590 240,-590 248,-580 320,-580 320,-512 316,-508 200,-508 "/>
  </g>
  <text font-size="12.8" style="fill: #000000;text-anchor:middle;font-family:sans-serif;font-style:normal;font-weight:normal" x="260" y="-544.575">
    <tspan x="260" y="-544.575">./gen/vivado/</tspan>
  </text>
  <g>
    <polygon style="fill: #fffaef" points="-480,-580 -474,-590 -440,-590 -432,-580 -360,-580 -360,-512 -364,-508 -480,-508 "/>
    <polygon style="fill: none; fill-opacity:0; stroke-width: 2; stroke: #000000" points="-480,-580 -474,-590 -440,-590 -432,-580 -360,-580 -360,-512 -364,-508 -480,-508 "/>
  </g>
  <text font-size="12.8" style="fill: #000000;text-anchor:middle;font-family:sans-serif;font-style:normal;font-weight:normal" x="-420" y="-544.575">
    <tspan x="-420" y="-544.575">./gen/core/</tspan>
  </text>
  <g>
    <polygon style="fill: #fffaef" points="-60,-580 -54,-590 -20,-590 -12,-580 60,-580 60,-512 56,-508 -60,-508 "/>
    <polygon style="fill: none; fill-opacity:0; stroke-width: 2; stroke: #000000" points="-60,-580 -54,-590 -20,-590 -12,-580 60,-580 60,-512 56,-508 -60,-508 "/>
  </g>
  <text font-size="12.8" style="fill: #000000;text-anchor:middle;font-family:sans-serif;font-style:normal;font-weight:normal" x="0" y="-544.575">
    <tspan x="0" y="-544.575">./</tspan>
  </text>
  <g>
    <line style="fill: none; fill-opacity:0; stroke-width: 2; stroke: #000000" x1="260" y1="-700" x2="260" y2="-590.744"/>
    <polygon style="fill: #000000" points="260,-583.244 255,-593.244 260,-590.744 265,-593.244 "/>
    <polygon style="fill: none; fill-opacity:0; stroke-width: 2; stroke: #000000" points="260,-583.244 255,-593.244 260,-590.744 265,-593.244 "/>
  </g>
  <text font-size="12.8" style="fill: #000000;text-anchor:middle;font-family:sans-serif;font-style:normal;font-weight:700" x="260" y="-783.05">
    <tspan x="260" y="-783.05">Vivado</tspan>
  </text>
  <text font-size="12.8" style="fill: #000000;text-anchor:middle;font-family:sans-serif;font-style:normal;font-weight:700" x="140" y="-783.05">
    <tspan x="140" y="-783.05">Make</tspan>
  </text>
  <text font-size="12.8" style="fill: #000000;text-anchor:middle;font-family:sans-serif;font-style:normal;font-weight:700" x="-40" y="-783.05">
    <tspan x="-40" y="-783.05">Git</tspan>
  </text>
  <text font-size="12.8" style="fill: #000000;text-anchor:middle;font-family:sans-serif;font-style:normal;font-weight:700" x="-280" y="-783.05">
    <tspan x="-280" y="-783.05">Properties</tspan>
  </text>
  <text font-size="12.8" style="fill: #000000;text-anchor:middle;font-family:sans-serif;font-style:normal;font-weight:700" x="-420" y="-783.05">
    <tspan x="-420" y="-783.05">Simulation</tspan>
  </text>
  <text font-size="12.8" style="fill: #000000;text-anchor:middle;font-family:sans-serif;font-style:normal;font-weight:700" x="-560" y="-783.05">
    <tspan x="-560" y="-783.05">Packages</tspan>
  </text>
  <g>
    <line style="fill: none; fill-opacity:0; stroke-width: 2; stroke: #000000" x1="-420" y1="-711.429" x2="-420" y2="-590.718"/>
    <polygon style="fill: #000000" points="-420,-583.218 -425,-593.218 -420,-590.718 -415,-593.218 "/>
    <polygon style="fill: none; fill-opacity:0; stroke-width: 2; stroke: #000000" points="-420,-583.218 -425,-593.218 -420,-590.718 -415,-593.218 "/>
  </g>
  <g>
    <polyline style="fill: none; fill-opacity:0; stroke-width: 2; stroke: #000000" points="-560,-711.429 -560,-640 -457,-640 -457,-599.736 "/>
    <polygon style="fill: #000000" points="-457,-592.236 -462,-602.236 -457,-599.736 -452,-602.236 "/>
    <polygon style="fill: none; fill-opacity:0; stroke-width: 2; stroke: #000000" points="-457,-592.236 -462,-602.236 -457,-599.736 -452,-602.236 "/>
  </g>
  <g>
    <polyline style="fill: none; fill-opacity:0; stroke-width: 2; stroke: #000000" points="-280,-711.429 -280,-640 -396,-640 -396,-589.736 "/>
    <polygon style="fill: #000000" points="-396,-582.236 -401,-592.236 -396,-589.736 -391,-592.236 "/>
    <polygon style="fill: none; fill-opacity:0; stroke-width: 2; stroke: #000000" points="-396,-582.236 -401,-592.236 -396,-589.736 -391,-592.236 "/>
  </g>
  <text font-size="22.5778" style="fill: #7f7f7f;text-anchor:middle;font-family:sans-serif;font-style:normal;font-weight:700" x="-300" y="-825.35">
    <tspan x="-300" y="-825.35">CORE BACKEND</tspan>
  </text>
  <text font-size="22.5778" style="fill: #c41230;text-anchor:middle;font-family:sans-serif;font-style:normal;font-weight:700" x="200" y="-825.35">
    <tspan x="200" y="-825.35">VIVADO BACKEND</tspan>
  </text>
  <rect style="fill: none; fill-opacity:0; stroke-width: 4; stroke: #005596" x="360" y="-820" width="280" height="160"/>
  <text font-size="22.5778" style="fill: #005596;text-anchor:middle;font-family:sans-serif;font-style:normal;font-weight:700" x="500" y="-825.35">
    <tspan x="500" y="-825.35">QUARTUS BACKEND</tspan>
  </text>
  <text font-size="12.8" style="fill: #000000;text-anchor:middle;font-family:sans-serif;font-style:normal;font-weight:700" x="560" y="-783.05">
    <tspan x="560" y="-783.05">Quartus</tspan>
  </text>
  <text font-size="12.8" style="fill: #000000;text-anchor:middle;font-family:sans-serif;font-style:normal;font-weight:700" x="440" y="-783.05">
    <tspan x="440" y="-783.05">Make</tspan>
  </text>
  <g>
    <rect style="fill: #ffffff" x="380" y="-780" width="120" height="80"/>
    <rect style="fill: none; fill-opacity:0; stroke-width: 2; stroke: #000000" x="380" y="-780" width="120" height="80"/>
    <text font-size="12.7998" style="fill: #000000;text-anchor:middle;font-family:sans-serif;font-style:normal;font-weight:normal" x="440" y="-736.1">
      <tspan x="440" y="-736.1">Makefile</tspan>
    </text>
  </g>
  <g>
    <rect style="fill: #ffffff" x="500" y="-780" width="120" height="80"/>
    <rect style="fill: none; fill-opacity:0; stroke-width: 2; stroke: #000000" x="500" y="-780" width="120" height="80"/>
    <text font-size="12.7998" style="fill: #000000;text-anchor:middle;font-family:sans-serif;font-style:normal;font-weight:normal" x="560" y="-752.1">
      <tspan x="560" y="-752.1">ip_hw.tcl</tspan>
      <tspan x="560" y="-736.1">ip_create.tcl</tspan>
      <tspan x="560" y="-720.1">ip_simulate.tcl</tspan>
    </text>
  </g>
  <g>
    <rect style="fill: #ffffff" x="80" y="-780" width="120" height="80"/>
    <rect style="fill: none; fill-opacity:0; stroke-width: 2; stroke: #000000" x="80" y="-780" width="120" height="80"/>
    <text font-size="12.7998" style="fill: #000000;text-anchor:middle;font-family:sans-serif;font-style:normal;font-weight:normal" x="140" y="-736.1">
      <tspan x="140" y="-736.1">Makefile</tspan>
    </text>
  </g>
  <g>
    <rect style="fill: #ffffff" x="200" y="-780" width="120" height="80"/>
    <rect style="fill: none; fill-opacity:0; stroke-width: 2; stroke: #000000" x="200" y="-780" width="120" height="80"/>
    <text font-size="12.7998" style="fill: #000000;text-anchor:middle;font-family:sans-serif;font-style:normal;font-weight:normal" x="260" y="-744.1">
      <tspan x="260" y="-744.1">ip_create.tcl</tspan>
      <tspan x="260" y="-728.1">ip_simulate.tcl</tspan>
    </text>
  </g>
  <g>
    <polygon style="fill: #fffaef" points="500,-580 506,-590 540,-590 548,-580 620,-580 620,-512 616,-508 500,-508 "/>
    <polygon style="fill: none; fill-opacity:0; stroke-width: 2; stroke: #000000" points="500,-580 506,-590 540,-590 548,-580 620,-580 620,-512 616,-508 500,-508 "/>
  </g>
  <text font-size="12.8" style="fill: #000000;text-anchor:middle;font-family:sans-serif;font-style:normal;font-weight:normal" x="560" y="-544.575">
    <tspan x="560" y="-544.575">./gen/quartus/</tspan>
  </text>
  <g>
    <line style="fill: none; fill-opacity:0; stroke-width: 2; stroke: #000000" x1="560" y1="-700" x2="560" y2="-589.736"/>
    <polygon style="fill: #000000" points="560,-582.236 555,-592.236 560,-589.736 565,-592.236 "/>
    <polygon style="fill: none; fill-opacity:0; stroke-width: 2; stroke: #000000" points="560,-582.236 555,-592.236 560,-589.736 565,-592.236 "/>
  </g>
  <g>
    <polyline style="fill: none; fill-opacity:0; stroke-width: 2; stroke: #000000" points="440,-700 440,-620 24,-620 24,-589.736 "/>
    <polygon style="fill: #000000" points="24,-582.236 19,-592.236 24,-589.736 29,-592.236 "/>
    <polygon style="fill: none; fill-opacity:0; stroke-width: 2; stroke: #000000" points="24,-582.236 19,-592.236 24,-589.736 29,-592.236 "/>
  </g>
  <g>
    <polyline style="fill: none; fill-opacity:0; stroke-width: 2; stroke: #000000" points="140,-700 140,-640.501 0,-640.501 0,-590.739 "/>
    <polygon style="fill: #000000" points="0,-583.239 -5,-593.239 0,-590.739 5,-593.239 "/>
    <polygon style="fill: none; fill-opacity:0; stroke-width: 2; stroke: #000000" points="0,-583.239 -5,-593.239 0,-590.739 5,-593.239 "/>
  </g>
  <g>
    <rect style="fill: #ffffff" x="-100" y="-780" width="120" height="80"/>
    <rect style="fill: none; fill-opacity:0; stroke-width: 2; stroke: #000000" x="-100" y="-780" width="120" height="80"/>
    <text font-size="12.7998" style="fill: #000000;text-anchor:middle;font-family:sans-serif;font-style:normal;font-weight:normal" x="-40" y="-736.1">
      <tspan x="-40" y="-736.1">.gitignore</tspan>
    </text>
  </g>
  <g>
    <rect style="fill: #ffffff" x="-340" y="-780" width="120" height="80"/>
    <rect style="fill: none; fill-opacity:0; stroke-width: 2; stroke: #000000" x="-340" y="-780" width="120" height="80"/>
    <text font-size="12.7998" style="fill: #000000;text-anchor:middle;font-family:sans-serif;font-style:normal;font-weight:normal" x="-280" y="-752.1">
      <tspan x="-280" y="-752.1">axilite.vhd</tspan>
      <tspan x="-280" y="-736.1">swconfig.vhd</tspan>
      <tspan x="-280" y="-720.1">properties.md</tspan>
    </text>
  </g>
  <g>
    <rect style="fill: #ffffff" x="-500" y="-780" width="160" height="80"/>
    <rect style="fill: none; fill-opacity:0; stroke-width: 2; stroke: #000000" x="-500" y="-780" width="160" height="80"/>
    <text font-size="12.7998" style="fill: #000000;text-anchor:middle;font-family:sans-serif;font-style:normal;font-weight:normal" x="-420" y="-752.1">
      <tspan x="-420" y="-752.1">axis_verify.vhd</tspan>
      <tspan x="-420" y="-736.1">axilite_verify.vhd</tspan>
      <tspan x="-420" y="-720.1">swconfig_verify.vhd</tspan>
    </text>
  </g>
  <g>
    <rect style="fill: #ffffff" x="-620" y="-780" width="120" height="80"/>
    <rect style="fill: none; fill-opacity:0; stroke-width: 2; stroke: #000000" x="-620" y="-780" width="120" height="80"/>
    <text font-size="12.7998" style="fill: #000000;text-anchor:middle;font-family:sans-serif;font-style:normal;font-weight:normal" x="-560" y="-752.1">
      <tspan x="-560" y="-752.1">pkg.vhd</tspan>
      <tspan x="-560" y="-736.1">pkg.py</tspan>
      <tspan x="-560" y="-720.1">pkg.m</tspan>
    </text>
  </g>
  <g>
    <rect style="fill: #ffffff" x="-220" y="-780" width="120" height="80"/>
    <rect style="fill: none; fill-opacity:0; stroke-width: 2; stroke: #000000" x="-220" y="-780" width="120" height="80"/>
    <text font-size="12.7998" style="fill: #000000;text-anchor:middle;font-family:sans-serif;font-style:normal;font-weight:normal" x="-160" y="-736.1">
      <tspan x="-160" y="-736.1">axis.vhd</tspan>
    </text>
  </g>
  <text font-size="12.8" style="fill: #000000;text-anchor:middle;font-family:sans-serif;font-style:normal;font-weight:700" x="-160" y="-783.798">
    <tspan x="-160" y="-783.798">Ports</tspan>
  </text>
  <g>
    <polyline style="fill: none; fill-opacity:0; stroke-width: 2; stroke: #000000" points="-160,-700 -160,-620 -360,-620 -360,-589.736 "/>
    <polygon style="fill: #000000" points="-360,-582.236 -365,-592.236 -360,-589.736 -355,-592.236 "/>
    <polygon style="fill: none; fill-opacity:0; stroke-width: 2; stroke: #000000" points="-360,-582.236 -365,-592.236 -360,-589.736 -355,-592.236 "/>
  </g>
  <g>
    <line style="fill: none; fill-opacity:0; stroke-width: 2; stroke: #000000" x1="-40" y1="-700" x2="-40" y2="-597.736"/>
    <polygon style="fill: #000000" points="-40,-590.236 -45,-600.236 -40,-597.736 -35,-600.236 "/>
    <polygon style="fill: none; fill-opacity:0; stroke-width: 2; stroke: #000000" points="-40,-590.236 -45,-600.236 -40,-597.736 -35,-600.236 "/>
  </g>
</svg>
