<?xml version="1.0" encoding="UTF-8" standalone="no"?>
<!DOCTYPE svg PUBLIC "-//W3C//DTD SVG 1.0//EN" "http://www.w3.org/TR/2001/PR-SVG-20010719/DTD/svg10.dtd">
<svg width="54cm" height="24cm" viewBox="-383 -987 1065 480" xmlns="http://www.w3.org/2000/svg" xmlns:xlink="http://www.w3.org/1999/xlink">
  <rect style="fill: none; fill-opacity:0; stroke-width: 4; stroke: #c41230" x="60" y="-960" width="300" height="280"/>
  <rect style="fill: none; fill-opacity:0; stroke-width: 4; stroke: #7f7f7f" x="-380" y="-960" width="420" height="280"/>
  <g>
    <polygon style="fill: #fffaef" points="220,-580 226,-590 260,-590 268,-580 340,-580 340,-512 336,-508 220,-508 "/>
    <polygon style="fill: none; fill-opacity:0; stroke-width: 2; stroke: #000000" points="220,-580 226,-590 260,-590 268,-580 340,-580 340,-512 336,-508 220,-508 "/>
  </g>
  <text font-size="12.8" style="fill: #000000;text-anchor:middle;font-family:sans-serif;font-style:normal;font-weight:normal" x="280" y="-544.575">
    <tspan x="280" y="-544.575">./gen/vivado/</tspan>
  </text>
  <g>
    <polygon style="fill: #fffaef" points="-300,-580 -294,-590 -260,-590 -252,-580 -180,-580 -180,-512 -184,-508 -300,-508 "/>
    <polygon style="fill: none; fill-opacity:0; stroke-width: 2; stroke: #000000" points="-300,-580 -294,-590 -260,-590 -252,-580 -180,-580 -180,-512 -184,-508 -300,-508 "/>
  </g>
  <text font-size="12.8" style="fill: #000000;text-anchor:middle;font-family:sans-serif;font-style:normal;font-weight:normal" x="-240" y="-544.575">
    <tspan x="-240" y="-544.575">./gen/core/</tspan>
  </text>
  <g>
    <polygon style="fill: #fffaef" points="-60,-580 -54,-590 -20,-590 -12,-580 60,-580 60,-512 56,-508 -60,-508 "/>
    <polygon style="fill: none; fill-opacity:0; stroke-width: 2; stroke: #000000" points="-60,-580 -54,-590 -20,-590 -12,-580 60,-580 60,-512 56,-508 -60,-508 "/>
  </g>
  <text font-size="12.8" style="fill: #000000;text-anchor:middle;font-family:sans-serif;font-style:normal;font-weight:normal" x="0" y="-544.575">
    <tspan x="0" y="-544.575">./</tspan>
  </text>
  <g>
    <line style="fill: none; fill-opacity:0; stroke-width: 2; stroke: #000000" x1="280" y1="-700" x2="280" y2="-590.744"/>
    <polygon style="fill: #000000" points="280,-583.244 275,-593.244 280,-590.744 285,-593.244 "/>
    <polygon style="fill: none; fill-opacity:0; stroke-width: 2; stroke: #000000" points="280,-583.244 275,-593.244 280,-590.744 285,-593.244 "/>
  </g>
  <g>
    <line style="fill: none; fill-opacity:0; stroke-width: 2; stroke: #000000" x1="-240" y1="-711.428" x2="-240" y2="-590.718"/>
    <polygon style="fill: #000000" points="-240,-583.218 -245,-593.218 -240,-590.718 -235,-593.218 "/>
    <polygon style="fill: none; fill-opacity:0; stroke-width: 2; stroke: #000000" points="-240,-583.218 -245,-593.218 -240,-590.718 -235,-593.218 "/>
  </g>
  <text font-size="22.5778" style="fill: #7f7f7f;text-anchor:middle;font-family:sans-serif;font-style:normal;font-weight:700" x="-170" y="-965.35">
    <tspan x="-170" y="-965.35">CORE BACKEND</tspan>
  </text>
  <text font-size="22.5778" style="fill: #c41230;text-anchor:middle;font-family:sans-serif;font-style:normal;font-weight:700" x="210" y="-965.35">
    <tspan x="210" y="-965.35">VIVADO BACKEND</tspan>
  </text>
  <rect style="fill: none; fill-opacity:0; stroke-width: 4; stroke: #005596" x="380" y="-960" width="300" height="280"/>
  <text font-size="22.5778" style="fill: #005596;text-anchor:middle;font-family:sans-serif;font-style:normal;font-weight:700" x="530" y="-965.35">
    <tspan x="530" y="-965.35">QUARTUS BACKEND</tspan>
  </text>
  <g>
    <rect style="fill: #ffffff" x="400" y="-780" width="120" height="80"/>
    <rect style="fill: none; fill-opacity:0; stroke-width: 2; stroke: #000000" x="400" y="-780" width="120" height="80"/>
    <text font-size="12.8" style="fill: #000000;text-anchor:middle;font-family:sans-serif;font-style:normal;font-weight:normal" x="460" y="-744.1">
      <tspan x="460" y="-744.1">Makefile</tspan>
      <tspan x="460" y="-728.1"></tspan>
    </text>
  </g>
  <g>
    <rect style="fill: #ffffff" x="540" y="-780" width="120" height="80"/>
    <rect style="fill: none; fill-opacity:0; stroke-width: 2; stroke: #000000" x="540" y="-780" width="120" height="80"/>
    <text font-size="12.8" style="fill: #000000;text-anchor:middle;font-family:sans-serif;font-style:normal;font-weight:normal" x="600" y="-760.1">
      <tspan x="600" y="-760.1"></tspan>
      <tspan x="600" y="-744.1">ip_hw.tcl</tspan>
      <tspan x="600" y="-728.1">ip_create.tcl</tspan>
      <tspan x="600" y="-712.1">ip_simulate.tcl</tspan>
    </text>
  </g>
  <g>
    <rect style="fill: #ffffff" x="80" y="-780" width="120" height="80"/>
    <rect style="fill: none; fill-opacity:0; stroke-width: 2; stroke: #000000" x="80" y="-780" width="120" height="80"/>
    <text font-size="12.8" style="fill: #000000;text-anchor:middle;font-family:sans-serif;font-style:normal;font-weight:normal" x="140" y="-744.1">
      <tspan x="140" y="-744.1">Makefile</tspan>
      <tspan x="140" y="-728.1"></tspan>
    </text>
  </g>
  <g>
    <rect style="fill: #ffffff" x="220" y="-780" width="120" height="80"/>
    <rect style="fill: none; fill-opacity:0; stroke-width: 2; stroke: #000000" x="220" y="-780" width="120" height="80"/>
    <text font-size="12.8" style="fill: #000000;text-anchor:middle;font-family:sans-serif;font-style:normal;font-weight:normal" x="280" y="-744.1">
      <tspan x="280" y="-744.1">ip_create.tcl</tspan>
      <tspan x="280" y="-728.1">ip_simulate.tcl</tspan>
    </text>
  </g>
  <g>
    <polygon style="fill: #fffaef" points="540,-580 546,-590 580,-590 588,-580 660,-580 660,-512 656,-508 540,-508 "/>
    <polygon style="fill: none; fill-opacity:0; stroke-width: 2; stroke: #000000" points="540,-580 546,-590 580,-590 588,-580 660,-580 660,-512 656,-508 540,-508 "/>
  </g>
  <text font-size="12.8" style="fill: #000000;text-anchor:middle;font-family:sans-serif;font-style:normal;font-weight:normal" x="600" y="-544.575">
    <tspan x="600" y="-544.575">./gen/quartus/</tspan>
  </text>
  <g>
    <line style="fill: none; fill-opacity:0; stroke-width: 2; stroke: #000000" x1="600" y1="-700" x2="600" y2="-589.736"/>
    <polygon style="fill: #000000" points="600,-582.236 595,-592.236 600,-589.736 605,-592.236 "/>
    <polygon style="fill: none; fill-opacity:0; stroke-width: 2; stroke: #000000" points="600,-582.236 595,-592.236 600,-589.736 605,-592.236 "/>
  </g>
  <g>
    <polyline style="fill: none; fill-opacity:0; stroke-width: 2; stroke: #000000" points="460,-700 460,-620 24,-620 24,-589.736 "/>
    <polygon style="fill: #000000" points="24,-582.236 19,-592.236 24,-589.736 29,-592.236 "/>
    <polygon style="fill: none; fill-opacity:0; stroke-width: 2; stroke: #000000" points="24,-582.236 19,-592.236 24,-589.736 29,-592.236 "/>
  </g>
  <g>
    <polyline style="fill: none; fill-opacity:0; stroke-width: 2; stroke: #000000" points="140,-700 140,-640.501 0,-640.501 0,-590.739 "/>
    <polygon style="fill: #000000" points="0,-583.239 -5,-593.239 0,-590.739 5,-593.239 "/>
    <polygon style="fill: none; fill-opacity:0; stroke-width: 2; stroke: #000000" points="0,-583.239 -5,-593.239 0,-590.739 5,-593.239 "/>
  </g>
  <g>
    <rect style="fill: #ffffff" x="-100" y="-780" width="120" height="80"/>
    <rect style="fill: none; fill-opacity:0; stroke-width: 2; stroke: #000000" x="-100" y="-780" width="120" height="80"/>
    <text font-size="12.8" style="fill: #000000;text-anchor:middle;font-family:sans-serif;font-style:normal;font-weight:normal" x="-40" y="-744.1">
      <tspan x="-40" y="-744.1">.gitignore</tspan>
      <tspan x="-40" y="-728.1"></tspan>
    </text>
  </g>
  <g>
    <rect style="fill: #ffffff" x="-360" y="-860" width="120" height="80"/>
    <rect style="fill: none; fill-opacity:0; stroke-width: 2; stroke: #000000" x="-360" y="-860" width="120" height="80"/>
    <text font-size="12.8" style="fill: #000000;text-anchor:middle;font-family:sans-serif;font-style:normal;font-weight:normal" x="-300" y="-840.1">
      <tspan x="-300" y="-840.1"></tspan>
      <tspan x="-300" y="-824.1">axilite.vhd</tspan>
      <tspan x="-300" y="-808.1">swconfig.vhd</tspan>
      <tspan x="-300" y="-792.1">properties.md</tspan>
    </text>
  </g>
  <g>
    <rect style="fill: #ffffff" x="-360" y="-780" width="240" height="80"/>
    <rect style="fill: none; fill-opacity:0; stroke-width: 2; stroke: #000000" x="-360" y="-780" width="240" height="80"/>
    <text font-size="12.8" style="fill: #000000;text-anchor:middle;font-family:sans-serif;font-style:normal;font-weight:normal" x="-240" y="-760.1">
      <tspan x="-240" y="-760.1"></tspan>
      <tspan x="-240" y="-744.1">axis_verify.vhd</tspan>
      <tspan x="-240" y="-728.1">axilite_verify.vhd</tspan>
      <tspan x="-240" y="-712.1">swconfig_verify.vhd</tspan>
    </text>
  </g>
  <g>
    <rect style="fill: #ffffff" x="-240" y="-940" width="120" height="80"/>
    <rect style="fill: none; fill-opacity:0; stroke-width: 2; stroke: #000000" x="-240" y="-940" width="120" height="80"/>
    <text font-size="12.8" style="fill: #000000;text-anchor:middle;font-family:sans-serif;font-style:normal;font-weight:normal" x="-180" y="-904.1">
      <tspan x="-180" y="-904.1">top.vhd</tspan>
      <tspan x="-180" y="-888.1">top_tb.vhd</tspan>
    </text>
  </g>
  <g>
    <rect style="fill: #ffffff" x="-240" y="-860" width="120" height="80"/>
    <rect style="fill: none; fill-opacity:0; stroke-width: 2; stroke: #000000" x="-240" y="-860" width="120" height="80"/>
    <text font-size="12.8" style="fill: #000000;text-anchor:middle;font-family:sans-serif;font-style:normal;font-weight:normal" x="-180" y="-824.1">
      <tspan x="-180" y="-824.1">axis.vhd</tspan>
      <tspan x="-180" y="-808.1"></tspan>
    </text>
  </g>
  <g>
    <line style="fill: none; fill-opacity:0; stroke-width: 2; stroke: #000000" x1="-40" y1="-700" x2="-40" y2="-597.736"/>
    <polygon style="fill: #000000" points="-40,-590.236 -45,-600.236 -40,-597.736 -35,-600.236 "/>
    <polygon style="fill: none; fill-opacity:0; stroke-width: 2; stroke: #000000" points="-40,-590.236 -45,-600.236 -40,-597.736 -35,-600.236 "/>
  </g>
  <g>
    <rect style="fill: #ffffff" x="-360" y="-940" width="120" height="80"/>
    <rect style="fill: none; fill-opacity:0; stroke-width: 2; stroke: #000000" x="-360" y="-940" width="120" height="80"/>
    <text font-size="12.8" style="fill: #000000;text-anchor:middle;font-family:sans-serif;font-style:normal;font-weight:normal" x="-300" y="-920.1">
      <tspan x="-300" y="-920.1"></tspan>
      <tspan x="-300" y="-904.1">pkg.vhd</tspan>
      <tspan x="-300" y="-888.1">pkg.py</tspan>
      <tspan x="-300" y="-872.1">pkg.m</tspan>
    </text>
  </g>
  <text font-size="12.8" style="fill: #000000;text-anchor:middle;font-family:sans-serif;font-style:normal;font-weight:700" x="-180" y="-928.1">
    <tspan x="-180" y="-928.1">STUBS</tspan>
  </text>
  <text font-size="12.8" style="fill: #000000;text-anchor:middle;font-family:sans-serif;font-style:normal;font-weight:700" x="-40" y="-768.1">
    <tspan x="-40" y="-768.1">GIT</tspan>
  </text>
  <text font-size="12.8" style="fill: #000000;text-anchor:middle;font-family:sans-serif;font-style:normal;font-weight:700" x="-300" y="-848.1">
    <tspan x="-300" y="-848.1">PROPERTIES</tspan>
  </text>
  <text font-size="12.8" style="fill: #000000;text-anchor:middle;font-family:sans-serif;font-style:normal;font-weight:700" x="-240" y="-768.1">
    <tspan x="-240" y="-768.1">SIMULATION</tspan>
  </text>
  <text font-size="12.8" style="fill: #000000;text-anchor:middle;font-family:sans-serif;font-style:normal;font-weight:700" x="-180" y="-848.1">
    <tspan x="-180" y="-848.1">PORTS</tspan>
  </text>
  <text font-size="12.8" style="fill: #000000;text-anchor:middle;font-family:sans-serif;font-style:normal;font-weight:700" x="-300" y="-928.1">
    <tspan x="-300" y="-928.1">PACKAGES</tspan>
  </text>
  <text font-size="12.8" style="fill: #000000;text-anchor:middle;font-family:sans-serif;font-style:normal;font-weight:700" x="280" y="-768.1">
    <tspan x="280" y="-768.1">SCRIPTS</tspan>
  </text>
  <text font-size="12.8" style="fill: #000000;text-anchor:middle;font-family:sans-serif;font-style:normal;font-weight:700" x="140" y="-768.1">
    <tspan x="140" y="-768.1">MAKE</tspan>
  </text>
  <text font-size="12.8" style="fill: #000000;text-anchor:middle;font-family:sans-serif;font-style:normal;font-weight:700" x="600" y="-768.1">
    <tspan x="600" y="-768.1">SCRIPTS</tspan>
  </text>
  <text font-size="12.8" style="fill: #000000;text-anchor:middle;font-family:sans-serif;font-style:normal;font-weight:700" x="460" y="-768.1">
    <tspan x="460" y="-768.1">MAKE</tspan>
  </text>
</svg>
