<?xml version="1.0" encoding="UTF-8" standalone="no"?>
<!DOCTYPE svg PUBLIC "-//W3C//DTD SVG 1.0//EN" "http://www.w3.org/TR/2001/PR-SVG-20010719/DTD/svg10.dtd">
<svg width="50cm" height="54cm" viewBox="-624 -1300 987 1064" xmlns="http://www.w3.org/2000/svg" xmlns:xlink="http://www.w3.org/1999/xlink">
  <g id="Background">
    <g>
      <rect style="fill: #ffffff; fill-opacity: 1; stroke-opacity: 1; stroke-width: 4; stroke: #c41230" x="60" y="-960" width="100" height="120" rx="0" ry="0"/>
      <text font-size="12.8" style="fill: #c41230; fill-opacity: 1; stroke: none;text-anchor:middle;font-family:sans-serif;font-style:normal;font-weight:normal" x="110" y="-904.119">
        <tspan x="110" y="-904.119">Create tool</tspan>
        <tspan x="110" y="-888.119">project</tspan>
      </text>
    </g>
    <rect style="fill: none; stroke-opacity: 1; stroke-width: 6; stroke: #7f7f7f" x="-520" y="-1260" width="780" height="200" rx="0" ry="0"/>
    <rect style="fill: none; stroke-opacity: 1; stroke-width: 6; stroke: #7f7f7f" x="-500" y="-580" width="740" height="340" rx="0" ry="0"/>
    <rect style="fill: none; stroke-opacity: 1; stroke-width: 6; stroke: #7f7f7f" x="-620" y="-1000" width="980" height="360" rx="0" ry="0"/>
    <text font-size="22.5778" style="fill: #7f7f7f; fill-opacity: 1; stroke: none;text-anchor:middle;font-family:sans-serif;font-style:normal;font-weight:700" x="-140" y="-1279.04">
      <tspan x="-140" y="-1279.04">$ fins -b [BACKEND] [FINS JSON FILE]</tspan>
    </text>
    <text font-size="22.5778" style="fill: #7f7f7f; fill-opacity: 1; stroke: none;text-anchor:middle;font-family:sans-serif;font-style:normal;font-weight:700" x="-140" y="-1019.04">
      <tspan x="-140" y="-1019.04">$ make</tspan>
    </text>
    <g>
      <rect style="fill: #ffffff; fill-opacity: 1; stroke-opacity: 1; stroke-width: 4; stroke: #000000" x="200" y="-960" width="100" height="120" rx="0" ry="0"/>
      <text font-size="12.8" style="fill: #000000; fill-opacity: 1; stroke: none;text-anchor:middle;font-family:sans-serif;font-style:normal;font-weight:normal" x="250" y="-936.119">
        <tspan x="250" y="-936.119">Run</tspan>
        <tspan x="250" y="-920.119">"prebuild"</tspan>
        <tspan x="250" y="-904.119">scripts with</tspan>
        <tspan x="250" y="-888.119">MATLAB,</tspan>
        <tspan x="250" y="-872.119">Octave,</tspan>
        <tspan x="250" y="-856.119">or Python</tspan>
      </text>
    </g>
    <g>
      <rect style="fill: #ffffff; fill-opacity: 1; stroke-opacity: 1; stroke-width: 4; stroke: #c41230" x="-60" y="-960" width="100.4" height="120" rx="0" ry="0"/>
      <text font-size="12.8" style="fill: #c41230; fill-opacity: 1; stroke: none;text-anchor:middle;font-family:sans-serif;font-style:normal;font-weight:normal" x="-9.8" y="-912.119">
        <tspan x="-9.8" y="-912.119">Run TCL</tspan>
        <tspan x="-9.8" y="-896.119">"prebuild"</tspan>
        <tspan x="-9.8" y="-880.119">scripts</tspan>
      </text>
    </g>
    <g>
      <rect style="fill: #ffffff; fill-opacity: 1; stroke-opacity: 1; stroke-width: 4; stroke: #c41230" x="-180" y="-960" width="100.4" height="120" rx="0" ry="0"/>
      <text font-size="12.8" style="fill: #c41230; fill-opacity: 1; stroke: none;text-anchor:middle;font-family:sans-serif;font-style:normal;font-weight:normal" x="-129.8" y="-904.119">
        <tspan x="-129.8" y="-904.119">Define</tspan>
        <tspan x="-129.8" y="-888.119">Parameters</tspan>
      </text>
    </g>
    <g>
      <rect style="fill: #ffffff; fill-opacity: 1; stroke-opacity: 1; stroke-width: 4; stroke: #c41230" x="-420" y="-960" width="100.4" height="120" rx="0" ry="0"/>
      <text font-size="12.8" style="fill: #c41230; fill-opacity: 1; stroke: none;text-anchor:middle;font-family:sans-serif;font-style:normal;font-weight:normal" x="-369.8" y="-912.119">
        <tspan x="-369.8" y="-912.119">Run TCL</tspan>
        <tspan x="-369.8" y="-896.119">"postbuild"</tspan>
        <tspan x="-369.8" y="-880.119">scripts</tspan>
      </text>
    </g>
    <g>
      <rect style="fill: #ffffff; fill-opacity: 1; stroke-opacity: 1; stroke-width: 4; stroke: #c41230" x="-302.676" y="-960" width="105.35" height="120" rx="0" ry="0"/>
      <text font-size="12.8" style="fill: #c41230; fill-opacity: 1; stroke: none;text-anchor:middle;font-family:sans-serif;font-style:normal;font-weight:normal" x="-250.001" y="-936.119">
        <tspan x="-250.001" y="-936.119">Instantiate</tspan>
        <tspan x="-250.001" y="-920.119">and</tspan>
        <tspan x="-250.001" y="-904.119">connect</tspan>
        <tspan x="-250.001" y="-888.119">nodes</tspan>
        <tspan x="-250.001" y="-872.119"></tspan>
        <tspan x="-250.001" y="-856.119"></tspan>
      </text>
    </g>
    <g>
      <rect style="fill: #ffffff; fill-opacity: 1; stroke-opacity: 1; stroke-width: 4; stroke: #000000" x="-560" y="-960" width="100" height="120" rx="0" ry="0"/>
      <text font-size="12.8" style="fill: #000000; fill-opacity: 1; stroke: none;text-anchor:middle;font-family:sans-serif;font-style:normal;font-weight:normal" x="-510" y="-936.119">
        <tspan x="-510" y="-936.119">Run</tspan>
        <tspan x="-510" y="-920.119">"postbuild"</tspan>
        <tspan x="-510" y="-904.119">scripts with</tspan>
        <tspan x="-510" y="-888.119">MATLAB,</tspan>
        <tspan x="-510" y="-872.119">Octave,</tspan>
        <tspan x="-510" y="-856.119">or Python</tspan>
      </text>
    </g>
    <g>
      <rect style="fill: #ffffff; fill-opacity: 1; stroke-opacity: 1; stroke-width: 4; stroke: #000000" x="-460" y="-540" width="100" height="120" rx="0" ry="0"/>
      <text font-size="12.8" style="fill: #000000; fill-opacity: 1; stroke: none;text-anchor:middle;font-family:sans-serif;font-style:normal;font-weight:normal" x="-410" y="-516.119">
        <tspan x="-410" y="-516.119">Run</tspan>
        <tspan x="-410" y="-500.119">"presim"</tspan>
        <tspan x="-410" y="-484.119">scripts with</tspan>
        <tspan x="-410" y="-468.119">MATLAB,</tspan>
        <tspan x="-410" y="-452.119">Octave,</tspan>
        <tspan x="-410" y="-436.119">or Python</tspan>
      </text>
    </g>
    <g>
      <rect style="fill: #ffffff; fill-opacity: 1; stroke-opacity: 1; stroke-width: 4; stroke: #000000" x="100" y="-540" width="100" height="120" rx="0" ry="0"/>
      <text font-size="12.8" style="fill: #000000; fill-opacity: 1; stroke: none;text-anchor:middle;font-family:sans-serif;font-style:normal;font-weight:normal" x="150" y="-516.119">
        <tspan x="150" y="-516.119">Run</tspan>
        <tspan x="150" y="-500.119">"postsim"</tspan>
        <tspan x="150" y="-484.119">scripts with</tspan>
        <tspan x="150" y="-468.119">MATLAB,</tspan>
        <tspan x="150" y="-452.119">Octave,</tspan>
        <tspan x="150" y="-436.119">or Python</tspan>
      </text>
    </g>
    <g>
      <rect style="fill: #ffffff; fill-opacity: 1; stroke-opacity: 1; stroke-width: 4; stroke: #c41230" x="-300" y="-540" width="100.4" height="120" rx="0" ry="0"/>
      <text font-size="12.8" style="fill: #c41230; fill-opacity: 1; stroke: none;text-anchor:middle;font-family:sans-serif;font-style:normal;font-weight:normal" x="-249.8" y="-492.119">
        <tspan x="-249.8" y="-492.119">Run TCL</tspan>
        <tspan x="-249.8" y="-476.119">"presim"</tspan>
        <tspan x="-249.8" y="-460.119">scripts</tspan>
      </text>
    </g>
    <g>
      <rect style="fill: #ffffff; fill-opacity: 1; stroke-opacity: 1; stroke-width: 4; stroke: #c41230" x="-180" y="-540" width="100.4" height="120" rx="0" ry="0"/>
      <text font-size="12.8" style="fill: #c41230; fill-opacity: 1; stroke: none;text-anchor:middle;font-family:sans-serif;font-style:normal;font-weight:normal" x="-129.8" y="-484.119">
        <tspan x="-129.8" y="-484.119">Run</tspan>
        <tspan x="-129.8" y="-468.119">Simulation</tspan>
      </text>
    </g>
    <g>
      <rect style="fill: #ffffff; fill-opacity: 1; stroke-opacity: 1; stroke-width: 4; stroke: #c41230" x="-60" y="-540" width="100.4" height="120" rx="0" ry="0"/>
      <text font-size="12.8" style="fill: #c41230; fill-opacity: 1; stroke: none;text-anchor:middle;font-family:sans-serif;font-style:normal;font-weight:normal" x="-9.8" y="-492.119">
        <tspan x="-9.8" y="-492.119">Run TCL</tspan>
        <tspan x="-9.8" y="-476.119">"postsim"</tspan>
        <tspan x="-9.8" y="-460.119">scripts</tspan>
      </text>
    </g>
    <g>
      <rect style="fill: #ffffff; fill-opacity: 1; stroke-opacity: 1; stroke-width: 4; stroke: #000000" x="-120" y="-1220" width="100.4" height="120" rx="0" ry="0"/>
      <text font-size="12.8" style="fill: #000000; fill-opacity: 1; stroke: none;text-anchor:middle;font-family:sans-serif;font-style:normal;font-weight:normal" x="-69.8" y="-1188.12">
        <tspan x="-69.8" y="-1188.12">Generate</tspan>
        <tspan x="-69.8" y="-1172.12">"core"</tspan>
        <tspan x="-69.8" y="-1156.12">backend</tspan>
        <tspan x="-69.8" y="-1140.12">templates</tspan>
        <tspan x="-69.8" y="-1124.12">with Jinja2</tspan>
      </text>
    </g>
    <g>
      <rect style="fill: #ffffff; fill-opacity: 1; stroke-opacity: 1; stroke-width: 4; stroke: #000000" x="0" y="-1220" width="100.4" height="120" rx="0" ry="0"/>
      <text font-size="12.8" style="fill: #000000; fill-opacity: 1; stroke: none;text-anchor:middle;font-family:sans-serif;font-style:normal;font-weight:normal" x="50.2" y="-1196.12">
        <tspan x="50.2" y="-1196.12">Generate</tspan>
        <tspan x="50.2" y="-1180.12">"vivado" or</tspan>
        <tspan x="50.2" y="-1164.12">"quartus"</tspan>
        <tspan x="50.2" y="-1148.12">backend</tspan>
        <tspan x="50.2" y="-1132.12">templates</tspan>
        <tspan x="50.2" y="-1116.12">with Jinja2</tspan>
      </text>
    </g>
    <g>
      <rect style="fill: #ffffff; fill-opacity: 1; stroke-opacity: 1; stroke-width: 4; stroke: #000000" x="120" y="-1220" width="100.4" height="120" rx="0" ry="0"/>
      <text font-size="12.8" style="fill: #000000; fill-opacity: 1; stroke: none;text-anchor:middle;font-family:sans-serif;font-style:normal;font-weight:normal" x="170.2" y="-1196.12">
        <tspan x="170.2" y="-1196.12">Recursively</tspan>
        <tspan x="170.2" y="-1180.12">generate</tspan>
        <tspan x="170.2" y="-1164.12">the same</tspan>
        <tspan x="170.2" y="-1148.12">backends</tspan>
        <tspan x="170.2" y="-1132.12">for each</tspan>
        <tspan x="170.2" y="-1116.12">node/IP</tspan>
      </text>
    </g>
    <text font-size="16.9333" style="fill: #c41230; fill-opacity: 1; stroke: none;text-anchor:middle;font-family:sans-serif;font-style:normal;font-weight:700" x="-186" y="-972.138">
      <tspan x="-186" y="-972.138">VIVADO NODESET_CREATE.TCL</tspan>
    </text>
    <text font-size="22.5778" style="fill: #7f7f7f; fill-opacity: 1; stroke: none;text-anchor:middle;font-family:sans-serif;font-style:normal;font-weight:700" x="-120" y="-599.043">
      <tspan x="-120" y="-599.043">$ make sim</tspan>
    </text>
    <g>
      <polyline style="fill: none; stroke-opacity: 1; stroke-width: 4; stroke: #000000" points="220.4,-1160 320,-1160 320,-900 311.972,-900 "/>
      <polygon style="fill: #000000; fill-opacity: 1; stroke-opacity: 1; stroke-width: 4; stroke: #000000" fill-rule="evenodd" points="304.472,-900 314.472,-905 311.972,-900 314.472,-895 "/>
    </g>
    <g>
      <polyline style="fill: none; stroke-opacity: 1; stroke-width: 4; stroke: #000000" points="-560,-900 -580,-900 -580,-480 -471.972,-480 "/>
      <polygon style="fill: #000000; fill-opacity: 1; stroke-opacity: 1; stroke-width: 4; stroke: #000000" fill-rule="evenodd" points="-464.472,-480 -474.472,-475 -471.972,-480 -474.472,-485 "/>
    </g>
    <line style="fill: none; stroke-opacity: 1; stroke-width: 4; stroke: #000000" x1="-17.6545" y1="-1160" x2="0" y2="-1160"/>
    <line style="fill: none; stroke-opacity: 1; stroke-width: 4; stroke: #000000" x1="100.4" y1="-1160" x2="120" y2="-1160"/>
    <line style="fill: none; stroke-opacity: 1; stroke-width: 4; stroke: #000000" x1="200" y1="-900" x2="160" y2="-900"/>
    <line style="fill: none; stroke-opacity: 1; stroke-width: 4; stroke: #c41230" x1="-60" y1="-900" x2="-79.6" y2="-900"/>
    <line style="fill: none; stroke-opacity: 1; stroke-width: 4; stroke: #c41230" x1="-180" y1="-900" x2="-197.325" y2="-900"/>
    <line style="fill: none; stroke-opacity: 1; stroke-width: 4; stroke: #c41230" x1="-302.676" y1="-900" x2="-319.6" y2="-900"/>
    <line style="fill: none; stroke-opacity: 1; stroke-width: 4; stroke: #000000" x1="-420" y1="-900" x2="-460" y2="-900"/>
    <line style="fill: none; stroke-opacity: 1; stroke-width: 4; stroke: #c41230" x1="-199.6" y1="-480" x2="-180" y2="-480"/>
    <line style="fill: none; stroke-opacity: 1; stroke-width: 4; stroke: #c41230" x1="-79.6" y1="-480" x2="-60" y2="-480"/>
    <g>
      <line style="fill: none; stroke-opacity: 1; stroke-width: 4; stroke: #000000" x1="-360" y1="-480" x2="-311.972" y2="-480"/>
      <polygon style="fill: #000000; fill-opacity: 1; stroke-opacity: 1; stroke-width: 4; stroke: #000000" fill-rule="evenodd" points="-304.472,-480 -314.472,-475 -311.972,-480 -314.472,-485 "/>
    </g>
    <g>
      <line style="fill: none; stroke-opacity: 1; stroke-width: 4; stroke: #000000" x1="40.4" y1="-480" x2="88.0279" y2="-480"/>
      <polygon style="fill: #000000; fill-opacity: 1; stroke-opacity: 1; stroke-width: 4; stroke: #000000" fill-rule="evenodd" points="95.5279,-480 85.5279,-475 88.0279,-480 85.5279,-485 "/>
    </g>
    <text font-size="16.9333" style="fill: #c41230; fill-opacity: 1; stroke: none;text-anchor:middle;font-family:sans-serif;font-style:normal;font-weight:700" x="-120" y="-554.138">
      <tspan x="-120" y="-554.138">VIVADO NODESET_SIMULATE.TCL</tspan>
    </text>
    <g>
      <rect style="fill: #ffffff; fill-opacity: 1; stroke-opacity: 1; stroke-width: 4; stroke: #000000" x="-480" y="-1220" width="100.4" height="120" rx="0" ry="0"/>
      <text font-size="12.8" style="fill: #000000; fill-opacity: 1; stroke: none;text-anchor:middle;font-family:sans-serif;font-style:normal;font-weight:normal" x="-429.8" y="-1172.12">
        <tspan x="-429.8" y="-1172.12">Load the</tspan>
        <tspan x="-429.8" y="-1156.12">FINS JSON</tspan>
        <tspan x="-429.8" y="-1140.12">file</tspan>
      </text>
    </g>
    <g>
      <rect style="fill: #ffffff; fill-opacity: 1; stroke-opacity: 1; stroke-width: 4; stroke: #000000" x="-360" y="-1220" width="100.4" height="120" rx="0" ry="0"/>
      <text font-size="12.8" style="fill: #000000; fill-opacity: 1; stroke: none;text-anchor:middle;font-family:sans-serif;font-style:normal;font-weight:normal" x="-309.8" y="-1188.12">
        <tspan x="-309.8" y="-1188.12">If it exists,</tspan>
        <tspan x="-309.8" y="-1172.12">load and</tspan>
        <tspan x="-309.8" y="-1156.12">apply the</tspan>
        <tspan x="-309.8" y="-1140.12">.override</tspan>
        <tspan x="-309.8" y="-1124.12">JSON file</tspan>
      </text>
    </g>
    <g>
      <rect style="fill: #ffffff; fill-opacity: 1; stroke-opacity: 1; stroke-width: 4; stroke: #000000" x="-240.026" y="-1220" width="101.4" height="120" rx="0" ry="0"/>
      <text font-size="12.8" style="fill: #000000; fill-opacity: 1; stroke: none;text-anchor:middle;font-family:sans-serif;font-style:normal;font-weight:normal" x="-189.326" y="-1172.12">
        <tspan x="-189.326" y="-1172.12">Validate</tspan>
        <tspan x="-189.326" y="-1156.12">and process</tspan>
        <tspan x="-189.326" y="-1140.12">FINS data</tspan>
      </text>
    </g>
    <line style="fill: none; stroke-opacity: 1; stroke-width: 4; stroke: #000000" x1="-138.65" y1="-1160" x2="-120" y2="-1160"/>
    <line style="fill: none; stroke-opacity: 1; stroke-width: 4; stroke: #000000" x1="-259.6" y1="-1160" x2="-240" y2="-1160"/>
    <line style="fill: none; stroke-opacity: 1; stroke-width: 4; stroke: #000000" x1="-379.6" y1="-1160" x2="-360" y2="-1160"/>
    <g>
      <rect style="fill: #ffffff; fill-opacity: 1; stroke-opacity: 1; stroke-width: 4; stroke: #005596" x="-60" y="-800" width="100.4" height="120" rx="0" ry="0"/>
      <text font-size="12.8" style="fill: #005596; fill-opacity: 1; stroke: none;text-anchor:middle;font-family:sans-serif;font-style:normal;font-weight:normal" x="-9.8" y="-752.119">
        <tspan x="-9.8" y="-752.119">Run TCL</tspan>
        <tspan x="-9.8" y="-736.119">"prebuild"</tspan>
        <tspan x="-9.8" y="-720.119">scripts</tspan>
      </text>
    </g>
    <text font-size="16.9333" style="fill: #005596; fill-opacity: 1; stroke: none;text-anchor:middle;font-family:sans-serif;font-style:normal;font-weight:700" x="-183" y="-812.138">
      <tspan x="-183" y="-812.138">QUARTUS NODESET_CREATE.TCL</tspan>
    </text>
    <g>
      <rect style="fill: #ffffff; fill-opacity: 1; stroke-opacity: 1; stroke-width: 4; stroke: #005596" x="-420" y="-800" width="100.4" height="120" rx="0" ry="0"/>
      <text font-size="12.8016" style="fill: #005596; fill-opacity: 1; stroke: none;text-anchor:middle;font-family:sans-serif;font-style:normal;font-weight:normal" x="-369.8" y="-752.12">
        <tspan x="-369.8" y="-752.12">Run TCL</tspan>
        <tspan x="-369.8" y="-736.118">"postbuild"</tspan>
        <tspan x="-369.8" y="-720.116">scripts</tspan>
      </text>
    </g>
    <line style="fill: none; stroke-opacity: 1; stroke-width: 4; stroke: #005596" x1="-300" y1="-740" x2="-319.6" y2="-740"/>
    <line style="fill: none; stroke-opacity: 1; stroke-width: 4; stroke: #005596" x1="-60" y1="-740" x2="-76.925" y2="-740"/>
    <g>
      <polyline style="fill: none; stroke-opacity: 1; stroke-width: 4; stroke: #000000" points="200,-900 180,-900 180,-740 171.972,-740 "/>
      <polygon style="fill: #000000; fill-opacity: 1; stroke-opacity: 1; stroke-width: 4; stroke: #000000" fill-rule="evenodd" points="164.472,-740 174.472,-745 171.972,-740 174.472,-735 "/>
    </g>
    <g>
      <polyline style="fill: none; stroke-opacity: 1; stroke-width: 4; stroke: #000000" points="-420,-740 -440,-740 -440,-888.028 "/>
      <polygon style="fill: #000000; fill-opacity: 1; stroke-opacity: 1; stroke-width: 4; stroke: #000000" fill-rule="evenodd" points="-440,-895.528 -435,-885.528 -440,-888.028 -445,-885.528 "/>
    </g>
    <g>
      <rect style="fill: #ffffff; fill-opacity: 1; stroke-opacity: 1; stroke-width: 4; stroke: #005596" x="-300" y="-380" width="100.4" height="120" rx="0" ry="0"/>
      <text font-size="12.8" style="fill: #005596; fill-opacity: 1; stroke: none;text-anchor:middle;font-family:sans-serif;font-style:normal;font-weight:normal" x="-249.8" y="-332.119">
        <tspan x="-249.8" y="-332.119">Run TCL</tspan>
        <tspan x="-249.8" y="-316.119">"presim"</tspan>
        <tspan x="-249.8" y="-300.119">scripts</tspan>
      </text>
    </g>
    <g>
      <rect style="fill: #ffffff; fill-opacity: 1; stroke-opacity: 1; stroke-width: 4; stroke: #005596" x="-180" y="-380" width="100.4" height="120" rx="0" ry="0"/>
      <text font-size="12.8" style="fill: #005596; fill-opacity: 1; stroke: none;text-anchor:middle;font-family:sans-serif;font-style:normal;font-weight:normal" x="-129.8" y="-324.119">
        <tspan x="-129.8" y="-324.119">Run</tspan>
        <tspan x="-129.8" y="-308.119">Simulation</tspan>
      </text>
    </g>
    <g>
      <rect style="fill: #ffffff; fill-opacity: 1; stroke-opacity: 1; stroke-width: 4; stroke: #005596" x="-60" y="-380" width="100.4" height="120" rx="0" ry="0"/>
      <text font-size="12.8" style="fill: #005596; fill-opacity: 1; stroke: none;text-anchor:middle;font-family:sans-serif;font-style:normal;font-weight:normal" x="-9.8" y="-332.119">
        <tspan x="-9.8" y="-332.119">Run TCL</tspan>
        <tspan x="-9.8" y="-316.119">"postsim"</tspan>
        <tspan x="-9.8" y="-300.119">scripts</tspan>
      </text>
    </g>
    <text font-size="16.9333" style="fill: #005596; fill-opacity: 1; stroke: none;text-anchor:middle;font-family:sans-serif;font-style:normal;font-weight:700" x="-120" y="-394.138">
      <tspan x="-120" y="-394.138">QUARTUS NODESET_SIMULATE.TCL</tspan>
    </text>
    <line style="fill: none; stroke-opacity: 1; stroke-width: 4; stroke: #005596" x1="-199.6" y1="-320" x2="-180" y2="-320"/>
    <line style="fill: none; stroke-opacity: 1; stroke-width: 4; stroke: #005596" x1="-79.6" y1="-320" x2="-60" y2="-320"/>
    <g>
      <polyline style="fill: none; stroke-opacity: 1; stroke-width: 4; stroke: #000000" points="-360,-480 -330,-480 -330,-320 -311.972,-320 "/>
      <polygon style="fill: #000000; fill-opacity: 1; stroke-opacity: 1; stroke-width: 4; stroke: #000000" fill-rule="evenodd" points="-304.472,-320 -314.472,-315 -311.972,-320 -314.472,-325 "/>
    </g>
    <g>
      <polyline style="fill: none; stroke-opacity: 1; stroke-width: 4; stroke: #000000" points="40.4,-320 70.2,-320 70.2,-480 88.0279,-480 "/>
      <polygon style="fill: #000000; fill-opacity: 1; stroke-opacity: 1; stroke-width: 4; stroke: #000000" fill-rule="evenodd" points="95.5279,-480 85.5279,-475 88.0279,-480 85.5279,-485 "/>
    </g>
    <g>
      <rect style="fill: #ffffff; fill-opacity: 1; stroke-opacity: 1; stroke-width: 4; stroke: #005596" x="-177.325" y="-800" width="100.4" height="120" rx="0" ry="0"/>
      <text font-size="12.8" style="fill: #005596; fill-opacity: 1; stroke: none;text-anchor:middle;font-family:sans-serif;font-style:normal;font-weight:normal" x="-127.125" y="-744.119">
        <tspan x="-127.125" y="-744.119">Define</tspan>
        <tspan x="-127.125" y="-728.119">Parameters</tspan>
      </text>
    </g>
    <g>
      <rect style="fill: #ffffff; fill-opacity: 1; stroke-opacity: 1; stroke-width: 4; stroke: #005596" x="-300" y="-800" width="105.35" height="120" rx="0" ry="0"/>
      <text font-size="12.8" style="fill: #005596; fill-opacity: 1; stroke: none;text-anchor:middle;font-family:sans-serif;font-style:normal;font-weight:normal" x="-247.325" y="-768.119">
        <tspan x="-247.325" y="-768.119">Instantiate</tspan>
        <tspan x="-247.325" y="-752.119">and</tspan>
        <tspan x="-247.325" y="-736.119">connect</tspan>
        <tspan x="-247.325" y="-720.119">nodes</tspan>
        <tspan x="-247.325" y="-704.119"></tspan>
      </text>
    </g>
    <line style="fill: none; stroke-opacity: 1; stroke-width: 4; stroke: #005596" x1="-177.325" y1="-740" x2="-194.65" y2="-740"/>
    <line style="fill: none; stroke-opacity: 1; stroke-width: 8; stroke: #c41230" x1="-420" y1="-960" x2="160" y2="-840"/>
    <line style="fill: none; stroke-opacity: 1; stroke-width: 8; stroke: #c41230" x1="-420" y1="-840" x2="160" y2="-960"/>
    <line style="fill: none; stroke-opacity: 1; stroke-width: 8; stroke: #c41230" x1="-300" y1="-540" x2="40.4" y2="-420"/>
    <line style="fill: none; stroke-opacity: 1; stroke-width: 8; stroke: #c41230" x1="-300" y1="-420" x2="40.4" y2="-540"/>
    <text font-size="8.17315" style="fill: #005596; fill-opacity: 1; stroke: none;text-anchor:start;font-family:sans-serif;font-style:normal;font-weight:normal" x="-288" y="-691">
      <tspan x="-288" y="-691">nodes_instantiate.tcl</tspan>
    </text>
    <text font-size="8.17315" style="fill: #c41230; fill-opacity: 1; stroke: none;text-anchor:start;font-family:sans-serif;font-style:normal;font-weight:normal" x="-291.5" y="-850.214">
      <tspan x="-291.5" y="-850.214">nodes_instantiate.tcl</tspan>
    </text>
    <g>
      <rect style="fill: #ffffff; fill-opacity: 1; stroke-opacity: 1; stroke-width: 4; stroke: #005596" x="60" y="-800" width="100" height="120" rx="0" ry="0"/>
      <text font-size="12.8" style="fill: #005596; fill-opacity: 1; stroke: none;text-anchor:middle;font-family:sans-serif;font-style:normal;font-weight:normal" x="110" y="-744.119">
        <tspan x="110" y="-744.119">Create tool</tspan>
        <tspan x="110" y="-728.119">project</tspan>
      </text>
    </g>
    <text font-size="11.2889" style="fill: #005596; fill-opacity: 1; stroke: none;text-anchor:middle;font-family:sans-serif;font-style:normal;font-weight:700" x="106" y="-807.092">
      <tspan x="106" y="-807.092">NODESET_PROJECT.TCL</tspan>
    </text>
    <line style="fill: none; stroke-opacity: 1; stroke-width: 4; stroke: #005596" x1="60" y1="-740" x2="40.4" y2="-740"/>
    <line style="fill: none; stroke-opacity: 1; stroke-width: 4; stroke: #c41230" x1="60" y1="-900" x2="40.4" y2="-900"/>
    <text font-size="11.2889" style="fill: #c41230; fill-opacity: 1; stroke: none;text-anchor:middle;font-family:sans-serif;font-style:normal;font-weight:700" x="108.631" y="-967.623">
      <tspan x="108.631" y="-967.623">NODESET_PROJECT.TCL</tspan>
    </text>
  </g>
</svg>
