<?xml version="1.0" encoding="UTF-8" standalone="no"?>
<!DOCTYPE svg PUBLIC "-//W3C//DTD SVG 1.0//EN" "http://www.w3.org/TR/2001/PR-SVG-20010719/DTD/svg10.dtd">
<svg width="52cm" height="62cm" viewBox="-643 -1300 1025 1224" xmlns="http://www.w3.org/2000/svg" xmlns:xlink="http://www.w3.org/1999/xlink">
  <g id="Background">
    <rect style="fill: none; stroke-opacity: 1; stroke-width: 6; stroke: #7f7f7f" x="-520" y="-1260" width="780" height="200" rx="0" ry="0"/>
    <rect style="fill: none; stroke-opacity: 1; stroke-width: 6; stroke: #7f7f7f" x="-540" y="-420" width="740" height="340" rx="0" ry="0"/>
    <rect style="fill: none; stroke-opacity: 1; stroke-width: 6; stroke: #7f7f7f" x="-600" y="-1000" width="940" height="520" rx="0" ry="0"/>
    <text font-size="22.5778" style="fill: #7f7f7f; fill-opacity: 1; stroke: none;text-anchor:middle;font-family:sans-serif;font-style:normal;font-weight:700" x="-140" y="-1279.04">
      <tspan x="-140" y="-1279.04">$ fins -b [BACKEND] [FINS JSON FILE]</tspan>
    </text>
    <text font-size="22.5778" style="fill: #7f7f7f; fill-opacity: 1; stroke: none;text-anchor:middle;font-family:sans-serif;font-style:normal;font-weight:700" x="-140" y="-1019.04">
      <tspan x="-140" y="-1019.04">$ make</tspan>
    </text>
    <g>
      <rect style="fill: #ffffff; fill-opacity: 1; stroke-opacity: 1; stroke-width: 4; stroke: #000000" x="200" y="-960" width="100" height="120" rx="0" ry="0"/>
      <text font-size="12.8" style="fill: #000000; fill-opacity: 1; stroke: none;text-anchor:middle;font-family:sans-serif;font-style:normal;font-weight:normal" x="250" y="-936.119">
        <tspan x="250" y="-936.119">Run</tspan>
        <tspan x="250" y="-920.119">"prebuild"</tspan>
        <tspan x="250" y="-904.119">scripts with</tspan>
        <tspan x="250" y="-888.119">MATLAB,</tspan>
        <tspan x="250" y="-872.119">Octave,</tspan>
        <tspan x="250" y="-856.119">or Python</tspan>
      </text>
    </g>
    <g>
      <rect style="fill: #ffffff; fill-opacity: 1; stroke-opacity: 1; stroke-width: 4; stroke: #c41230" x="60" y="-960" width="100.4" height="120" rx="0" ry="0"/>
      <text font-size="12.8" style="fill: #c41230; fill-opacity: 1; stroke: none;text-anchor:middle;font-family:sans-serif;font-style:normal;font-weight:normal" x="110.2" y="-912.119">
        <tspan x="110.2" y="-912.119">Run TCL</tspan>
        <tspan x="110.2" y="-896.119">"prebuild"</tspan>
        <tspan x="110.2" y="-880.119">scripts</tspan>
      </text>
    </g>
    <g>
      <rect style="fill: #ffffff; fill-opacity: 1; stroke-opacity: 1; stroke-width: 4; stroke: #c41230" x="-60" y="-960" width="100.4" height="120" rx="0" ry="0"/>
      <text font-size="12.8" style="fill: #c41230; fill-opacity: 1; stroke: none;text-anchor:middle;font-family:sans-serif;font-style:normal;font-weight:normal" x="-9.8" y="-904.119">
        <tspan x="-9.8" y="-904.119">Define</tspan>
        <tspan x="-9.8" y="-888.119">Parameters</tspan>
      </text>
    </g>
    <g>
      <rect style="fill: #ffffff; fill-opacity: 1; stroke-opacity: 1; stroke-width: 4; stroke: #c41230" x="-420" y="-960" width="100.4" height="120" rx="0" ry="0"/>
      <text font-size="12.8" style="fill: #c41230; fill-opacity: 1; stroke: none;text-anchor:middle;font-family:sans-serif;font-style:normal;font-weight:normal" x="-369.8" y="-912.119">
        <tspan x="-369.8" y="-912.119">Run TCL</tspan>
        <tspan x="-369.8" y="-896.119">"postbuild"</tspan>
        <tspan x="-369.8" y="-880.119">scripts</tspan>
      </text>
    </g>
    <g>
      <rect style="fill: #ffffff; fill-opacity: 1; stroke-opacity: 1; stroke-width: 4; stroke: #c41230" x="-180" y="-960" width="100" height="120" rx="0" ry="0"/>
      <text font-size="12.8" style="fill: #c41230; fill-opacity: 1; stroke: none;text-anchor:middle;font-family:sans-serif;font-style:normal;font-weight:normal" x="-130" y="-920.119">
        <tspan x="-130" y="-920.119">Create</tspan>
        <tspan x="-130" y="-904.119">Project and</tspan>
        <tspan x="-130" y="-888.119">Instance</tspan>
        <tspan x="-130" y="-872.119">of IP</tspan>
      </text>
    </g>
    <g>
      <rect style="fill: #ffffff; fill-opacity: 1; stroke-opacity: 1; stroke-width: 4; stroke: #000000" x="-560" y="-960" width="100" height="120" rx="0" ry="0"/>
      <text font-size="12.8" style="fill: #000000; fill-opacity: 1; stroke: none;text-anchor:middle;font-family:sans-serif;font-style:normal;font-weight:normal" x="-510" y="-936.119">
        <tspan x="-510" y="-936.119">Run</tspan>
        <tspan x="-510" y="-920.119">"postbuild"</tspan>
        <tspan x="-510" y="-904.119">scripts with</tspan>
        <tspan x="-510" y="-888.119">MATLAB,</tspan>
        <tspan x="-510" y="-872.119">Octave,</tspan>
        <tspan x="-510" y="-856.119">or Python</tspan>
      </text>
    </g>
    <g>
      <rect style="fill: #ffffff; fill-opacity: 1; stroke-opacity: 1; stroke-width: 4; stroke: #000000" x="-500" y="-380" width="100" height="120" rx="0" ry="0"/>
      <text font-size="12.8" style="fill: #000000; fill-opacity: 1; stroke: none;text-anchor:middle;font-family:sans-serif;font-style:normal;font-weight:normal" x="-450" y="-356.119">
        <tspan x="-450" y="-356.119">Run</tspan>
        <tspan x="-450" y="-340.119">"presim"</tspan>
        <tspan x="-450" y="-324.119">scripts with</tspan>
        <tspan x="-450" y="-308.119">MATLAB,</tspan>
        <tspan x="-450" y="-292.119">Octave,</tspan>
        <tspan x="-450" y="-276.119">or Python</tspan>
      </text>
    </g>
    <g>
      <rect style="fill: #ffffff; fill-opacity: 1; stroke-opacity: 1; stroke-width: 4; stroke: #000000" x="60" y="-380" width="100" height="120" rx="0" ry="0"/>
      <text font-size="12.8" style="fill: #000000; fill-opacity: 1; stroke: none;text-anchor:middle;font-family:sans-serif;font-style:normal;font-weight:normal" x="110" y="-356.119">
        <tspan x="110" y="-356.119">Run</tspan>
        <tspan x="110" y="-340.119">"postsim"</tspan>
        <tspan x="110" y="-324.119">scripts with</tspan>
        <tspan x="110" y="-308.119">MATLAB,</tspan>
        <tspan x="110" y="-292.119">Octave,</tspan>
        <tspan x="110" y="-276.119">or Python</tspan>
      </text>
    </g>
    <g>
      <rect style="fill: #ffffff; fill-opacity: 1; stroke-opacity: 1; stroke-width: 4; stroke: #c41230" x="-340" y="-380" width="100.4" height="120" rx="0" ry="0"/>
      <text font-size="12.8" style="fill: #c41230; fill-opacity: 1; stroke: none;text-anchor:middle;font-family:sans-serif;font-style:normal;font-weight:normal" x="-289.8" y="-332.119">
        <tspan x="-289.8" y="-332.119">Run TCL</tspan>
        <tspan x="-289.8" y="-316.119">"presim"</tspan>
        <tspan x="-289.8" y="-300.119">scripts</tspan>
      </text>
    </g>
    <g>
      <rect style="fill: #ffffff; fill-opacity: 1; stroke-opacity: 1; stroke-width: 4; stroke: #c41230" x="-220" y="-380" width="100.4" height="120" rx="0" ry="0"/>
      <text font-size="12.8" style="fill: #c41230; fill-opacity: 1; stroke: none;text-anchor:middle;font-family:sans-serif;font-style:normal;font-weight:normal" x="-169.8" y="-324.119">
        <tspan x="-169.8" y="-324.119">Run</tspan>
        <tspan x="-169.8" y="-308.119">Simulation</tspan>
      </text>
    </g>
    <g>
      <rect style="fill: #ffffff; fill-opacity: 1; stroke-opacity: 1; stroke-width: 4; stroke: #c41230" x="-100" y="-380" width="100.4" height="120" rx="0" ry="0"/>
      <text font-size="12.8" style="fill: #c41230; fill-opacity: 1; stroke: none;text-anchor:middle;font-family:sans-serif;font-style:normal;font-weight:normal" x="-49.8" y="-332.119">
        <tspan x="-49.8" y="-332.119">Run TCL</tspan>
        <tspan x="-49.8" y="-316.119">"postsim"</tspan>
        <tspan x="-49.8" y="-300.119">scripts</tspan>
      </text>
    </g>
    <g>
      <rect style="fill: #ffffff; fill-opacity: 1; stroke-opacity: 1; stroke-width: 4; stroke: #000000" x="-120" y="-1220" width="100.4" height="120" rx="0" ry="0"/>
      <text font-size="12.8" style="fill: #000000; fill-opacity: 1; stroke: none;text-anchor:middle;font-family:sans-serif;font-style:normal;font-weight:normal" x="-69.8" y="-1188.12">
        <tspan x="-69.8" y="-1188.12">Generate</tspan>
        <tspan x="-69.8" y="-1172.12">"core"</tspan>
        <tspan x="-69.8" y="-1156.12">backend</tspan>
        <tspan x="-69.8" y="-1140.12">templates</tspan>
        <tspan x="-69.8" y="-1124.12">with Jinja2</tspan>
      </text>
    </g>
    <g>
      <rect style="fill: #ffffff; fill-opacity: 1; stroke-opacity: 1; stroke-width: 4; stroke: #000000" x="0" y="-1220" width="100.4" height="120" rx="0" ry="0"/>
      <text font-size="12.8" style="fill: #000000; fill-opacity: 1; stroke: none;text-anchor:middle;font-family:sans-serif;font-style:normal;font-weight:normal" x="50.2" y="-1196.12">
        <tspan x="50.2" y="-1196.12">Generate</tspan>
        <tspan x="50.2" y="-1180.12">"vivado" or</tspan>
        <tspan x="50.2" y="-1164.12">"quartus"</tspan>
        <tspan x="50.2" y="-1148.12">backend</tspan>
        <tspan x="50.2" y="-1132.12">templates</tspan>
        <tspan x="50.2" y="-1116.12">with Jinja2</tspan>
      </text>
    </g>
    <g>
      <rect style="fill: #ffffff; fill-opacity: 1; stroke-opacity: 1; stroke-width: 4; stroke: #000000" x="120" y="-1220" width="100.4" height="120" rx="0" ry="0"/>
      <text font-size="12.8" style="fill: #000000; fill-opacity: 1; stroke: none;text-anchor:middle;font-family:sans-serif;font-style:normal;font-weight:normal" x="170.2" y="-1196.12">
        <tspan x="170.2" y="-1196.12">Recursively</tspan>
        <tspan x="170.2" y="-1180.12">generate</tspan>
        <tspan x="170.2" y="-1164.12">the same</tspan>
        <tspan x="170.2" y="-1148.12">backends</tspan>
        <tspan x="170.2" y="-1132.12">for each</tspan>
        <tspan x="170.2" y="-1116.12">Sub-IP</tspan>
      </text>
    </g>
    <text font-size="16.9333" style="fill: #c41230; fill-opacity: 1; stroke: none;text-anchor:middle;font-family:sans-serif;font-style:normal;font-weight:700" x="-130" y="-974.138">
      <tspan x="-130" y="-974.138">VIVADO IP_CREATE.TCL</tspan>
    </text>
    <text font-size="22.5778" style="fill: #7f7f7f; fill-opacity: 1; stroke: none;text-anchor:middle;font-family:sans-serif;font-style:normal;font-weight:700" x="-160" y="-439.043">
      <tspan x="-160" y="-439.043">$ make sim</tspan>
    </text>
    <g>
      <polyline style="fill: none; stroke-opacity: 1; stroke-width: 4; stroke: #000000" points="220.4,-1160 380,-1160 380,-900 311.972,-900 "/>
      <polygon style="fill: #000000; fill-opacity: 1; stroke-opacity: 1; stroke-width: 4; stroke: #000000" fill-rule="evenodd" points="304.472,-900 314.472,-905 311.972,-900 314.472,-895 "/>
    </g>
    <g>
      <polyline style="fill: none; stroke-opacity: 1; stroke-width: 4; stroke: #000000" points="-560,-900 -640,-900 -640,-320 -511.972,-320 "/>
      <polygon style="fill: #000000; fill-opacity: 1; stroke-opacity: 1; stroke-width: 4; stroke: #000000" fill-rule="evenodd" points="-504.472,-320 -514.472,-315 -511.972,-320 -514.472,-325 "/>
    </g>
    <line style="fill: none; stroke-opacity: 1; stroke-width: 4; stroke: #000000" x1="-17.6545" y1="-1160" x2="0" y2="-1160"/>
    <line style="fill: none; stroke-opacity: 1; stroke-width: 4; stroke: #000000" x1="100.4" y1="-1160" x2="120" y2="-1160"/>
    <line style="fill: none; stroke-opacity: 1; stroke-width: 4; stroke: #000000" x1="200" y1="-900" x2="162.39" y2="-900"/>
    <line style="fill: none; stroke-opacity: 1; stroke-width: 4; stroke: #c41230" x1="60" y1="-900" x2="40.4" y2="-900"/>
    <line style="fill: none; stroke-opacity: 1; stroke-width: 4; stroke: #c41230" x1="-60" y1="-900" x2="-80" y2="-900"/>
    <line style="fill: none; stroke-opacity: 1; stroke-width: 4; stroke: #c41230" x1="-180" y1="-900" x2="-199.6" y2="-900"/>
    <line style="fill: none; stroke-opacity: 1; stroke-width: 4; stroke: #000000" x1="-420" y1="-900" x2="-460" y2="-900"/>
    <line style="fill: none; stroke-opacity: 1; stroke-width: 4; stroke: #c41230" x1="-239.6" y1="-320" x2="-220" y2="-320"/>
    <line style="fill: none; stroke-opacity: 1; stroke-width: 4; stroke: #c41230" x1="-119.6" y1="-320" x2="-100" y2="-320"/>
    <g>
      <line style="fill: none; stroke-opacity: 1; stroke-width: 4; stroke: #000000" x1="-400" y1="-320" x2="-351.972" y2="-320"/>
      <polygon style="fill: #000000; fill-opacity: 1; stroke-opacity: 1; stroke-width: 4; stroke: #000000" fill-rule="evenodd" points="-344.472,-320 -354.472,-315 -351.972,-320 -354.472,-325 "/>
    </g>
    <g>
      <line style="fill: none; stroke-opacity: 1; stroke-width: 4; stroke: #000000" x1="0.4" y1="-320" x2="48.0279" y2="-320"/>
      <polygon style="fill: #000000; fill-opacity: 1; stroke-opacity: 1; stroke-width: 4; stroke: #000000" fill-rule="evenodd" points="55.5279,-320 45.5279,-315 48.0279,-320 45.5279,-325 "/>
    </g>
    <text font-size="16.9333" style="fill: #c41230; fill-opacity: 1; stroke: none;text-anchor:middle;font-family:sans-serif;font-style:normal;font-weight:700" x="-160" y="-394.138">
      <tspan x="-160" y="-394.138">VIVADO IP_SIMULATE.TCL</tspan>
    </text>
    <g>
      <rect style="fill: #ffffff; fill-opacity: 1; stroke-opacity: 1; stroke-width: 4; stroke: #000000" x="-480" y="-1220" width="100.4" height="120" rx="0" ry="0"/>
      <text font-size="12.8" style="fill: #000000; fill-opacity: 1; stroke: none;text-anchor:middle;font-family:sans-serif;font-style:normal;font-weight:normal" x="-429.8" y="-1172.12">
        <tspan x="-429.8" y="-1172.12">Load the</tspan>
        <tspan x="-429.8" y="-1156.12">FINS JSON</tspan>
        <tspan x="-429.8" y="-1140.12">file</tspan>
      </text>
    </g>
    <g>
      <rect style="fill: #ffffff; fill-opacity: 1; stroke-opacity: 1; stroke-width: 4; stroke: #000000" x="-360" y="-1220" width="100.4" height="120" rx="0" ry="0"/>
      <text font-size="12.8" style="fill: #000000; fill-opacity: 1; stroke: none;text-anchor:middle;font-family:sans-serif;font-style:normal;font-weight:normal" x="-309.8" y="-1188.12">
        <tspan x="-309.8" y="-1188.12">If it exists,</tspan>
        <tspan x="-309.8" y="-1172.12">load and</tspan>
        <tspan x="-309.8" y="-1156.12">apply the</tspan>
        <tspan x="-309.8" y="-1140.12">.override</tspan>
        <tspan x="-309.8" y="-1124.12">JSON file</tspan>
      </text>
    </g>
    <g>
      <rect style="fill: #ffffff; fill-opacity: 1; stroke-opacity: 1; stroke-width: 4; stroke: #000000" x="-240.025" y="-1220" width="101.4" height="120" rx="0" ry="0"/>
      <text font-size="12.8" style="fill: #000000; fill-opacity: 1; stroke: none;text-anchor:middle;font-family:sans-serif;font-style:normal;font-weight:normal" x="-189.325" y="-1172.12">
        <tspan x="-189.325" y="-1172.12">Validate</tspan>
        <tspan x="-189.325" y="-1156.12">and process</tspan>
        <tspan x="-189.325" y="-1140.12">FINS data</tspan>
      </text>
    </g>
    <line style="fill: none; stroke-opacity: 1; stroke-width: 4; stroke: #000000" x1="-138.65" y1="-1160" x2="-120" y2="-1160"/>
    <line style="fill: none; stroke-opacity: 1; stroke-width: 4; stroke: #000000" x1="-259.6" y1="-1160" x2="-240" y2="-1160"/>
    <line style="fill: none; stroke-opacity: 1; stroke-width: 4; stroke: #000000" x1="-379.6" y1="-1160" x2="-360" y2="-1160"/>
    <text font-size="16.9333" style="fill: #005596; fill-opacity: 1; stroke: none;text-anchor:middle;font-family:sans-serif;font-style:normal;font-weight:700" x="-200" y="-814.138">
      <tspan x="-200" y="-814.138">QUARTUS IP_CREATE.TCL</tspan>
    </text>
    <g>
      <rect style="fill: #ffffff; fill-opacity: 1; stroke-opacity: 1; stroke-width: 4; stroke: #c41230" x="-300" y="-960" width="100.4" height="120" rx="0" ry="0"/>
      <text font-size="12.8" style="fill: #c41230; fill-opacity: 1; stroke: none;text-anchor:middle;font-family:sans-serif;font-style:normal;font-weight:normal" x="-249.8" y="-928.119">
        <tspan x="-249.8" y="-928.119">Create</tspan>
        <tspan x="-249.8" y="-912.119">Sub-IP</tspan>
        <tspan x="-249.8" y="-896.119">and Run</tspan>
        <tspan x="-249.8" y="-880.119">"vendor_ip"</tspan>
        <tspan x="-249.8" y="-864.119">scripts</tspan>
      </text>
    </g>
    <line style="fill: none; stroke-opacity: 1; stroke-width: 4; stroke: #c41230" x1="-300" y1="-900" x2="-319.6" y2="-900"/>
    <g>
      <rect style="fill: #ffffff; fill-opacity: 1; stroke-opacity: 1; stroke-width: 4; stroke: #005596" x="-60" y="-620" width="100.4" height="120" rx="0" ry="0"/>
      <text font-size="12.8" style="fill: #005596; fill-opacity: 1; stroke: none;text-anchor:middle;font-family:sans-serif;font-style:normal;font-weight:normal" x="-9.8" y="-564.119">
        <tspan x="-9.8" y="-564.119">Define</tspan>
        <tspan x="-9.8" y="-548.119">Parameters</tspan>
      </text>
    </g>
    <g>
      <rect style="fill: #ffffff; fill-opacity: 1; stroke-opacity: 1; stroke-width: 4; stroke: #005596" x="-300" y="-620" width="100.4" height="120" rx="0" ry="0"/>
      <text font-size="12.8" style="fill: #005596; fill-opacity: 1; stroke: none;text-anchor:middle;font-family:sans-serif;font-style:normal;font-weight:normal" x="-249.8" y="-588.119">
        <tspan x="-249.8" y="-588.119">Define</tspan>
        <tspan x="-249.8" y="-572.119">Elaboration</tspan>
        <tspan x="-249.8" y="-556.119">Callback</tspan>
        <tspan x="-249.8" y="-540.119">for Sub-IP</tspan>
        <tspan x="-249.8" y="-524.119">Creation</tspan>
      </text>
    </g>
    <g>
      <rect style="fill: #ffffff; fill-opacity: 1; stroke-opacity: 1; stroke-width: 4; stroke: #005596" x="-180" y="-620" width="100.4" height="120" rx="0" ry="0"/>
      <text font-size="12.8" style="fill: #005596; fill-opacity: 1; stroke: none;text-anchor:middle;font-family:sans-serif;font-style:normal;font-weight:normal" x="-129.8" y="-564.119">
        <tspan x="-129.8" y="-564.119">Define</tspan>
        <tspan x="-129.8" y="-548.119">Interfaces</tspan>
      </text>
    </g>
    <line style="fill: none; stroke-opacity: 1; stroke-width: 4; stroke: #005596" x1="-180" y1="-560" x2="-199.6" y2="-560"/>
    <line style="fill: none; stroke-opacity: 1; stroke-width: 4; stroke: #005596" x1="-60" y1="-560" x2="-79.6" y2="-560"/>
    <g>
      <rect style="fill: #ffffff; fill-opacity: 1; stroke-opacity: 1; stroke-width: 4; stroke: #005596" x="-180" y="-800" width="100.4" height="120" rx="0" ry="0"/>
      <text font-size="12.8" style="fill: #005596; fill-opacity: 1; stroke: none;text-anchor:middle;font-family:sans-serif;font-style:normal;font-weight:normal" x="-129.8" y="-760.119">
        <tspan x="-129.8" y="-760.119">Create</tspan>
        <tspan x="-129.8" y="-744.119">Project and</tspan>
        <tspan x="-129.8" y="-728.119">Instance</tspan>
        <tspan x="-129.8" y="-712.119">of IP</tspan>
      </text>
    </g>
    <g>
      <rect style="fill: #ffffff; fill-opacity: 1; stroke-opacity: 1; stroke-width: 4; stroke: #005596" x="-300" y="-800" width="100.4" height="120" rx="0" ry="0"/>
      <text font-size="12.8016" style="fill: #005596; fill-opacity: 1; stroke: none;text-anchor:middle;font-family:sans-serif;font-style:normal;font-weight:normal" x="-249.8" y="-752.12">
        <tspan x="-249.8" y="-752.12">Run TCL</tspan>
        <tspan x="-249.8" y="-736.118">"postbuild"</tspan>
        <tspan x="-249.8" y="-720.116">scripts</tspan>
      </text>
    </g>
    <line style="fill: none; stroke-opacity: 1; stroke-width: 4; stroke: #005596" x1="-180" y1="-740" x2="-199.6" y2="-740"/>
    <line style="fill: none; stroke-opacity: 1; stroke-width: 4; stroke: #005596" x1="-60" y1="-740" x2="-79.6" y2="-740"/>
    <text font-size="16.9333" style="fill: #005596; fill-opacity: 1; stroke: none;text-anchor:middle;font-family:sans-serif;font-style:normal;font-weight:700" x="-130" y="-634.138">
      <tspan x="-130" y="-634.138">QUARTUS IP_HW.TCL</tspan>
    </text>
    <g>
      <polyline style="fill: none; stroke-opacity: 1; stroke-width: 4; stroke: #000000" points="200,-900 180,-900 180,-740 171.972,-740 "/>
      <polygon style="fill: #000000; fill-opacity: 1; stroke-opacity: 1; stroke-width: 4; stroke: #000000" fill-rule="evenodd" points="164.472,-740 174.472,-745 171.972,-740 174.472,-735 "/>
    </g>
    <g>
      <polyline style="fill: none; stroke-opacity: 1; stroke-width: 4; stroke: #000000" points="-300,-740 -440,-740 -440,-900 -448.028,-900 "/>
      <polygon style="fill: #000000; fill-opacity: 1; stroke-opacity: 1; stroke-width: 4; stroke: #000000" fill-rule="evenodd" points="-455.528,-900 -445.528,-905 -448.028,-900 -445.528,-895 "/>
    </g>
    <g>
      <polyline style="fill: none; stroke-opacity: 1; stroke-width: 4; stroke: #005596" points="-104.7,-680 -104.7,-660 80,-660 80,-560 52.3721,-560 "/>
      <polygon style="fill: #005596; fill-opacity: 1; stroke-opacity: 1; stroke-width: 4; stroke: #005596" fill-rule="evenodd" points="44.8721,-560 54.8721,-565 52.3721,-560 54.8721,-555 "/>
    </g>
    <g>
      <polyline style="fill: none; stroke-opacity: 1; stroke-width: 4; stroke: #005596" points="-154.9,-668.028 -154.9,-660 -340,-660 -340,-560 -300,-560 "/>
      <polygon style="fill: #005596; fill-opacity: 1; stroke-opacity: 1; stroke-width: 4; stroke: #005596" fill-rule="evenodd" points="-154.9,-675.528 -149.9,-665.528 -154.9,-668.028 -159.9,-665.528 "/>
    </g>
    <g>
      <rect style="fill: #ffffff; fill-opacity: 1; stroke-opacity: 1; stroke-width: 4; stroke: #005596" x="-340" y="-220" width="100.4" height="120" rx="0" ry="0"/>
      <text font-size="12.8" style="fill: #005596; fill-opacity: 1; stroke: none;text-anchor:middle;font-family:sans-serif;font-style:normal;font-weight:normal" x="-289.8" y="-172.119">
        <tspan x="-289.8" y="-172.119">Run TCL</tspan>
        <tspan x="-289.8" y="-156.119">"presim"</tspan>
        <tspan x="-289.8" y="-140.119">scripts</tspan>
      </text>
    </g>
    <g>
      <rect style="fill: #ffffff; fill-opacity: 1; stroke-opacity: 1; stroke-width: 4; stroke: #005596" x="-220" y="-220" width="100.4" height="120" rx="0" ry="0"/>
      <text font-size="12.8" style="fill: #005596; fill-opacity: 1; stroke: none;text-anchor:middle;font-family:sans-serif;font-style:normal;font-weight:normal" x="-169.8" y="-164.119">
        <tspan x="-169.8" y="-164.119">Run</tspan>
        <tspan x="-169.8" y="-148.119">Simulation</tspan>
      </text>
    </g>
    <g>
      <rect style="fill: #ffffff; fill-opacity: 1; stroke-opacity: 1; stroke-width: 4; stroke: #005596" x="-100" y="-220" width="100.4" height="120" rx="0" ry="0"/>
      <text font-size="12.8" style="fill: #005596; fill-opacity: 1; stroke: none;text-anchor:middle;font-family:sans-serif;font-style:normal;font-weight:normal" x="-49.8" y="-172.119">
        <tspan x="-49.8" y="-172.119">Run TCL</tspan>
        <tspan x="-49.8" y="-156.119">"postsim"</tspan>
        <tspan x="-49.8" y="-140.119">scripts</tspan>
      </text>
    </g>
    <text font-size="16.9333" style="fill: #005596; fill-opacity: 1; stroke: none;text-anchor:middle;font-family:sans-serif;font-style:normal;font-weight:700" x="-160" y="-234.138">
      <tspan x="-160" y="-234.138">QUARTUS IP_SIMULATE.TCL</tspan>
    </text>
    <line style="fill: none; stroke-opacity: 1; stroke-width: 4; stroke: #005596" x1="-239.6" y1="-160" x2="-220" y2="-160"/>
    <line style="fill: none; stroke-opacity: 1; stroke-width: 4; stroke: #005596" x1="-119.6" y1="-160" x2="-100" y2="-160"/>
    <g>
      <polyline style="fill: none; stroke-opacity: 1; stroke-width: 4; stroke: #000000" points="-400,-320 -370,-320 -370,-160 -351.972,-160 "/>
      <polygon style="fill: #000000; fill-opacity: 1; stroke-opacity: 1; stroke-width: 4; stroke: #000000" fill-rule="evenodd" points="-344.472,-160 -354.472,-155 -351.972,-160 -354.472,-165 "/>
    </g>
    <g>
      <polyline style="fill: none; stroke-opacity: 1; stroke-width: 4; stroke: #000000" points="0.4,-160 30.2,-160 30.2,-320 48.0279,-320 "/>
      <polygon style="fill: #000000; fill-opacity: 1; stroke-opacity: 1; stroke-width: 4; stroke: #000000" fill-rule="evenodd" points="55.5279,-320 45.5279,-315 48.0279,-320 45.5279,-325 "/>
    </g>
    <text font-size="11.2889" style="fill: #005596; fill-opacity: 1; stroke: none;text-anchor:middle;font-family:sans-serif;font-style:normal;font-weight:700" x="-10" y="-811.092">
      <tspan x="-10" y="-811.092">IP_PROJECT.TCL</tspan>
    </text>
    <line style="fill: none; stroke-opacity: 1; stroke-width: 4; stroke: #005596" x1="60" y1="-740" x2="40.4" y2="-740"/>
    <g>
      <rect style="fill: #ffffff; fill-opacity: 1; stroke-opacity: 1; stroke-width: 4; stroke: #005596" x="60" y="-800" width="100.4" height="120" rx="0" ry="0"/>
      <text font-size="12.8" style="fill: #005596; fill-opacity: 1; stroke: none;text-anchor:middle;font-family:sans-serif;font-style:normal;font-weight:normal" x="110.2" y="-752.119">
        <tspan x="110.2" y="-752.119">Run TCL</tspan>
        <tspan x="110.2" y="-736.119">"prebuild"</tspan>
        <tspan x="110.2" y="-720.119">scripts</tspan>
      </text>
    </g>
    <g>
      <rect style="fill: #ffffff; fill-opacity: 1; stroke-opacity: 1; stroke-width: 4; stroke: #005596" x="-60" y="-800" width="100" height="120" rx="0" ry="0"/>
      <text font-size="12.8" style="fill: #005596; fill-opacity: 1; stroke: none;text-anchor:middle;font-family:sans-serif;font-style:normal;font-weight:normal" x="-10" y="-744.119">
        <tspan x="-10" y="-744.119">Create tool</tspan>
        <tspan x="-10" y="-728.119">project</tspan>
      </text>
    </g>
  </g>
</svg>
