<?xml version="1.0" encoding="UTF-8" standalone="no"?>
<!DOCTYPE svg PUBLIC "-//W3C//DTD SVG 1.0//EN" "http://www.w3.org/TR/2001/PR-SVG-20010719/DTD/svg10.dtd">
<svg width="69cm" height="64cm" viewBox="-683 -222 1364 1263" xmlns="http://www.w3.org/2000/svg" xmlns:xlink="http://www.w3.org/1999/xlink">
  <g>
    <rect style="fill: none; fill-opacity:0; stroke-width: 4; stroke: #000000" x="-680" y="-180" width="240" height="300"/>
    <text font-size="11.2889" style="fill: #000000;text-anchor:start;font-family:sans-serif;font-style:normal;font-weight:700" x="-672" y="-26.5556">
      <tspan x="-672" y="-26.5556"></tspan>
    </text>
  </g>
  <g>
    <rect style="fill: none; fill-opacity:0; stroke-width: 2; stroke-dasharray: 4; stroke: #0000ff" x="120" y="80" width="200" height="280"/>
    <text font-size="11.2889" style="fill: #0000ff;text-anchor:start;font-family:sans-serif;font-style:normal;font-weight:700" x="129" y="103.5">
      <tspan x="129" y="103.5">"all"</tspan>
      <tspan x="129" y="117.611"></tspan>
      <tspan x="129" y="131.722"></tspan>
      <tspan x="129" y="145.833"></tspan>
      <tspan x="129" y="159.944"></tspan>
      <tspan x="129" y="174.056"></tspan>
      <tspan x="129" y="188.167"></tspan>
      <tspan x="129" y="202.278"></tspan>
      <tspan x="129" y="216.389"></tspan>
      <tspan x="129" y="230.5"></tspan>
      <tspan x="129" y="244.611"></tspan>
      <tspan x="129" y="258.722"></tspan>
      <tspan x="129" y="272.833"></tspan>
      <tspan x="129" y="286.944"></tspan>
      <tspan x="129" y="301.056"></tspan>
      <tspan x="129" y="315.167"></tspan>
      <tspan x="129" y="329.278"></tspan>
      <tspan x="129" y="343.389"></tspan>
    </text>
  </g>
  <g>
    <rect style="fill: none; fill-opacity:0; stroke-width: 2; stroke-dasharray: 4; stroke: #0000ff" x="120" y="400" width="200" height="520"/>
    <text font-size="11.2889" style="fill: #0000ff;text-anchor:start;font-family:sans-serif;font-style:normal;font-weight:700" x="129" y="423.556">
      <tspan x="129" y="423.556">"sim"</tspan>
      <tspan x="129" y="437.667"></tspan>
      <tspan x="129" y="451.778"></tspan>
      <tspan x="129" y="465.889"></tspan>
      <tspan x="129" y="480"></tspan>
      <tspan x="129" y="494.111"></tspan>
      <tspan x="129" y="508.222"></tspan>
      <tspan x="129" y="522.333"></tspan>
      <tspan x="129" y="536.444"></tspan>
      <tspan x="129" y="550.556"></tspan>
      <tspan x="129" y="564.667"></tspan>
      <tspan x="129" y="578.778"></tspan>
      <tspan x="129" y="592.889"></tspan>
      <tspan x="129" y="607"></tspan>
      <tspan x="129" y="621.111"></tspan>
      <tspan x="129" y="635.222"></tspan>
      <tspan x="129" y="649.333"></tspan>
      <tspan x="129" y="663.444"></tspan>
      <tspan x="129" y="677.556"></tspan>
      <tspan x="129" y="691.667"></tspan>
      <tspan x="129" y="705.778"></tspan>
      <tspan x="129" y="719.889"></tspan>
      <tspan x="129" y="734"></tspan>
      <tspan x="129" y="748.111"></tspan>
      <tspan x="129" y="762.222"></tspan>
      <tspan x="129" y="776.333"></tspan>
      <tspan x="129" y="790.444"></tspan>
      <tspan x="129" y="804.556"></tspan>
      <tspan x="129" y="818.667"></tspan>
      <tspan x="129" y="832.778"></tspan>
      <tspan x="129" y="846.889"></tspan>
      <tspan x="129" y="861"></tspan>
      <tspan x="129" y="875.111"></tspan>
      <tspan x="129" y="889.222"></tspan>
      <tspan x="129" y="903.333"></tspan>
    </text>
  </g>
  <g>
    <rect style="fill: none; fill-opacity:0; stroke-width: 2; stroke-dasharray: 4; stroke: #0000ff" x="120" y="-160" width="200" height="200"/>
    <text font-size="11.2889" style="fill: #0000ff;text-anchor:start;font-family:sans-serif;font-style:normal;font-weight:700" x="129" y="-134.167">
      <tspan x="129" y="-134.167">"fins"</tspan>
      <tspan x="129" y="-120.056"></tspan>
      <tspan x="129" y="-105.944"></tspan>
      <tspan x="129" y="-91.8333"></tspan>
      <tspan x="129" y="-77.7222"></tspan>
      <tspan x="129" y="-63.6111"></tspan>
      <tspan x="129" y="-49.5"></tspan>
      <tspan x="129" y="-35.3889"></tspan>
      <tspan x="129" y="-21.2778"></tspan>
      <tspan x="129" y="-7.16667"></tspan>
      <tspan x="129" y="6.94444"></tspan>
      <tspan x="129" y="21.0556"></tspan>
    </text>
  </g>
  <g>
    <rect style="fill: #ffffff" x="-60" y="-140" width="160" height="40"/>
    <rect style="fill: none; fill-opacity:0; stroke-width: 2; stroke: #000000" x="-60" y="-140" width="160" height="40"/>
    <text font-size="11.2889" style="fill: #000000;text-anchor:middle;font-family:sans-serif;font-style:normal;font-weight:normal" x="20" y="-116.556">
      <tspan x="20" y="-116.556">fins.json</tspan>
    </text>
  </g>
  <g>
    <rect style="fill: #ffffff" x="180" y="100" width="120" height="240"/>
    <rect style="fill: none; fill-opacity:0; stroke-width: 2; stroke: #0000ff" x="180" y="100" width="120" height="240"/>
    <text font-size="11.2889" style="fill: #0000ff;text-anchor:middle;font-family:sans-serif;font-style:normal;font-weight:normal" x="240" y="223.444">
      <tspan x="240" y="223.444">ip_create.tcl</tspan>
    </text>
  </g>
  <g>
    <rect style="fill: #ffffff" x="-60" y="140" width="160" height="40"/>
    <rect style="fill: none; fill-opacity:0; stroke-width: 2; stroke: #000000" x="-60" y="140" width="160" height="40"/>
    <text font-size="11.2889" style="fill: #000000;text-anchor:middle;font-family:sans-serif;font-style:normal;font-weight:normal" x="20" y="163.444">
      <tspan x="20" y="163.444">ip_import.tcl</tspan>
    </text>
  </g>
  <g>
    <rect style="fill: #ffffff" x="440" y="-60" width="240" height="80"/>
    <rect style="fill: none; fill-opacity:0; stroke-width: 2; stroke: #008000" x="440" y="-60" width="240" height="80"/>
    <text font-size="11.2889" style="fill: #008000;text-anchor:middle;font-family:sans-serif;font-style:normal;font-weight:normal" x="560" y="-23.6111">
      <tspan x="560" y="-23.6111">ip_params.tcl</tspan>
      <tspan x="560" y="-9.5">ip.mk</tspan>
    </text>
  </g>
  <g>
    <rect style="fill: #ffffff" x="440" y="180" width="240" height="80"/>
    <rect style="fill: none; fill-opacity:0; stroke-width: 2; stroke: #008000" x="440" y="180" width="240" height="80"/>
    <text font-size="11.2889" style="fill: #008000;text-anchor:middle;font-family:sans-serif;font-style:normal;font-weight:normal" x="560" y="216.389">
      <tspan x="560" y="216.389">[name]_params.vhd</tspan>
      <tspan x="560" y="230.5">ip_params.m</tspan>
    </text>
  </g>
  <g>
    <rect style="fill: #ffffff" x="-60" y="220" width="160" height="120"/>
    <rect style="fill: none; fill-opacity:0; stroke-width: 2; stroke: #000000" x="-60" y="220" width="160" height="120"/>
    <text font-size="11.2889" style="fill: #000000;text-anchor:middle;font-family:sans-serif;font-style:normal;font-weight:normal" x="20" y="276.389">
      <tspan x="20" y="276.389">Top-level HDL</tspan>
      <tspan x="20" y="290.5">[name].vhd</tspan>
    </text>
  </g>
  <g>
    <rect style="fill: #f3f3f3" x="-500" y="180" width="160" height="40"/>
    <rect style="fill: none; fill-opacity:0; stroke-width: 2; stroke-dasharray: 4; stroke: #000000" x="-500" y="180" width="160" height="40"/>
    <text font-size="11.2889" style="fill: #000000;text-anchor:middle;font-family:sans-serif;font-style:normal;font-weight:normal" x="-420" y="203.444">
      <tspan x="-420" y="203.444">User Sub-IP</tspan>
    </text>
  </g>
  <g>
    <rect style="fill: #ffffff" x="-660" y="-160" width="40" height="20"/>
    <rect style="fill: none; fill-opacity:0; stroke-width: 2; stroke: #000000" x="-660" y="-160" width="40" height="20"/>
  </g>
  <text font-size="11.2889" style="fill: #000000;text-anchor:start;font-family:sans-serif;font-style:normal;font-weight:700" x="-600" y="-142.65">
    <tspan x="-600" y="-142.65">User-developed Code</tspan>
  </text>
  <g>
    <rect style="fill: #ffffff" x="-660" y="0" width="40" height="20"/>
    <rect style="fill: none; fill-opacity:0; stroke-width: 2; stroke: #0000ff" x="-660" y="0" width="40" height="20"/>
  </g>
  <text font-size="11.2889" style="fill: #000000;text-anchor:start;font-family:sans-serif;font-style:normal;font-weight:700" x="-600" y="-62.65">
    <tspan x="-600" y="-62.65">IP Outputs</tspan>
  </text>
  <g>
    <rect style="fill: #ffffff" x="-660" y="-80" width="40" height="20"/>
    <rect style="fill: none; fill-opacity:0; stroke-width: 2; stroke: #ffa500" x="-660" y="-80" width="40" height="20"/>
  </g>
  <text font-size="11.2889" style="fill: #000000;text-anchor:start;font-family:sans-serif;font-style:normal;font-weight:700" x="-560" y="23.925">
    <tspan x="-560" y="23.925"></tspan>
  </text>
  <g>
    <rect style="fill: #ffffff" x="180" y="-60" width="120" height="80"/>
    <rect style="fill: none; fill-opacity:0; stroke-width: 2; stroke: #0000ff" x="180" y="-60" width="120" height="80"/>
    <text font-size="11.2889" style="fill: #0000ff;text-anchor:middle;font-family:sans-serif;font-style:normal;font-weight:normal" x="240" y="-16.5556">
      <tspan x="240" y="-16.5556">gen_fins.py</tspan>
    </text>
  </g>
  <g>
    <rect style="fill: #ffffff" x="-60" y="-20" width="160" height="40"/>
    <rect style="fill: none; fill-opacity:0; stroke-width: 2; stroke: #000000" x="-60" y="-20" width="160" height="40"/>
    <text font-size="11.2889" style="fill: #000000;text-anchor:middle;font-family:sans-serif;font-style:normal;font-weight:normal" x="20" y="3.44444">
      <tspan x="20" y="3.44444">fins_edit.json</tspan>
    </text>
  </g>
  <g>
    <rect style="fill: #ffffff" x="180" y="-140" width="120" height="40"/>
    <rect style="fill: none; fill-opacity:0; stroke-width: 2; stroke: #0000ff" x="180" y="-140" width="120" height="40"/>
    <text font-size="11.2889" style="fill: #0000ff;text-anchor:middle;font-family:sans-serif;font-style:normal;font-weight:normal" x="240" y="-116.556">
      <tspan x="240" y="-116.556">validate_fins.py</tspan>
    </text>
  </g>
  <g>
    <rect style="fill: #ffffff" x="440" y="20" width="240" height="80"/>
    <rect style="fill: none; fill-opacity:0; stroke-width: 2; stroke: #008000" x="440" y="20" width="240" height="80"/>
    <text font-size="11.2889" style="fill: #008000;text-anchor:middle;font-family:sans-serif;font-style:normal;font-weight:normal" x="560" y="42.2778">
      <tspan x="560" y="42.2778">[name]_swconfig.vhd</tspan>
      <tspan x="560" y="56.3889">[name]_swconfig_verify.vhd</tspan>
      <tspan x="560" y="70.5">[name]_swconfig.md</tspan>
      <tspan x="560" y="84.6111">fins_swconfig_register_map.json</tspan>
    </text>
  </g>
  <g>
    <rect style="fill: #ffffff" x="440" y="-140" width="240" height="80"/>
    <rect style="fill: none; fill-opacity:0; stroke-width: 2; stroke: #008000" x="440" y="-140" width="240" height="80"/>
    <text font-size="11.2889" style="fill: #008000;text-anchor:middle;font-family:sans-serif;font-style:normal;font-weight:normal" x="560" y="-110.667">
      <tspan x="560" y="-110.667">[name]_axilite.vhd</tspan>
      <tspan x="560" y="-96.5556">[name]_axilite.md</tspan>
      <tspan x="560" y="-82.4444">fins_axilite_register_map.json</tspan>
    </text>
  </g>
  <g>
    <rect style="fill: #ffffff" x="440" y="100" width="240" height="80"/>
    <rect style="fill: none; fill-opacity:0; stroke-width: 2; stroke: #008000" x="440" y="100" width="240" height="80"/>
    <text font-size="11.2889" style="fill: #008000;text-anchor:middle;font-family:sans-serif;font-style:normal;font-weight:normal" x="560" y="136.389">
      <tspan x="560" y="136.389">ip_import_user.tcl</tspan>
      <tspan x="560" y="150.5">[repo_name]/fins_edit.json</tspan>
    </text>
  </g>
  <g>
    <rect style="fill: #ffffff" x="440" y="-220" width="240" height="80"/>
    <rect style="fill: none; fill-opacity:0; stroke-width: 2; stroke: #008000" x="440" y="-220" width="240" height="80"/>
    <text font-size="11.2889" style="fill: #008000;text-anchor:middle;font-family:sans-serif;font-style:normal;font-weight:normal" x="560" y="-183.611">
      <tspan x="560" y="-183.611">[name]_streams.vhd</tspan>
      <tspan x="560" y="-169.5">ip_params.m</tspan>
    </text>
  </g>
  <g>
    <polyline style="fill: none; fill-opacity:0; stroke-width: 2; stroke: #000000" points="300,-20 340,-20 340,-100 430.264,-100 "/>
    <polygon style="fill: #000000" points="437.764,-100 427.764,-95 430.264,-100 427.764,-105 "/>
    <polygon style="fill: none; fill-opacity:0; stroke-width: 2; stroke: #000000" points="437.764,-100 427.764,-95 430.264,-100 427.764,-105 "/>
  </g>
  <g>
    <polyline style="fill: none; fill-opacity:0; stroke-width: 2; stroke: #000000" points="300,-20 340,-20 340,60 430.264,60 "/>
    <polygon style="fill: #000000" points="437.764,60 427.764,65 430.264,60 427.764,55 "/>
    <polygon style="fill: none; fill-opacity:0; stroke-width: 2; stroke: #000000" points="437.764,60 427.764,65 430.264,60 427.764,55 "/>
  </g>
  <g>
    <polyline style="fill: none; fill-opacity:0; stroke-width: 2; stroke: #000000" points="300,-20 340,-20 340,140 430.264,140 "/>
    <polygon style="fill: #000000" points="437.764,140 427.764,145 430.264,140 427.764,135 "/>
    <polygon style="fill: none; fill-opacity:0; stroke-width: 2; stroke: #000000" points="437.764,140 427.764,145 430.264,140 427.764,135 "/>
  </g>
  <g>
    <polyline style="fill: none; fill-opacity:0; stroke-width: 2; stroke: #000000" points="300,-20 340,-20 340,220 430.264,220 "/>
    <polygon style="fill: #000000" points="437.764,220 427.764,225 430.264,220 427.764,215 "/>
    <polygon style="fill: none; fill-opacity:0; stroke-width: 2; stroke: #000000" points="437.764,220 427.764,225 430.264,220 427.764,215 "/>
  </g>
  <g>
    <polyline style="fill: none; fill-opacity:0; stroke-width: 2; stroke: #000000" points="300,-20 340,-20 340,-180 430.264,-180 "/>
    <polygon style="fill: #000000" points="437.764,-180 427.764,-175 430.264,-180 427.764,-185 "/>
    <polygon style="fill: none; fill-opacity:0; stroke-width: 2; stroke: #000000" points="437.764,-180 427.764,-175 430.264,-180 427.764,-185 "/>
  </g>
  <g>
    <line style="fill: none; fill-opacity:0; stroke-width: 2; stroke: #000000" x1="300" y1="-20" x2="430.264" y2="-20"/>
    <polygon style="fill: #000000" points="437.764,-20 427.764,-15 430.264,-20 427.764,-25 "/>
    <polygon style="fill: none; fill-opacity:0; stroke-width: 2; stroke: #000000" points="437.764,-20 427.764,-15 430.264,-20 427.764,-25 "/>
  </g>
  <text font-size="12.7998" style="fill: #000000;text-anchor:end;font-family:sans-serif;font-style:normal;font-weight:normal" x="420" y="-103">
    <tspan x="420" y="-103">"axilite"</tspan>
  </text>
  <text font-size="12.7998" style="fill: #000000;text-anchor:end;font-family:sans-serif;font-style:normal;font-weight:normal" x="420" y="57">
    <tspan x="420" y="57">"swconfig"</tspan>
  </text>
  <text font-size="12.7998" style="fill: #000000;text-anchor:end;font-family:sans-serif;font-style:normal;font-weight:normal" x="420" y="137">
    <tspan x="420" y="137">"ip"</tspan>
  </text>
  <text font-size="12.7998" style="fill: #000000;text-anchor:end;font-family:sans-serif;font-style:normal;font-weight:normal" x="420" y="217">
    <tspan x="420" y="217">"params"</tspan>
  </text>
  <text font-size="12.7998" style="fill: #000000;text-anchor:end;font-family:sans-serif;font-style:normal;font-weight:normal" x="420" y="-183">
    <tspan x="420" y="-183">"streams"</tspan>
  </text>
  <g>
    <line style="fill: none; fill-opacity:0; stroke-width: 2; stroke: #000000" x1="100" y1="0" x2="170.264" y2="0"/>
    <polygon style="fill: #000000" points="177.764,0 167.764,5 170.264,0 167.764,-5 "/>
    <polygon style="fill: none; fill-opacity:0; stroke-width: 2; stroke: #000000" points="177.764,0 167.764,5 170.264,0 167.764,-5 "/>
  </g>
  <g>
    <polyline style="fill: none; fill-opacity:0; stroke-width: 2; stroke: #000000" points="140,-120 140,-120 140,-40 170.264,-40 "/>
    <polygon style="fill: #000000" points="177.764,-40 167.764,-35 170.264,-40 167.764,-45 "/>
    <polygon style="fill: none; fill-opacity:0; stroke-width: 2; stroke: #000000" points="177.764,-40 167.764,-35 170.264,-40 167.764,-45 "/>
  </g>
  <g>
    <rect style="fill: #ffffff" x="-300" y="180" width="200" height="40"/>
    <rect style="fill: none; fill-opacity:0; stroke-width: 2; stroke: #008000" x="-300" y="180" width="200" height="40"/>
    <text font-size="11.2889" style="fill: #008000;text-anchor:middle;font-family:sans-serif;font-style:normal;font-weight:normal" x="-200" y="203.444">
      <tspan x="-200" y="203.444">ip_import_user.tcl</tspan>
    </text>
  </g>
  <g>
    <rect style="fill: #ffffff" x="-300" y="100" width="200" height="40"/>
    <rect style="fill: none; fill-opacity:0; stroke-width: 2; stroke: #008000" x="-300" y="100" width="200" height="40"/>
    <text font-size="11.2889" style="fill: #008000;text-anchor:middle;font-family:sans-serif;font-style:normal;font-weight:normal" x="-200" y="123.444">
      <tspan x="-200" y="123.444">ip_params.tcl</tspan>
    </text>
  </g>
  <g>
    <line style="fill: none; fill-opacity:0; stroke-width: 2; stroke: #000000" x1="100" y1="160" x2="170.264" y2="160"/>
    <polygon style="fill: #000000" points="177.764,160 167.764,165 170.264,160 167.764,155 "/>
    <polygon style="fill: none; fill-opacity:0; stroke-width: 2; stroke: #000000" points="177.764,160 167.764,165 170.264,160 167.764,155 "/>
  </g>
  <g>
    <rect style="fill: #ffffff" x="-300" y="220" width="200" height="40"/>
    <rect style="fill: none; fill-opacity:0; stroke-width: 2; stroke: #008000" x="-300" y="220" width="200" height="40"/>
    <text font-size="11.2889" style="fill: #008000;text-anchor:middle;font-family:sans-serif;font-style:normal;font-weight:normal" x="-200" y="243.444">
      <tspan x="-200" y="243.444">[name]_swconfig.vhd</tspan>
    </text>
  </g>
  <g>
    <rect style="fill: #ffffff" x="-300" y="260" width="200" height="40"/>
    <rect style="fill: none; fill-opacity:0; stroke-width: 2; stroke: #008000" x="-300" y="260" width="200" height="40"/>
    <text font-size="11.2889" style="fill: #008000;text-anchor:middle;font-family:sans-serif;font-style:normal;font-weight:normal" x="-200" y="283.444">
      <tspan x="-200" y="283.444">[name]_axilite.vhd</tspan>
    </text>
  </g>
  <g>
    <rect style="fill: #ffffff" x="-300" y="300" width="200" height="40"/>
    <rect style="fill: none; fill-opacity:0; stroke-width: 2; stroke: #008000" x="-300" y="300" width="200" height="40"/>
    <text font-size="11.2889" style="fill: #008000;text-anchor:middle;font-family:sans-serif;font-style:normal;font-weight:normal" x="-200" y="323.444">
      <tspan x="-200" y="323.444">[name]_params.vhd</tspan>
    </text>
  </g>
  <g>
    <line style="fill: none; fill-opacity:0; stroke-width: 2; stroke: #000000" x1="-100" y1="200" x2="170.264" y2="200"/>
    <polygon style="fill: #000000" points="177.764,200 167.764,205 170.264,200 167.764,195 "/>
    <polygon style="fill: none; fill-opacity:0; stroke-width: 2; stroke: #000000" points="177.764,200 167.764,205 170.264,200 167.764,195 "/>
  </g>
  <g>
    <line style="fill: none; fill-opacity:0; stroke-width: 2; stroke: #000000" x1="-100" y1="120" x2="170.264" y2="120"/>
    <polygon style="fill: #000000" points="177.764,120 167.764,125 170.264,120 167.764,115 "/>
    <polygon style="fill: none; fill-opacity:0; stroke-width: 2; stroke: #000000" points="177.764,120 167.764,125 170.264,120 167.764,115 "/>
  </g>
  <g>
    <line style="fill: none; fill-opacity:0; stroke-width: 2; stroke: #000000" x1="100" y1="-120" x2="170.264" y2="-120"/>
    <polygon style="fill: #000000" points="177.764,-120 167.764,-115 170.264,-120 167.764,-125 "/>
    <polygon style="fill: none; fill-opacity:0; stroke-width: 2; stroke: #000000" points="177.764,-120 167.764,-115 170.264,-120 167.764,-125 "/>
  </g>
  <g>
    <line style="fill: none; fill-opacity:0; stroke-width: 2; stroke: #000000" x1="-100" y1="320" x2="-69.7361" y2="320"/>
    <polygon style="fill: #000000" points="-62.2361,320 -72.2361,325 -69.7361,320 -72.2361,315 "/>
    <polygon style="fill: none; fill-opacity:0; stroke-width: 2; stroke: #000000" points="-62.2361,320 -72.2361,325 -69.7361,320 -72.2361,315 "/>
  </g>
  <g>
    <line style="fill: none; fill-opacity:0; stroke-width: 2; stroke: #000000" x1="-100" y1="280" x2="-69.7361" y2="280"/>
    <polygon style="fill: #000000" points="-62.2361,280 -72.2361,285 -69.7361,280 -72.2361,275 "/>
    <polygon style="fill: none; fill-opacity:0; stroke-width: 2; stroke: #000000" points="-62.2361,280 -72.2361,285 -69.7361,280 -72.2361,275 "/>
  </g>
  <g>
    <line style="fill: none; fill-opacity:0; stroke-width: 2; stroke: #000000" x1="-100" y1="240" x2="-69.7361" y2="240"/>
    <polygon style="fill: #000000" points="-62.2361,240 -72.2361,245 -69.7361,240 -72.2361,235 "/>
    <polygon style="fill: none; fill-opacity:0; stroke-width: 2; stroke: #000000" points="-62.2361,240 -72.2361,245 -69.7361,240 -72.2361,235 "/>
  </g>
  <g>
    <line style="fill: none; fill-opacity:0; stroke-width: 2; stroke: #000000" x1="100" y1="280" x2="170.264" y2="280"/>
    <polygon style="fill: #000000" points="177.764,280 167.764,285 170.264,280 167.764,275 "/>
    <polygon style="fill: none; fill-opacity:0; stroke-width: 2; stroke: #000000" points="177.764,280 167.764,285 170.264,280 167.764,275 "/>
  </g>
  <g>
    <rect style="fill: #ffffff" x="180" y="580" width="120" height="200"/>
    <rect style="fill: none; fill-opacity:0; stroke-width: 2; stroke: #0000ff" x="180" y="580" width="120" height="200"/>
    <text font-size="11.2889" style="fill: #0000ff;text-anchor:middle;font-family:sans-serif;font-style:normal;font-weight:normal" x="240" y="683.444">
      <tspan x="240" y="683.444">ip_simulate.tcl</tspan>
    </text>
  </g>
  <g>
    <rect style="fill: #ffffff" x="180" y="420" width="120" height="120"/>
    <rect style="fill: none; fill-opacity:0; stroke-width: 2; stroke: #000000" x="180" y="420" width="120" height="120"/>
    <text font-size="11.2889" style="fill: #000000;text-anchor:middle;font-family:sans-serif;font-style:normal;font-weight:normal" x="240" y="483.444">
      <tspan x="240" y="483.444">sim_setup.m</tspan>
    </text>
  </g>
  <g>
    <rect style="fill: #ffffff" x="-300" y="420" width="200" height="40"/>
    <rect style="fill: none; fill-opacity:0; stroke-width: 2; stroke: #008000" x="-300" y="420" width="200" height="40"/>
    <text font-size="11.2889" style="fill: #008000;text-anchor:middle;font-family:sans-serif;font-style:normal;font-weight:normal" x="-200" y="443.444">
      <tspan x="-200" y="443.444">ip_params.m</tspan>
    </text>
  </g>
  <g>
    <line style="fill: none; fill-opacity:0; stroke-width: 2; stroke: #000000" x1="-100" y1="440" x2="170.264" y2="440"/>
    <polygon style="fill: #000000" points="177.764,440 167.764,445 170.264,440 167.764,435 "/>
    <polygon style="fill: none; fill-opacity:0; stroke-width: 2; stroke: #000000" points="177.764,440 167.764,445 170.264,440 167.764,435 "/>
  </g>
  <g>
    <rect style="fill: #ffffff" x="180" y="820" width="120" height="80"/>
    <rect style="fill: none; fill-opacity:0; stroke-width: 2; stroke: #000000" x="180" y="820" width="120" height="80"/>
    <text font-size="11.2889" style="fill: #000000;text-anchor:middle;font-family:sans-serif;font-style:normal;font-weight:normal" x="240" y="863.444">
      <tspan x="240" y="863.444">sim_verify.m</tspan>
    </text>
  </g>
  <g>
    <rect style="fill: #f3f3f3" x="-500" y="460" width="160" height="40"/>
    <rect style="fill: none; fill-opacity:0; stroke-width: 2; stroke-dasharray: 4; stroke: #000000" x="-500" y="460" width="160" height="40"/>
    <text font-size="11.2889" style="fill: #000000;text-anchor:middle;font-family:sans-serif;font-style:normal;font-weight:normal" x="-420" y="483.444">
      <tspan x="-420" y="483.444">Algorithm Model (.m)</tspan>
    </text>
  </g>
  <g>
    <rect style="fill: #f3f3f3" x="-500" y="500" width="160" height="40"/>
    <rect style="fill: none; fill-opacity:0; stroke-width: 2; stroke-dasharray: 4; stroke: #000000" x="-500" y="500" width="160" height="40"/>
    <text font-size="11.2889" style="fill: #000000;text-anchor:middle;font-family:sans-serif;font-style:normal;font-weight:normal" x="-420" y="523.444">
      <tspan x="-420" y="523.444">FINS Streams Lib (.m)</tspan>
    </text>
  </g>
  <g>
    <line style="fill: none; fill-opacity:0; stroke-width: 2; stroke: #000000" x1="-340" y1="480" x2="170.264" y2="480"/>
    <polygon style="fill: #000000" points="177.764,480 167.764,485 170.264,480 167.764,475 "/>
    <polygon style="fill: none; fill-opacity:0; stroke-width: 2; stroke: #000000" points="177.764,480 167.764,485 170.264,480 167.764,475 "/>
  </g>
  <g>
    <line style="fill: none; fill-opacity:0; stroke-width: 2; stroke: #000000" x1="-340" y1="520" x2="170.264" y2="520"/>
    <polygon style="fill: #000000" points="177.764,520 167.764,525 170.264,520 167.764,515 "/>
    <polygon style="fill: none; fill-opacity:0; stroke-width: 2; stroke: #000000" points="177.764,520 167.764,525 170.264,520 167.764,515 "/>
  </g>
  <g>
    <rect style="fill: #f3f3f3" x="-500" y="140" width="160" height="40"/>
    <rect style="fill: none; fill-opacity:0; stroke-width: 2; stroke-dasharray: 4; stroke: #000000" x="-500" y="140" width="160" height="40"/>
    <text font-size="11.2889" style="fill: #000000;text-anchor:middle;font-family:sans-serif;font-style:normal;font-weight:normal" x="-420" y="163.444">
      <tspan x="-420" y="163.444">Xilinx IP</tspan>
    </text>
  </g>
  <g>
    <line style="fill: none; fill-opacity:0; stroke-width: 2; stroke: #000000" x1="-340" y1="160" x2="-69.7361" y2="160"/>
    <polygon style="fill: #000000" points="-62.2361,160 -72.2361,165 -69.7361,160 -72.2361,155 "/>
    <polygon style="fill: none; fill-opacity:0; stroke-width: 2; stroke: #000000" points="-62.2361,160 -72.2361,165 -69.7361,160 -72.2361,155 "/>
  </g>
  <g>
    <line style="fill: none; fill-opacity:0; stroke-width: 2; stroke: #000000" x1="-340" y1="200" x2="-309.736" y2="200"/>
    <polygon style="fill: #000000" points="-302.236,200 -312.236,205 -309.736,200 -312.236,195 "/>
    <polygon style="fill: none; fill-opacity:0; stroke-width: 2; stroke: #000000" points="-302.236,200 -312.236,205 -309.736,200 -312.236,195 "/>
  </g>
  <g>
    <rect style="fill: #ffffff" x="-60" y="620" width="160" height="160"/>
    <rect style="fill: none; fill-opacity:0; stroke-width: 2; stroke: #000000" x="-60" y="620" width="160" height="160"/>
    <text font-size="11.2889" style="fill: #000000;text-anchor:middle;font-family:sans-serif;font-style:normal;font-weight:normal" x="20" y="696.389">
      <tspan x="20" y="696.389">Top-level Testbench</tspan>
      <tspan x="20" y="710.5">[name]_tb.vhd</tspan>
    </text>
  </g>
  <g>
    <rect style="fill: #ffffff" x="-300" y="660" width="200" height="40"/>
    <rect style="fill: none; fill-opacity:0; stroke-width: 2; stroke: #008000" x="-300" y="660" width="200" height="40"/>
    <text font-size="11.2889" style="fill: #008000;text-anchor:middle;font-family:sans-serif;font-style:normal;font-weight:normal" x="-200" y="683.444">
      <tspan x="-200" y="683.444">[name]_streams.vhd</tspan>
    </text>
  </g>
  <g>
    <rect style="fill: #ffffff" x="-300" y="700" width="200" height="40"/>
    <rect style="fill: none; fill-opacity:0; stroke-width: 2; stroke: #008000" x="-300" y="700" width="200" height="40"/>
    <text font-size="11.2889" style="fill: #008000;text-anchor:middle;font-family:sans-serif;font-style:normal;font-weight:normal" x="-200" y="723.444">
      <tspan x="-200" y="723.444">[name]_swconfig_verify.vhd</tspan>
    </text>
  </g>
  <g>
    <line style="fill: none; fill-opacity:0; stroke-width: 2; stroke: #000000" x1="-100" y1="680" x2="-69.7361" y2="680"/>
    <polygon style="fill: #000000" points="-62.2361,680 -72.2361,685 -69.7361,680 -72.2361,675 "/>
    <polygon style="fill: none; fill-opacity:0; stroke-width: 2; stroke: #000000" points="-62.2361,680 -72.2361,685 -69.7361,680 -72.2361,675 "/>
  </g>
  <g>
    <line style="fill: none; fill-opacity:0; stroke-width: 2; stroke: #000000" x1="-100" y1="720" x2="-69.7361" y2="720"/>
    <polygon style="fill: #000000" points="-62.2361,720 -72.2361,725 -69.7361,720 -72.2361,715 "/>
    <polygon style="fill: none; fill-opacity:0; stroke-width: 2; stroke: #000000" points="-62.2361,720 -72.2361,725 -69.7361,720 -72.2361,715 "/>
  </g>
  <g>
    <line style="fill: none; fill-opacity:0; stroke-width: 2; stroke: #000000" x1="100" y1="700" x2="170.264" y2="700"/>
    <polygon style="fill: #000000" points="177.764,700 167.764,705 170.264,700 167.764,695 "/>
    <polygon style="fill: none; fill-opacity:0; stroke-width: 2; stroke: #000000" points="177.764,700 167.764,705 170.264,700 167.764,695 "/>
  </g>
  <g>
    <rect style="fill: #ffffff" x="180" y="980" width="120" height="40"/>
    <rect style="fill: none; fill-opacity:0; stroke-width: 2; stroke: #000000" x="180" y="980" width="120" height="40"/>
    <text font-size="11.2889" style="fill: #000000;text-anchor:middle;font-family:sans-serif;font-style:normal;font-weight:normal" x="240" y="1003.44">
      <tspan x="240" y="1003.44">ip_netlist.tcl</tspan>
    </text>
  </g>
  <g>
    <rect style="fill: #ffffff" x="440" y="840" width="240" height="40"/>
    <rect style="fill: none; fill-opacity:0; stroke-width: 2; stroke: #a020f0" x="440" y="840" width="240" height="40"/>
    <text font-size="11.2889" style="fill: #a020f0;text-anchor:middle;font-family:sans-serif;font-style:normal;font-weight:normal" x="560" y="863.444">
      <tspan x="560" y="863.444">sim_results.txt</tspan>
    </text>
  </g>
  <g>
    <rect style="fill: #ffffff" x="440" y="980" width="240" height="40"/>
    <rect style="fill: none; fill-opacity:0; stroke-width: 2; stroke: #a020f0" x="440" y="980" width="240" height="40"/>
    <text font-size="11.2889" style="fill: #a020f0;text-anchor:middle;font-family:sans-serif;font-style:normal;font-weight:normal" x="560" y="1003.44">
      <tspan x="560" y="1003.44">[name].edif</tspan>
    </text>
  </g>
  <g>
    <rect style="fill: #ffffff" x="440" y="260" width="240" height="80"/>
    <rect style="fill: none; fill-opacity:0; stroke-width: 2; stroke: #ffa500" x="440" y="260" width="240" height="80"/>
    <text font-size="11.2889" style="fill: #ffa500;text-anchor:middle;font-family:sans-serif;font-style:normal;font-weight:normal" x="560" y="289.333">
      <tspan x="560" y="289.333">Vivado Packaged IP</tspan>
      <tspan x="560" y="303.444">[name].xpr</tspan>
      <tspan x="560" y="317.556">component.xml</tspan>
    </text>
  </g>
  <g>
    <line style="fill: none; fill-opacity:0; stroke-width: 2; stroke: #000000" x1="300" y1="300" x2="430.264" y2="300"/>
    <polygon style="fill: #000000" points="437.764,300 427.764,305 430.264,300 427.764,295 "/>
    <polygon style="fill: none; fill-opacity:0; stroke-width: 2; stroke: #000000" points="437.764,300 427.764,305 430.264,300 427.764,295 "/>
  </g>
  <g>
    <line style="fill: none; fill-opacity:0; stroke-width: 2; stroke: #000000" x1="300" y1="860" x2="430.264" y2="860"/>
    <polygon style="fill: #000000" points="437.764,860 427.764,865 430.264,860 427.764,855 "/>
    <polygon style="fill: none; fill-opacity:0; stroke-width: 2; stroke: #000000" points="437.764,860 427.764,865 430.264,860 427.764,855 "/>
  </g>
  <g>
    <line style="fill: none; fill-opacity:0; stroke-width: 2; stroke: #000000" x1="300" y1="1000" x2="430.264" y2="1000"/>
    <polygon style="fill: #000000" points="437.764,1000 427.764,1005 430.264,1000 427.764,995 "/>
    <polygon style="fill: none; fill-opacity:0; stroke-width: 2; stroke: #000000" points="437.764,1000 427.764,1005 430.264,1000 427.764,995 "/>
  </g>
  <g>
    <line style="fill: none; fill-opacity:0; stroke-width: 4; stroke: #0000ff" x1="240" y1="-100" x2="240" y2="-71.9721"/>
    <polygon style="fill: #0000ff" points="240,-64.4721 235,-74.4721 240,-71.9721 245,-74.4721 "/>
    <polygon style="fill: none; fill-opacity:0; stroke-width: 4; stroke: #0000ff" points="240,-64.4721 235,-74.4721 240,-71.9721 245,-74.4721 "/>
  </g>
  <g>
    <line style="fill: none; fill-opacity:0; stroke-width: 4; stroke: #0000ff" x1="240" y1="20" x2="240" y2="88.0279"/>
    <polygon style="fill: #0000ff" points="240,95.5279 235,85.5279 240,88.0279 245,85.5279 "/>
    <polygon style="fill: none; fill-opacity:0; stroke-width: 4; stroke: #0000ff" points="240,95.5279 235,85.5279 240,88.0279 245,85.5279 "/>
  </g>
  <g>
    <line style="fill: none; fill-opacity:0; stroke-width: 4; stroke: #0000ff" x1="240" y1="340" x2="240" y2="408.028"/>
    <polygon style="fill: #0000ff" points="240,415.528 235,405.528 240,408.028 245,405.528 "/>
    <polygon style="fill: none; fill-opacity:0; stroke-width: 4; stroke: #0000ff" points="240,415.528 235,405.528 240,408.028 245,405.528 "/>
  </g>
  <g>
    <rect style="fill: #ffffff" x="-300" y="620" width="200" height="40"/>
    <rect style="fill: none; fill-opacity:0; stroke-width: 2; stroke: #008000" x="-300" y="620" width="200" height="40"/>
    <text font-size="11.2889" style="fill: #008000;text-anchor:middle;font-family:sans-serif;font-style:normal;font-weight:normal" x="-200" y="643.444">
      <tspan x="-200" y="643.444">[name]_params.vhd</tspan>
    </text>
  </g>
  <g>
    <line style="fill: none; fill-opacity:0; stroke-width: 2; stroke: #000000" x1="-100" y1="640" x2="-69.7361" y2="640"/>
    <polygon style="fill: #000000" points="-62.2361,640 -72.2361,645 -69.7361,640 -72.2361,635 "/>
    <polygon style="fill: none; fill-opacity:0; stroke-width: 2; stroke: #000000" points="-62.2361,640 -72.2361,645 -69.7361,640 -72.2361,635 "/>
  </g>
  <g>
    <rect style="fill: #ffffff" x="-300" y="820" width="200" height="40"/>
    <rect style="fill: none; fill-opacity:0; stroke-width: 2; stroke: #008000" x="-300" y="820" width="200" height="40"/>
    <text font-size="11.2889" style="fill: #008000;text-anchor:middle;font-family:sans-serif;font-style:normal;font-weight:normal" x="-200" y="843.444">
      <tspan x="-200" y="843.444">ip_params.m</tspan>
    </text>
  </g>
  <g>
    <rect style="fill: #f3f3f3" x="-500" y="840" width="160" height="80"/>
    <rect style="fill: none; fill-opacity:0; stroke-width: 2; stroke-dasharray: 4; stroke: #000000" x="-500" y="840" width="160" height="80"/>
    <text font-size="11.2889" style="fill: #000000;text-anchor:middle;font-family:sans-serif;font-style:normal;font-weight:normal" x="-420" y="883.444">
      <tspan x="-420" y="883.444">FINS Streams Lib (.m)</tspan>
    </text>
  </g>
  <g>
    <line style="fill: none; fill-opacity:0; stroke-width: 2; stroke: #000000" x1="-100" y1="840" x2="170.264" y2="840"/>
    <polygon style="fill: #000000" points="177.764,840 167.764,845 170.264,840 167.764,835 "/>
    <polygon style="fill: none; fill-opacity:0; stroke-width: 2; stroke: #000000" points="177.764,840 167.764,845 170.264,840 167.764,835 "/>
  </g>
  <g>
    <line style="fill: none; fill-opacity:0; stroke-width: 2; stroke: #000000" x1="-340" y1="880" x2="170.264" y2="880"/>
    <polygon style="fill: #000000" points="177.764,880 167.764,885 170.264,880 167.764,875 "/>
    <polygon style="fill: none; fill-opacity:0; stroke-width: 2; stroke: #000000" points="177.764,880 167.764,885 170.264,880 167.764,875 "/>
  </g>
  <g>
    <line style="fill: none; fill-opacity:0; stroke-width: 4; stroke: #0000ff" x1="240" y1="540" x2="240" y2="568.028"/>
    <polygon style="fill: #0000ff" points="240,575.528 235,565.528 240,568.028 245,565.528 "/>
    <polygon style="fill: none; fill-opacity:0; stroke-width: 4; stroke: #0000ff" points="240,575.528 235,565.528 240,568.028 245,565.528 "/>
  </g>
  <g>
    <line style="fill: none; fill-opacity:0; stroke-width: 4; stroke: #0000ff" x1="240" y1="780" x2="240" y2="808.028"/>
    <polygon style="fill: #0000ff" points="240,815.528 235,805.528 240,808.028 245,805.528 "/>
    <polygon style="fill: none; fill-opacity:0; stroke-width: 4; stroke: #0000ff" points="240,815.528 235,805.528 240,808.028 245,805.528 "/>
  </g>
  <g>
    <polyline style="fill: none; fill-opacity:0; stroke-width: 4; stroke: #0000ff" points="240,340 240,380 340,380 340,940 240,940 240,968.028 "/>
    <polygon style="fill: #0000ff" points="240,975.528 235,965.528 240,968.028 245,965.528 "/>
    <polygon style="fill: none; fill-opacity:0; stroke-width: 4; stroke: #0000ff" points="240,975.528 235,965.528 240,968.028 245,965.528 "/>
  </g>
  <g>
    <rect style="fill: none; fill-opacity:0; stroke-width: 2; stroke-dasharray: 4; stroke: #0000ff" x="120" y="960" width="200" height="80"/>
    <text font-size="11.2889" style="fill: #0000ff;text-anchor:start;font-family:sans-serif;font-style:normal;font-weight:700" x="129" y="982.278">
      <tspan x="129" y="982.278">"netlist"</tspan>
      <tspan x="129" y="996.389"></tspan>
      <tspan x="129" y="1010.5"></tspan>
      <tspan x="129" y="1024.61"></tspan>
    </text>
  </g>
  <g>
    <rect style="fill: #ffffff" x="440" y="440" width="240" height="40"/>
    <rect style="fill: none; fill-opacity:0; stroke-width: 2; stroke: #a020f0" x="440" y="440" width="240" height="40"/>
    <text font-size="11.2889" style="fill: #a020f0;text-anchor:middle;font-family:sans-serif;font-style:normal;font-weight:normal" x="560" y="463.444">
      <tspan x="560" y="463.444">sim_results.mat</tspan>
    </text>
  </g>
  <g>
    <line style="fill: none; fill-opacity:0; stroke-width: 2; stroke: #000000" x1="300" y1="460" x2="430.264" y2="460"/>
    <polygon style="fill: #000000" points="437.764,460 427.764,465 430.264,460 427.764,455 "/>
    <polygon style="fill: none; fill-opacity:0; stroke-width: 2; stroke: #000000" points="437.764,460 427.764,465 430.264,460 427.764,455 "/>
  </g>
  <g>
    <rect style="fill: #ffffff" x="440" y="480" width="240" height="40"/>
    <rect style="fill: none; fill-opacity:0; stroke-width: 2; stroke: #a020f0" x="440" y="480" width="240" height="40"/>
    <text font-size="11.2889" style="fill: #a020f0;text-anchor:middle;font-family:sans-serif;font-style:normal;font-weight:normal" x="560" y="503.444">
      <tspan x="560" y="503.444">sim_in_[stream].txt</tspan>
    </text>
  </g>
  <g>
    <rect style="fill: #ffffff" x="440" y="660" width="240" height="40"/>
    <rect style="fill: none; fill-opacity:0; stroke-width: 2; stroke: #a020f0" x="440" y="660" width="240" height="40"/>
    <text font-size="11.2889" style="fill: #a020f0;text-anchor:middle;font-family:sans-serif;font-style:normal;font-weight:normal" x="560" y="683.444">
      <tspan x="560" y="683.444">sim_out_[stream].txt</tspan>
    </text>
  </g>
  <g>
    <line style="fill: none; fill-opacity:0; stroke-width: 2; stroke: #000000" x1="300" y1="680" x2="430.264" y2="680"/>
    <polygon style="fill: #000000" points="437.764,680 427.764,685 430.264,680 427.764,675 "/>
    <polygon style="fill: none; fill-opacity:0; stroke-width: 2; stroke: #000000" points="437.764,680 427.764,685 430.264,680 427.764,675 "/>
  </g>
  <g>
    <line style="fill: none; fill-opacity:0; stroke-width: 2; stroke: #000000" x1="300" y1="500" x2="430.264" y2="500"/>
    <polygon style="fill: #000000" points="437.764,500 427.764,505 430.264,500 427.764,495 "/>
    <polygon style="fill: none; fill-opacity:0; stroke-width: 2; stroke: #000000" points="437.764,500 427.764,505 430.264,500 427.764,495 "/>
  </g>
  <g>
    <rect style="fill: #ffffff" x="-680" y="740" width="140" height="40"/>
    <rect style="fill: none; fill-opacity:0; stroke-width: 2; stroke: #a020f0" x="-680" y="740" width="140" height="40"/>
    <text font-size="11.2889" style="fill: #a020f0;text-anchor:middle;font-family:sans-serif;font-style:normal;font-weight:normal" x="-610" y="763.444">
      <tspan x="-610" y="763.444">sim_in_[stream].txt</tspan>
    </text>
  </g>
  <g>
    <rect style="fill: #f3f3f3" x="-500" y="740" width="160" height="40"/>
    <rect style="fill: none; fill-opacity:0; stroke-width: 2; stroke-dasharray: 4; stroke: #000000" x="-500" y="740" width="160" height="40"/>
    <text font-size="11.2889" style="fill: #000000;text-anchor:middle;font-family:sans-serif;font-style:normal;font-weight:normal" x="-420" y="763.444">
      <tspan x="-420" y="763.444">FINS Streams Lib (.vhd)</tspan>
    </text>
  </g>
  <g>
    <line style="fill: none; fill-opacity:0; stroke-width: 2; stroke: #000000" x1="-540" y1="760" x2="-509.736" y2="760"/>
    <polygon style="fill: #000000" points="-502.236,760 -512.236,765 -509.736,760 -512.236,755 "/>
    <polygon style="fill: none; fill-opacity:0; stroke-width: 2; stroke: #000000" points="-502.236,760 -512.236,765 -509.736,760 -512.236,755 "/>
  </g>
  <g>
    <line style="fill: none; fill-opacity:0; stroke-width: 2; stroke: #000000" x1="-340" y1="760" x2="-69.7361" y2="760"/>
    <polygon style="fill: #000000" points="-62.2361,760 -72.2361,765 -69.7361,760 -72.2361,755 "/>
    <polygon style="fill: none; fill-opacity:0; stroke-width: 2; stroke: #000000" points="-62.2361,760 -72.2361,765 -69.7361,760 -72.2361,755 "/>
  </g>
  <g>
    <rect style="fill: #ffffff" x="-680" y="840" width="140" height="40"/>
    <rect style="fill: none; fill-opacity:0; stroke-width: 2; stroke: #a020f0" x="-680" y="840" width="140" height="40"/>
    <text font-size="11.2889" style="fill: #a020f0;text-anchor:middle;font-family:sans-serif;font-style:normal;font-weight:normal" x="-610" y="863.444">
      <tspan x="-610" y="863.444">sim_results.mat</tspan>
    </text>
  </g>
  <g>
    <rect style="fill: #ffffff" x="-680" y="880" width="140" height="40"/>
    <rect style="fill: none; fill-opacity:0; stroke-width: 2; stroke: #a020f0" x="-680" y="880" width="140" height="40"/>
    <text font-size="11.2889" style="fill: #a020f0;text-anchor:middle;font-family:sans-serif;font-style:normal;font-weight:normal" x="-610" y="903.444">
      <tspan x="-610" y="903.444">sim_out_[stream].txt</tspan>
    </text>
  </g>
  <g>
    <line style="fill: none; fill-opacity:0; stroke-width: 2; stroke: #000000" x1="-540" y1="860" x2="-509.736" y2="860"/>
    <polygon style="fill: #000000" points="-502.236,860 -512.236,865 -509.736,860 -512.236,855 "/>
    <polygon style="fill: none; fill-opacity:0; stroke-width: 2; stroke: #000000" points="-502.236,860 -512.236,865 -509.736,860 -512.236,855 "/>
  </g>
  <g>
    <line style="fill: none; fill-opacity:0; stroke-width: 2; stroke: #000000" x1="-540" y1="900" x2="-509.736" y2="900"/>
    <polygon style="fill: #000000" points="-502.236,900 -512.236,905 -509.736,900 -512.236,895 "/>
    <polygon style="fill: none; fill-opacity:0; stroke-width: 2; stroke: #000000" points="-502.236,900 -512.236,905 -509.736,900 -512.236,895 "/>
  </g>
  <g>
    <rect style="fill: #ffffff" x="-680" y="560" width="140" height="80"/>
    <rect style="fill: none; fill-opacity:0; stroke-width: 2; stroke: #ffa500" x="-680" y="560" width="140" height="80"/>
    <text font-size="11.2889" style="fill: #ffa500;text-anchor:middle;font-family:sans-serif;font-style:normal;font-weight:normal" x="-610" y="589.333">
      <tspan x="-610" y="589.333">Vivado Packaged IP</tspan>
      <tspan x="-610" y="603.444">[name].xpr</tspan>
      <tspan x="-610" y="617.556">component.xml</tspan>
    </text>
  </g>
  <g>
    <line style="fill: none; fill-opacity:0; stroke-width: 2; stroke: #000000" x1="-540" y1="600" x2="170.264" y2="600"/>
    <polygon style="fill: #000000" points="177.764,600 167.764,605 170.264,600 167.764,595 "/>
    <polygon style="fill: none; fill-opacity:0; stroke-width: 2; stroke: #000000" points="177.764,600 167.764,605 170.264,600 167.764,595 "/>
  </g>
  <text font-size="22.5778" style="fill: #000000;text-anchor:start;font-family:sans-serif;font-style:italic;font-weight:700" x="-680" y="-199">
    <tspan x="-680" y="-199">GEON TECHNOLOGIES PROPRIETARY</tspan>
  </text>
  <g>
    <rect style="fill: #f3f3f3" x="-660" y="80" width="40" height="20"/>
    <rect style="fill: none; fill-opacity:0; stroke-width: 2; stroke-dasharray: 4; stroke: #000000" x="-660" y="80" width="40" height="20"/>
  </g>
  <g>
    <rect style="fill: #ffffff" x="-660" y="-120" width="40" height="20"/>
    <rect style="fill: none; fill-opacity:0; stroke-width: 2; stroke: #008000" x="-660" y="-120" width="40" height="20"/>
  </g>
  <g>
    <rect style="fill: #ffffff" x="-660" y="-40" width="40" height="20"/>
    <rect style="fill: none; fill-opacity:0; stroke-width: 2; stroke: #a020f0" x="-660" y="-40" width="40" height="20"/>
  </g>
  <text font-size="11.2889" style="fill: #000000;text-anchor:start;font-family:sans-serif;font-style:normal;font-weight:700" x="-600" y="17.35">
    <tspan x="-600" y="17.35">FINS Scripts</tspan>
  </text>
  <text font-size="11.2889" style="fill: #000000;text-anchor:start;font-family:sans-serif;font-style:normal;font-weight:700" x="-600" y="97.35">
    <tspan x="-600" y="97.35">Libraries/Submodules</tspan>
  </text>
  <text font-size="11.2889" style="fill: #000000;text-anchor:start;font-family:sans-serif;font-style:normal;font-weight:700" x="-600" y="-22.65">
    <tspan x="-600" y="-22.65">Simulation Outputs</tspan>
  </text>
  <text font-size="11.2889" style="fill: #000000;text-anchor:start;font-family:sans-serif;font-style:normal;font-weight:700" x="-600" y="-102.65">
    <tspan x="-600" y="-102.65">Autogenerated Code</tspan>
  </text>
  <text font-size="11.2889" style="fill: #000000;text-anchor:start;font-family:sans-serif;font-style:normal;font-weight:700" x="-600" y="57.35">
    <tspan x="-600" y="57.35">Makefile Targets</tspan>
  </text>
  <g>
    <rect style="fill: #ffffff" x="-660" y="40" width="40" height="20"/>
    <rect style="fill: none; fill-opacity:0; stroke-width: 2; stroke-dasharray: 4; stroke: #0000ff" x="-660" y="40" width="40" height="20"/>
  </g>
</svg>
