<?xml version="1.0" encoding="UTF-8" standalone="no"?>
<!DOCTYPE svg PUBLIC "-//W3C//DTD SVG 1.0//EN" "http://www.w3.org/TR/2001/PR-SVG-20010719/DTD/svg10.dtd">
<svg width="51cm" height="19cm" viewBox="-683 -877 1005 370" xmlns="http://www.w3.org/2000/svg" xmlns:xlink="http://www.w3.org/1999/xlink">
  <rect style="fill: none; fill-opacity:0; stroke-width: 4; stroke: #005596" x="-20" y="-840" width="340" height="180"/>
  <rect style="fill: none; fill-opacity:0; stroke-width: 4; stroke: #c41230" x="-680" y="-840" width="620" height="180"/>
  <g>
    <polygon style="fill: #fffaef" points="160,-580 166,-590 200,-590 208,-580 280,-580 280,-512 276,-508 160,-508 "/>
    <polygon style="fill: none; fill-opacity:0; stroke-width: 2; stroke: #000000" points="160,-580 166,-590 200,-590 208,-580 280,-580 280,-512 276,-508 160,-508 "/>
  </g>
  <text font-size="12.8" style="fill: #000000;text-anchor:middle;font-family:sans-serif;font-style:normal;font-weight:normal" x="220" y="-544.575">
    <tspan x="220" y="-544.575">./gen/vivado/</tspan>
  </text>
  <g>
    <polygon style="fill: #fffaef" points="-500,-580 -494,-590 -460,-590 -452,-580 -380,-580 -380,-512 -384,-508 -500,-508 "/>
    <polygon style="fill: none; fill-opacity:0; stroke-width: 2; stroke: #000000" points="-500,-580 -494,-590 -460,-590 -452,-580 -380,-580 -380,-512 -384,-508 -500,-508 "/>
  </g>
  <text font-size="12.8" style="fill: #000000;text-anchor:middle;font-family:sans-serif;font-style:normal;font-weight:normal" x="-440" y="-544.575">
    <tspan x="-440" y="-544.575">./gen/core/</tspan>
  </text>
  <g>
    <polygon style="fill: #fffaef" points="-100,-580 -94,-590 -60,-590 -52,-580 20,-580 20,-512 16,-508 -100,-508 "/>
    <polygon style="fill: none; fill-opacity:0; stroke-width: 2; stroke: #000000" points="-100,-580 -94,-590 -60,-590 -52,-580 20,-580 20,-512 16,-508 -100,-508 "/>
  </g>
  <text font-size="12.8" style="fill: #000000;text-anchor:middle;font-family:sans-serif;font-style:normal;font-weight:normal" x="-40" y="-544.575">
    <tspan x="-40" y="-544.575">./</tspan>
  </text>
  <g>
    <path style="fill: #ffffff" d="M 160 -780 L 280,-780 L 280,-711.429 C 256,-722.857 244,-722.857 220,-711.429 C 196,-700 184,-700 160,-711.429 L 160,-780z"/>
    <path style="fill: none; fill-opacity:0; stroke-width: 2; stroke: #000000" d="M 160 -780 L 280,-780 L 280,-711.429 C 256,-722.857 244,-722.857 220,-711.429 C 196,-700 184,-700 160,-711.429 L 160,-780"/>
    <text font-size="12.8" style="fill: #000000;text-anchor:middle;font-family:sans-serif;font-style:normal;font-weight:normal" x="220" y="-755.429">
      <tspan x="220" y="-755.429">ip_create.tcl</tspan>
      <tspan x="220" y="-739.429">ip_simulate.tcl</tspan>
    </text>
  </g>
  <g>
    <path style="fill: #ffffff" d="M -220 -780 L -100,-780 L -100,-711.429 C -124,-722.857 -136,-722.857 -160,-711.429 C -184,-700 -196,-700 -220,-711.429 L -220,-780z"/>
    <path style="fill: none; fill-opacity:0; stroke-width: 2; stroke: #000000" d="M -220 -780 L -100,-780 L -100,-711.429 C -124,-722.857 -136,-722.857 -160,-711.429 C -184,-700 -196,-700 -220,-711.429 L -220,-780"/>
    <text font-size="12.8" style="fill: #000000;text-anchor:middle;font-family:sans-serif;font-style:normal;font-weight:normal" x="-160" y="-747.429">
      <tspan x="-160" y="-747.429">.gitignore</tspan>
    </text>
  </g>
  <g>
    <path style="fill: #ffffff" d="M 20 -780 L 140,-780 L 140,-711.429 C 116,-722.857 104,-722.857 80,-711.429 C 56,-700 44,-700 20,-711.429 L 20,-780z"/>
    <path style="fill: none; fill-opacity:0; stroke-width: 2; stroke: #000000" d="M 20 -780 L 140,-780 L 140,-711.429 C 116,-722.857 104,-722.857 80,-711.429 C 56,-700 44,-700 20,-711.429 L 20,-780"/>
    <text font-size="12.8" style="fill: #000000;text-anchor:middle;font-family:sans-serif;font-style:normal;font-weight:normal" x="80" y="-747.429">
      <tspan x="80" y="-747.429">Makefile</tspan>
    </text>
  </g>
  <g>
    <polyline style="fill: none; fill-opacity:0; stroke-width: 2; stroke: #000000" points="80,-711.428 80,-640 -20,-640 -20,-609.736 "/>
    <polygon style="fill: #000000" points="-20,-602.236 -25,-612.236 -20,-609.736 -15,-612.236 "/>
    <polygon style="fill: none; fill-opacity:0; stroke-width: 2; stroke: #000000" points="-20,-602.236 -25,-612.236 -20,-609.736 -15,-612.236 "/>
  </g>
  <g>
    <polyline style="fill: none; fill-opacity:0; stroke-width: 2; stroke: #000000" points="-160,-711.428 -160,-711.428 -160,-640 -60,-640 -60,-609.736 "/>
    <polygon style="fill: #000000" points="-60,-602.236 -65,-612.236 -60,-609.736 -55,-612.236 "/>
    <polygon style="fill: none; fill-opacity:0; stroke-width: 2; stroke: #000000" points="-60,-602.236 -65,-612.236 -60,-609.736 -55,-612.236 "/>
  </g>
  <g>
    <line style="fill: none; fill-opacity:0; stroke-width: 2; stroke: #000000" x1="220" y1="-711.428" x2="220" y2="-609.736"/>
    <polygon style="fill: #000000" points="220,-602.236 215,-612.236 220,-609.736 225,-612.236 "/>
    <polygon style="fill: none; fill-opacity:0; stroke-width: 2; stroke: #000000" points="220,-602.236 215,-612.236 220,-609.736 225,-612.236 "/>
  </g>
  <g>
    <path style="fill: #ffffff" d="M -500 -780 L -380,-780 L -380,-711.429 C -404,-722.857 -416,-722.857 -440,-711.429 C -464,-700 -476,-700 -500,-711.429 L -500,-780z"/>
    <path style="fill: none; fill-opacity:0; stroke-width: 2; stroke: #000000" d="M -500 -780 L -380,-780 L -380,-711.429 C -404,-722.857 -416,-722.857 -440,-711.429 C -464,-700 -476,-700 -500,-711.429 L -500,-780"/>
    <text font-size="12.8" style="fill: #000000;text-anchor:middle;font-family:sans-serif;font-style:normal;font-weight:normal" x="-440" y="-763.429">
      <tspan x="-440" y="-763.429">params.m</tspan>
      <tspan x="-440" y="-747.429">params.py</tspan>
      <tspan x="-440" y="-731.429">streams.vhd</tspan>
    </text>
  </g>
  <g>
    <path style="fill: #ffffff" d="M -360 -780 L -240,-780 L -240,-711.429 C -264,-722.857 -276,-722.857 -300,-711.429 C -324,-700 -336,-700 -360,-711.429 L -360,-780z"/>
    <path style="fill: none; fill-opacity:0; stroke-width: 2; stroke: #000000" d="M -360 -780 L -240,-780 L -240,-711.429 C -264,-722.857 -276,-722.857 -300,-711.429 C -324,-700 -336,-700 -360,-711.429 L -360,-780"/>
    <text font-size="12.8" style="fill: #000000;text-anchor:middle;font-family:sans-serif;font-style:normal;font-weight:normal" x="-300" y="-763.429">
      <tspan x="-300" y="-763.429">axilite.vhd</tspan>
      <tspan x="-300" y="-747.429">axilite_verify.vhd</tspan>
      <tspan x="-300" y="-731.429">properties.md</tspan>
    </text>
  </g>
  <g>
    <path style="fill: #ffffff" d="M -640 -780 L -520,-780 L -520,-711.429 C -544,-722.857 -556,-722.857 -580,-711.429 C -604,-700 -616,-700 -640,-711.429 L -640,-780z"/>
    <path style="fill: none; fill-opacity:0; stroke-width: 2; stroke: #000000" d="M -640 -780 L -520,-780 L -520,-711.429 C -544,-722.857 -556,-722.857 -580,-711.429 C -604,-700 -616,-700 -640,-711.429 L -640,-780"/>
    <text font-size="12.8" style="fill: #000000;text-anchor:middle;font-family:sans-serif;font-style:normal;font-weight:normal" x="-580" y="-747.429">
      <tspan x="-580" y="-747.429">pkg.vhd</tspan>
    </text>
  </g>
  <text font-size="12.8" style="fill: #000000;text-anchor:middle;font-family:sans-serif;font-style:normal;font-weight:700" x="220" y="-799.05">
    <tspan x="220" y="-799.05">Vivado IP</tspan>
    <tspan x="220" y="-783.05">Scripts</tspan>
  </text>
  <text font-size="12.8" style="fill: #000000;text-anchor:middle;font-family:sans-serif;font-style:normal;font-weight:700" x="80" y="-799.05">
    <tspan x="80" y="-799.05">GNU Make Targets:</tspan>
    <tspan x="80" y="-783.05">all, sim, clean, clean-all</tspan>
  </text>
  <text font-size="12.8" style="fill: #000000;text-anchor:middle;font-family:sans-serif;font-style:normal;font-weight:700" x="-160" y="-799.05">
    <tspan x="-160" y="-799.05">Gitignore</tspan>
    <tspan x="-160" y="-783.05">for temp files</tspan>
  </text>
  <text font-size="12.8" style="fill: #000000;text-anchor:middle;font-family:sans-serif;font-style:normal;font-weight:700" x="-300" y="-799.05">
    <tspan x="-300" y="-799.05">Properties Source</tspan>
    <tspan x="-300" y="-783.05">and Documentation</tspan>
  </text>
  <text font-size="12.8" style="fill: #000000;text-anchor:middle;font-family:sans-serif;font-style:normal;font-weight:700" x="-440" y="-799.05">
    <tspan x="-440" y="-799.05">Simulation</tspan>
    <tspan x="-440" y="-783.05">Automation</tspan>
  </text>
  <text font-size="12.8" style="fill: #000000;text-anchor:middle;font-family:sans-serif;font-style:normal;font-weight:700" x="-580" y="-799.05">
    <tspan x="-580" y="-799.05">Support Package for</tspan>
    <tspan x="-580" y="-783.05">Properties and Ports</tspan>
  </text>
  <g>
    <line style="fill: none; fill-opacity:0; stroke-width: 2; stroke: #000000" x1="-440" y1="-711.428" x2="-440" y2="-609.736"/>
    <polygon style="fill: #000000" points="-440,-602.236 -445,-612.236 -440,-609.736 -435,-612.236 "/>
    <polygon style="fill: none; fill-opacity:0; stroke-width: 2; stroke: #000000" points="-440,-602.236 -445,-612.236 -440,-609.736 -435,-612.236 "/>
  </g>
  <g>
    <polyline style="fill: none; fill-opacity:0; stroke-width: 2; stroke: #000000" points="-580,-711.428 -580,-640 -480,-640 -480,-609.736 "/>
    <polygon style="fill: #000000" points="-480,-602.236 -485,-612.236 -480,-609.736 -475,-612.236 "/>
    <polygon style="fill: none; fill-opacity:0; stroke-width: 2; stroke: #000000" points="-480,-602.236 -485,-612.236 -480,-609.736 -475,-612.236 "/>
  </g>
  <g>
    <polyline style="fill: none; fill-opacity:0; stroke-width: 2; stroke: #000000" points="-300,-711.428 -300,-640 -400,-640 -400,-609.736 "/>
    <polygon style="fill: #000000" points="-400,-602.236 -405,-612.236 -400,-609.736 -395,-612.236 "/>
    <polygon style="fill: none; fill-opacity:0; stroke-width: 2; stroke: #000000" points="-400,-602.236 -405,-612.236 -400,-609.736 -395,-612.236 "/>
  </g>
  <text font-size="22.5778" style="fill: #c41230;text-anchor:middle;font-family:sans-serif;font-style:normal;font-weight:700" x="-370" y="-855.35">
    <tspan x="-370" y="-855.35">CORE BACKEND</tspan>
  </text>
  <text font-size="22.5778" style="fill: #005596;text-anchor:middle;font-family:sans-serif;font-style:normal;font-weight:700" x="150" y="-855.35">
    <tspan x="150" y="-855.35">VIVADO BACKEND</tspan>
  </text>
</svg>
