<?xml version="1.0" encoding="UTF-8" standalone="no"?>
<!DOCTYPE svg PUBLIC "-//W3C//DTD SVG 1.0//EN" "http://www.w3.org/TR/2001/PR-SVG-20010719/DTD/svg10.dtd">
<svg width="49cm" height="39cm" viewBox="-623 -1300 965 764" xmlns="http://www.w3.org/2000/svg" xmlns:xlink="http://www.w3.org/1999/xlink">
  <rect style="fill: none; fill-opacity:0; stroke-width: 6; stroke: #005596" x="-520" y="-740" width="740" height="200"/>
  <rect style="fill: none; fill-opacity:0; stroke-width: 6; stroke: #005596" x="-580" y="-1000" width="880" height="200"/>
  <rect style="fill: none; fill-opacity:0; stroke-width: 6; stroke: #005596" x="-380" y="-1260" width="460" height="200"/>
  <text font-size="22.5778" style="fill: #005596;text-anchor:middle;font-family:sans-serif;font-style:normal;font-weight:700" x="-140" y="-1279">
    <tspan x="-140" y="-1279">$ fins -b vivado fins.json</tspan>
  </text>
  <text font-size="22.5778" style="fill: #005596;text-anchor:middle;font-family:sans-serif;font-style:normal;font-weight:700" x="-140" y="-1018.34">
    <tspan x="-140" y="-1018.34">$ make</tspan>
  </text>
  <g>
    <rect style="fill: #ffffff" x="160" y="-960" width="100" height="120"/>
    <rect style="fill: none; fill-opacity:0; stroke-width: 4; stroke: #000000" x="160" y="-960" width="100" height="120"/>
    <text font-size="12.7998" style="fill: #000000;text-anchor:middle;font-family:sans-serif;font-style:normal;font-weight:normal" x="210" y="-936.1">
      <tspan x="210" y="-936.1">Run</tspan>
      <tspan x="210" y="-920.1">"prebuild"</tspan>
      <tspan x="210" y="-904.1">scripts with</tspan>
      <tspan x="210" y="-888.1">MATLAB,</tspan>
      <tspan x="210" y="-872.1">Octave,</tspan>
      <tspan x="210" y="-856.1">or Python</tspan>
    </text>
  </g>
  <g>
    <rect style="fill: #ffffff" x="20" y="-960" width="100.4" height="120"/>
    <rect style="fill: none; fill-opacity:0; stroke-width: 4; stroke: #c41230" x="20" y="-960" width="100.4" height="120"/>
    <text font-size="12.7998" style="fill: #c41230;text-anchor:middle;font-family:sans-serif;font-style:normal;font-weight:normal" x="70.2" y="-912.1">
      <tspan x="70.2" y="-912.1">Run TCL</tspan>
      <tspan x="70.2" y="-896.1">"prebuild"</tspan>
      <tspan x="70.2" y="-880.1">scripts</tspan>
    </text>
  </g>
  <g>
    <rect style="fill: #ffffff" x="-120" y="-960" width="100.4" height="120"/>
    <rect style="fill: none; fill-opacity:0; stroke-width: 4; stroke: #c41230" x="-120" y="-960" width="100.4" height="120"/>
    <text font-size="12.7998" style="fill: #c41230;text-anchor:middle;font-family:sans-serif;font-style:normal;font-weight:normal" x="-69.8" y="-904.1">
      <tspan x="-69.8" y="-904.1">Create and</tspan>
      <tspan x="-69.8" y="-888.1">Package IP</tspan>
    </text>
  </g>
  <g>
    <rect style="fill: #ffffff" x="-400" y="-960" width="100.4" height="120"/>
    <rect style="fill: none; fill-opacity:0; stroke-width: 4; stroke: #c41230" x="-400" y="-960" width="100.4" height="120"/>
    <text font-size="12.7998" style="fill: #c41230;text-anchor:middle;font-family:sans-serif;font-style:normal;font-weight:normal" x="-349.8" y="-912.1">
      <tspan x="-349.8" y="-912.1">Run TCL</tspan>
      <tspan x="-349.8" y="-896.1">"postbuild"</tspan>
      <tspan x="-349.8" y="-880.1">scripts</tspan>
    </text>
  </g>
  <g>
    <rect style="fill: #ffffff" x="-260" y="-960" width="100.4" height="120"/>
    <rect style="fill: none; fill-opacity:0; stroke-width: 4; stroke: #c41230" x="-260" y="-960" width="100.4" height="120"/>
    <text font-size="12.7998" style="fill: #c41230;text-anchor:middle;font-family:sans-serif;font-style:normal;font-weight:normal" x="-209.8" y="-912.1">
      <tspan x="-209.8" y="-912.1">Run</tspan>
      <tspan x="-209.8" y="-896.1">"vendor_ip"</tspan>
      <tspan x="-209.8" y="-880.1">scripts</tspan>
    </text>
  </g>
  <g>
    <rect style="fill: #ffffff" x="-540" y="-960" width="100" height="120"/>
    <rect style="fill: none; fill-opacity:0; stroke-width: 4; stroke: #000000" x="-540" y="-960" width="100" height="120"/>
    <text font-size="12.7998" style="fill: #000000;text-anchor:middle;font-family:sans-serif;font-style:normal;font-weight:normal" x="-490" y="-936.1">
      <tspan x="-490" y="-936.1">Run</tspan>
      <tspan x="-490" y="-920.1">"postbuild"</tspan>
      <tspan x="-490" y="-904.1">scripts with</tspan>
      <tspan x="-490" y="-888.1">MATLAB,</tspan>
      <tspan x="-490" y="-872.1">Octave,</tspan>
      <tspan x="-490" y="-856.1">or Python</tspan>
    </text>
  </g>
  <g>
    <rect style="fill: #ffffff" x="-480" y="-700" width="100" height="120"/>
    <rect style="fill: none; fill-opacity:0; stroke-width: 4; stroke: #000000" x="-480" y="-700" width="100" height="120"/>
    <text font-size="12.7998" style="fill: #000000;text-anchor:middle;font-family:sans-serif;font-style:normal;font-weight:normal" x="-430" y="-676.1">
      <tspan x="-430" y="-676.1">Run</tspan>
      <tspan x="-430" y="-660.1">"presim"</tspan>
      <tspan x="-430" y="-644.1">scripts with</tspan>
      <tspan x="-430" y="-628.1">MATLAB,</tspan>
      <tspan x="-430" y="-612.1">Octave,</tspan>
      <tspan x="-430" y="-596.1">or Python</tspan>
    </text>
  </g>
  <g>
    <rect style="fill: #ffffff" x="80" y="-700" width="100" height="120"/>
    <rect style="fill: none; fill-opacity:0; stroke-width: 4; stroke: #000000" x="80" y="-700" width="100" height="120"/>
    <text font-size="12.7998" style="fill: #000000;text-anchor:middle;font-family:sans-serif;font-style:normal;font-weight:normal" x="130" y="-676.1">
      <tspan x="130" y="-676.1">Run</tspan>
      <tspan x="130" y="-660.1">"postsim"</tspan>
      <tspan x="130" y="-644.1">scripts with</tspan>
      <tspan x="130" y="-628.1">MATLAB,</tspan>
      <tspan x="130" y="-612.1">Octave,</tspan>
      <tspan x="130" y="-596.1">or Python</tspan>
    </text>
  </g>
  <g>
    <rect style="fill: #ffffff" x="-340" y="-700" width="100.4" height="120"/>
    <rect style="fill: none; fill-opacity:0; stroke-width: 4; stroke: #c41230" x="-340" y="-700" width="100.4" height="120"/>
    <text font-size="12.7998" style="fill: #c41230;text-anchor:middle;font-family:sans-serif;font-style:normal;font-weight:normal" x="-289.8" y="-652.1">
      <tspan x="-289.8" y="-652.1">Run TCL</tspan>
      <tspan x="-289.8" y="-636.1">"prebuild"</tspan>
      <tspan x="-289.8" y="-620.1">scripts</tspan>
    </text>
  </g>
  <g>
    <rect style="fill: #ffffff" x="-200" y="-700" width="100.4" height="120"/>
    <rect style="fill: none; fill-opacity:0; stroke-width: 4; stroke: #c41230" x="-200" y="-700" width="100.4" height="120"/>
    <text font-size="12.7998" style="fill: #c41230;text-anchor:middle;font-family:sans-serif;font-style:normal;font-weight:normal" x="-149.8" y="-644.1">
      <tspan x="-149.8" y="-644.1">Run</tspan>
      <tspan x="-149.8" y="-628.1">Simulation</tspan>
    </text>
  </g>
  <g>
    <rect style="fill: #ffffff" x="-60" y="-700" width="100.4" height="120"/>
    <rect style="fill: none; fill-opacity:0; stroke-width: 4; stroke: #c41230" x="-60" y="-700" width="100.4" height="120"/>
    <text font-size="12.7998" style="fill: #c41230;text-anchor:middle;font-family:sans-serif;font-style:normal;font-weight:normal" x="-9.8" y="-652.1">
      <tspan x="-9.8" y="-652.1">Run TCL</tspan>
      <tspan x="-9.8" y="-636.1">"postbuild"</tspan>
      <tspan x="-9.8" y="-620.1">scripts</tspan>
    </text>
  </g>
  <g>
    <rect style="fill: #ffffff" x="-340" y="-1220" width="100.4" height="120"/>
    <rect style="fill: none; fill-opacity:0; stroke-width: 4; stroke: #000000" x="-340" y="-1220" width="100.4" height="120"/>
    <text font-size="12.7998" style="fill: #000000;text-anchor:middle;font-family:sans-serif;font-style:normal;font-weight:normal" x="-289.8" y="-1188.1">
      <tspan x="-289.8" y="-1188.1">Generate</tspan>
      <tspan x="-289.8" y="-1172.1">"core"</tspan>
      <tspan x="-289.8" y="-1156.1">backend</tspan>
      <tspan x="-289.8" y="-1140.1">templates</tspan>
      <tspan x="-289.8" y="-1124.1">with Jinja2</tspan>
    </text>
  </g>
  <g>
    <rect style="fill: #ffffff" x="-200" y="-1220" width="100.4" height="120"/>
    <rect style="fill: none; fill-opacity:0; stroke-width: 4; stroke: #000000" x="-200" y="-1220" width="100.4" height="120"/>
    <text font-size="12.7998" style="fill: #000000;text-anchor:middle;font-family:sans-serif;font-style:normal;font-weight:normal" x="-149.8" y="-1188.1">
      <tspan x="-149.8" y="-1188.1">Generate</tspan>
      <tspan x="-149.8" y="-1172.1">"vivado"</tspan>
      <tspan x="-149.8" y="-1156.1">backend</tspan>
      <tspan x="-149.8" y="-1140.1">templates</tspan>
      <tspan x="-149.8" y="-1124.1">with Jinja2</tspan>
    </text>
  </g>
  <g>
    <rect style="fill: #ffffff" x="-60" y="-1220" width="100.4" height="120"/>
    <rect style="fill: none; fill-opacity:0; stroke-width: 4; stroke: #000000" x="-60" y="-1220" width="100.4" height="120"/>
    <text font-size="12.7998" style="fill: #000000;text-anchor:middle;font-family:sans-serif;font-style:normal;font-weight:normal" x="-9.8" y="-1196.1">
      <tspan x="-9.8" y="-1196.1">Recursively</tspan>
      <tspan x="-9.8" y="-1180.1">generate</tspan>
      <tspan x="-9.8" y="-1164.1">both</tspan>
      <tspan x="-9.8" y="-1148.1">backends</tspan>
      <tspan x="-9.8" y="-1132.1">for each</tspan>
      <tspan x="-9.8" y="-1116.1">Sub-IP</tspan>
    </text>
  </g>
  <text font-size="16.9333" style="fill: #c41230;text-anchor:middle;font-family:sans-serif;font-style:normal;font-weight:700" x="-140" y="-974.125">
    <tspan x="-140" y="-974.125">VIVADO IP_CREATE.TCL</tspan>
  </text>
  <text font-size="22.5778" style="fill: #005596;text-anchor:middle;font-family:sans-serif;font-style:normal;font-weight:700" x="-140" y="-759">
    <tspan x="-140" y="-759">$ make sim</tspan>
  </text>
  <g>
    <polyline style="fill: none; fill-opacity:0; stroke-width: 4; stroke: #000000" points="40.4,-1160 340,-1160 340,-900 271.972,-900 "/>
    <polygon style="fill: #000000" points="264.472,-900 274.472,-905 271.972,-900 274.472,-895 "/>
    <polygon style="fill: none; fill-opacity:0; stroke-width: 4; stroke: #000000" points="264.472,-900 274.472,-905 271.972,-900 274.472,-895 "/>
  </g>
  <g>
    <polyline style="fill: none; fill-opacity:0; stroke-width: 4; stroke: #000000" points="-540,-900 -620,-900 -620,-640 -491.972,-640 "/>
    <polygon style="fill: #000000" points="-484.472,-640 -494.472,-635 -491.972,-640 -494.472,-645 "/>
    <polygon style="fill: none; fill-opacity:0; stroke-width: 4; stroke: #000000" points="-484.472,-640 -494.472,-635 -491.972,-640 -494.472,-645 "/>
  </g>
  <g>
    <line style="fill: none; fill-opacity:0; stroke-width: 4; stroke: #000000" x1="-237.61" y1="-1160" x2="-211.972" y2="-1160"/>
    <polygon style="fill: #000000" points="-204.472,-1160 -214.472,-1155 -211.972,-1160 -214.472,-1165 "/>
    <polygon style="fill: none; fill-opacity:0; stroke-width: 4; stroke: #000000" points="-204.472,-1160 -214.472,-1155 -211.972,-1160 -214.472,-1165 "/>
  </g>
  <g>
    <line style="fill: none; fill-opacity:0; stroke-width: 4; stroke: #000000" x1="-99.6" y1="-1160" x2="-71.9721" y2="-1160"/>
    <polygon style="fill: #000000" points="-64.4721,-1160 -74.4721,-1155 -71.9721,-1160 -74.4721,-1165 "/>
    <polygon style="fill: none; fill-opacity:0; stroke-width: 4; stroke: #000000" points="-64.4721,-1160 -74.4721,-1155 -71.9721,-1160 -74.4721,-1165 "/>
  </g>
  <g>
    <line style="fill: none; fill-opacity:0; stroke-width: 4; stroke: #000000" x1="160" y1="-900" x2="134.362" y2="-900"/>
    <polygon style="fill: #000000" points="126.862,-900 136.862,-905 134.362,-900 136.862,-895 "/>
    <polygon style="fill: none; fill-opacity:0; stroke-width: 4; stroke: #000000" points="126.862,-900 136.862,-905 134.362,-900 136.862,-895 "/>
  </g>
  <g>
    <line style="fill: none; fill-opacity:0; stroke-width: 4; stroke: #c41230" x1="20" y1="-900" x2="-7.62786" y2="-900"/>
    <polygon style="fill: #c41230" points="-15.1279,-900 -5.12786,-905 -7.62786,-900 -5.12786,-895 "/>
    <polygon style="fill: none; fill-opacity:0; stroke-width: 4; stroke: #c41230" points="-15.1279,-900 -5.12786,-905 -7.62786,-900 -5.12786,-895 "/>
  </g>
  <g>
    <line style="fill: none; fill-opacity:0; stroke-width: 4; stroke: #c41230" x1="-120" y1="-900" x2="-147.628" y2="-900"/>
    <polygon style="fill: #c41230" points="-155.128,-900 -145.128,-905 -147.628,-900 -145.128,-895 "/>
    <polygon style="fill: none; fill-opacity:0; stroke-width: 4; stroke: #c41230" points="-155.128,-900 -145.128,-905 -147.628,-900 -145.128,-895 "/>
  </g>
  <g>
    <line style="fill: none; fill-opacity:0; stroke-width: 4; stroke: #c41230" x1="-260" y1="-900" x2="-287.628" y2="-900"/>
    <polygon style="fill: #c41230" points="-295.128,-900 -285.128,-905 -287.628,-900 -285.128,-895 "/>
    <polygon style="fill: none; fill-opacity:0; stroke-width: 4; stroke: #c41230" points="-295.128,-900 -285.128,-905 -287.628,-900 -285.128,-895 "/>
  </g>
  <g>
    <line style="fill: none; fill-opacity:0; stroke-width: 4; stroke: #c41230" x1="-400" y1="-900" x2="-428.028" y2="-900"/>
    <polygon style="fill: #c41230" points="-435.528,-900 -425.528,-905 -428.028,-900 -425.528,-895 "/>
    <polygon style="fill: none; fill-opacity:0; stroke-width: 4; stroke: #c41230" points="-435.528,-900 -425.528,-905 -428.028,-900 -425.528,-895 "/>
  </g>
  <g>
    <line style="fill: none; fill-opacity:0; stroke-width: 4; stroke: #c41230" x1="-239.6" y1="-640" x2="-211.972" y2="-640"/>
    <polygon style="fill: #c41230" points="-204.472,-640 -214.472,-635 -211.972,-640 -214.472,-645 "/>
    <polygon style="fill: none; fill-opacity:0; stroke-width: 4; stroke: #c41230" points="-204.472,-640 -214.472,-635 -211.972,-640 -214.472,-645 "/>
  </g>
  <g>
    <line style="fill: none; fill-opacity:0; stroke-width: 4; stroke: #c41230" x1="-99.6" y1="-640" x2="-71.9721" y2="-640"/>
    <polygon style="fill: #c41230" points="-64.4721,-640 -74.4721,-635 -71.9721,-640 -74.4721,-645 "/>
    <polygon style="fill: none; fill-opacity:0; stroke-width: 4; stroke: #c41230" points="-64.4721,-640 -74.4721,-635 -71.9721,-640 -74.4721,-645 "/>
  </g>
  <g>
    <line style="fill: none; fill-opacity:0; stroke-width: 4; stroke: #000000" x1="-380" y1="-640" x2="-351.972" y2="-640"/>
    <polygon style="fill: #000000" points="-344.472,-640 -354.472,-635 -351.972,-640 -354.472,-645 "/>
    <polygon style="fill: none; fill-opacity:0; stroke-width: 4; stroke: #000000" points="-344.472,-640 -354.472,-635 -351.972,-640 -354.472,-645 "/>
  </g>
  <g>
    <line style="fill: none; fill-opacity:0; stroke-width: 4; stroke: #c41230" x1="40.4" y1="-640" x2="68.0279" y2="-640"/>
    <polygon style="fill: #c41230" points="75.5279,-640 65.5279,-635 68.0279,-640 65.5279,-645 "/>
    <polygon style="fill: none; fill-opacity:0; stroke-width: 4; stroke: #c41230" points="75.5279,-640 65.5279,-635 68.0279,-640 65.5279,-645 "/>
  </g>
  <text font-size="16.9333" style="fill: #c41230;text-anchor:middle;font-family:sans-serif;font-style:normal;font-weight:700" x="-140" y="-714.125">
    <tspan x="-140" y="-714.125">VIVADO IP_SIMULATE.TCL</tspan>
  </text>
</svg>
