<?xml version="1.0" encoding="UTF-8" standalone="no"?>
<!DOCTYPE svg PUBLIC "-//W3C//DTD SVG 1.0//EN" "http://www.w3.org/TR/2001/PR-SVG-20010719/DTD/svg10.dtd">
<svg width="41cm" height="26cm" viewBox="-724 -1464 807 507" xmlns="http://www.w3.org/2000/svg" xmlns:xlink="http://www.w3.org/1999/xlink">
  <rect style="fill: none; fill-opacity:0; stroke-width: 6; stroke: #000000" x="-720" y="-1460" width="800" height="500"/>
  <rect style="fill: none; fill-opacity:0; stroke-width: 6; stroke: #005596" x="-480" y="-1400" width="520" height="400"/>
  <g>
    <rect style="fill: #ffffff" x="-400" y="-1160" width="120" height="120"/>
    <rect style="fill: none; fill-opacity:0; stroke-width: 4; stroke: #005596" x="-400" y="-1160" width="120" height="120"/>
    <text font-size="16.9333" style="fill: #005596;text-anchor:middle;font-family:sans-serif;font-style:normal;font-weight:700" x="-340" y="-1094.83">
      <tspan x="-340" y="-1094.83">AXILITE</tspan>
    </text>
  </g>
  <text font-size="22.5778" style="fill: #005596;text-anchor:middle;font-family:sans-serif;font-style:normal;font-weight:700" x="-220" y="-1372.17">
    <tspan x="-220" y="-1372.17">TOP</tspan>
  </text>
  <g>
    <rect style="fill: #ffffff" x="-400" y="-1300" width="120" height="120"/>
    <rect style="fill: none; fill-opacity:0; stroke-width: 4; stroke: #005596" x="-400" y="-1300" width="120" height="120"/>
    <text font-size="16.9333" style="fill: #005596;text-anchor:middle;font-family:sans-serif;font-style:normal;font-weight:700" x="-340" y="-1234.83">
      <tspan x="-340" y="-1234.83">AXIS</tspan>
    </text>
  </g>
  <g>
    <line style="fill: none; fill-opacity:0; stroke-width: 4; stroke: #000000" x1="-280" y1="-1140" x2="-131.972" y2="-1140"/>
    <polygon style="fill: #000000" points="-124.472,-1140 -134.472,-1135 -131.972,-1140 -134.472,-1145 "/>
    <polygon style="fill: none; fill-opacity:0; stroke-width: 4; stroke: #000000" points="-124.472,-1140 -134.472,-1135 -131.972,-1140 -134.472,-1145 "/>
  </g>
  <g>
    <rect style="fill: #ffffff" x="-247.7" y="-1148.22" width="95.4" height="16.45"/>
    <text font-size="14.1111" style="fill: #000000;text-anchor:middle;font-family:sans-serif;font-style:normal;font-weight:normal" x="-200" y="-1135.12">
      <tspan x="-200" y="-1135.12">props_control</tspan>
    </text>
  </g>
  <g>
    <line style="fill: none; fill-opacity:0; stroke-width: 4; stroke: #000000" x1="-268.028" y1="-1060" x2="-120" y2="-1060"/>
    <polygon style="fill: #000000" points="-275.528,-1060 -265.528,-1065 -268.028,-1060 -265.528,-1055 "/>
    <polygon style="fill: none; fill-opacity:0; stroke-width: 4; stroke: #000000" points="-275.528,-1060 -265.528,-1065 -268.028,-1060 -265.528,-1055 "/>
  </g>
  <g>
    <rect style="fill: #ffffff" x="-244.925" y="-1068.22" width="89.85" height="16.45"/>
    <text font-size="14.1111" style="fill: #000000;text-anchor:middle;font-family:sans-serif;font-style:normal;font-weight:normal" x="-200" y="-1055.12">
      <tspan x="-200" y="-1055.12">props_status</tspan>
    </text>
  </g>
  <g>
    <line style="fill: none; fill-opacity:0; stroke-width: 4; stroke: #000000" x1="-280" y1="-1280" x2="-131.972" y2="-1280"/>
    <polygon style="fill: #000000" points="-124.472,-1280 -134.472,-1275 -131.972,-1280 -134.472,-1285 "/>
    <polygon style="fill: none; fill-opacity:0; stroke-width: 4; stroke: #000000" points="-124.472,-1280 -134.472,-1275 -131.972,-1280 -134.472,-1285 "/>
  </g>
  <g>
    <rect style="fill: #ffffff" x="-228.1" y="-1288.22" width="56.2" height="16.45"/>
    <text font-size="14.1111" style="fill: #000000;text-anchor:middle;font-family:sans-serif;font-style:normal;font-weight:normal" x="-200" y="-1275.12">
      <tspan x="-200" y="-1275.12">ports_in</tspan>
    </text>
  </g>
  <g>
    <line style="fill: none; fill-opacity:0; stroke-width: 4; stroke: #000000" x1="-268.028" y1="-1200" x2="-120" y2="-1200"/>
    <polygon style="fill: #000000" points="-275.528,-1200 -265.528,-1205 -268.028,-1200 -265.528,-1195 "/>
    <polygon style="fill: none; fill-opacity:0; stroke-width: 4; stroke: #000000" points="-275.528,-1200 -265.528,-1205 -268.028,-1200 -265.528,-1195 "/>
  </g>
  <g>
    <rect style="fill: #ffffff" x="-233.25" y="-1208.22" width="66.5" height="16.45"/>
    <text font-size="14.1111" style="fill: #000000;text-anchor:middle;font-family:sans-serif;font-style:normal;font-weight:normal" x="-200" y="-1195.12">
      <tspan x="-200" y="-1195.12">ports_out</tspan>
    </text>
  </g>
  <g>
    <line style="fill: none; fill-opacity:0; stroke-width: 4; stroke: #000000" x1="-411.972" y1="-1100" x2="-548.028" y2="-1100"/>
    <polygon style="fill: #000000" points="-404.472,-1100 -414.472,-1095 -411.972,-1100 -414.472,-1105 "/>
    <polygon style="fill: none; fill-opacity:0; stroke-width: 4; stroke: #000000" points="-404.472,-1100 -414.472,-1095 -411.972,-1100 -414.472,-1105 "/>
    <polygon style="fill: #000000" points="-555.528,-1100 -545.528,-1105 -548.028,-1100 -545.528,-1095 "/>
    <polygon style="fill: none; fill-opacity:0; stroke-width: 4; stroke: #000000" points="-555.528,-1100 -545.528,-1105 -548.028,-1100 -545.528,-1095 "/>
  </g>
  <g>
    <line style="fill: none; fill-opacity:0; stroke-width: 4; stroke: #000000" x1="-400" y1="-1280" x2="-548.028" y2="-1280"/>
    <polygon style="fill: #000000" points="-555.528,-1280 -545.528,-1285 -548.028,-1280 -545.528,-1275 "/>
    <polygon style="fill: none; fill-opacity:0; stroke-width: 4; stroke: #000000" points="-555.528,-1280 -545.528,-1285 -548.028,-1280 -545.528,-1275 "/>
  </g>
  <g>
    <line style="fill: none; fill-opacity:0; stroke-width: 4; stroke: #000000" x1="-400" y1="-1260" x2="-548.028" y2="-1260"/>
    <polygon style="fill: #000000" points="-555.528,-1260 -545.528,-1265 -548.028,-1260 -545.528,-1255 "/>
    <polygon style="fill: none; fill-opacity:0; stroke-width: 4; stroke: #000000" points="-555.528,-1260 -545.528,-1265 -548.028,-1260 -545.528,-1255 "/>
  </g>
  <g>
    <line style="fill: none; fill-opacity:0; stroke-width: 4; stroke: #000000" x1="-411.972" y1="-1220" x2="-560" y2="-1220"/>
    <polygon style="fill: #000000" points="-404.472,-1220 -414.472,-1215 -411.972,-1220 -414.472,-1225 "/>
    <polygon style="fill: none; fill-opacity:0; stroke-width: 4; stroke: #000000" points="-404.472,-1220 -414.472,-1215 -411.972,-1220 -414.472,-1225 "/>
  </g>
  <g>
    <line style="fill: none; fill-opacity:0; stroke-width: 4; stroke: #000000" x1="-411.972" y1="-1200" x2="-560" y2="-1200"/>
    <polygon style="fill: #000000" points="-404.472,-1200 -414.472,-1195 -411.972,-1200 -414.472,-1205 "/>
    <polygon style="fill: none; fill-opacity:0; stroke-width: 4; stroke: #000000" points="-404.472,-1200 -414.472,-1195 -411.972,-1200 -414.472,-1205 "/>
  </g>
  <g>
    <rect style="fill: #ffffff" x="-680" y="-1300" width="120" height="120"/>
    <rect style="fill: none; fill-opacity:0; stroke-width: 4; stroke: #000000" x="-680" y="-1300" width="120" height="120"/>
    <text font-size="16.9333" style="fill: #000000;text-anchor:middle;font-family:sans-serif;font-style:normal;font-weight:700" x="-620" y="-1245.42">
      <tspan x="-620" y="-1245.42">AXIS</tspan>
      <tspan x="-620" y="-1224.25">VERIFY</tspan>
    </text>
  </g>
  <g>
    <rect style="fill: #ffffff" x="-680" y="-1160" width="120" height="120"/>
    <rect style="fill: none; fill-opacity:0; stroke-width: 4; stroke: #000000" x="-680" y="-1160" width="120" height="120"/>
    <text font-size="16.9333" style="fill: #000000;text-anchor:middle;font-family:sans-serif;font-style:normal;font-weight:700" x="-620" y="-1105.42">
      <tspan x="-620" y="-1105.42">AXILITE</tspan>
      <tspan x="-620" y="-1084.25">VERIFY</tspan>
    </text>
  </g>
  <g>
    <rect style="fill: #ffffff" x="-400" y="-1360" width="400" height="45.1667"/>
    <rect style="fill: none; fill-opacity:0; stroke-width: 4; stroke-dasharray: 4; stroke: #005596" x="-400" y="-1360" width="400" height="45.1667"/>
    <text font-size="16.9333" style="fill: #005596;text-anchor:middle;font-family:sans-serif;font-style:normal;font-weight:700" x="-200" y="-1332.25">
      <tspan x="-200" y="-1332.25">PACKAGE</tspan>
    </text>
  </g>
  <text font-size="22.5778" style="fill: #000000;text-anchor:middle;font-family:sans-serif;font-style:normal;font-weight:700" x="-320" y="-1432.17">
    <tspan x="-320" y="-1432.17">TOP TESTBENCH</tspan>
  </text>
  <g>
    <rect style="fill: #ffffff" x="-120" y="-1300" width="120" height="260"/>
    <rect style="fill: none; fill-opacity:0; stroke-width: 4; stroke: #c41230" x="-120" y="-1300" width="120" height="260"/>
    <text font-size="16.9333" style="fill: #c41230;text-anchor:middle;font-family:sans-serif;font-style:normal;font-weight:700" x="-60" y="-1175.42">
      <tspan x="-60" y="-1175.42">USER</tspan>
      <tspan x="-60" y="-1154.25">CORE</tspan>
    </text>
  </g>
</svg>
