<?xml version="1.0" encoding="UTF-8" standalone="no"?>
<!DOCTYPE svg PUBLIC "-//W3C//DTD SVG 1.0//EN" "http://www.w3.org/TR/2001/PR-SVG-20010719/DTD/svg10.dtd">
<svg width="41cm" height="26cm" viewBox="-764 -1444 807 517" xmlns="http://www.w3.org/2000/svg" xmlns:xlink="http://www.w3.org/1999/xlink">
  <g>
    <rect style="fill: none; fill-opacity:0; stroke-width: 6; stroke: #7f7f7f" x="-760" y="-1100" width="240" height="170"/>
    <text font-size="14.1111" style="fill: #7f7f7f;text-anchor:middle;font-family:sans-serif;font-style:normal;font-weight:700" x="-640" y="-1010.72">
      <tspan x="-640" y="-1010.72"></tspan>
    </text>
  </g>
  <rect style="fill: none; fill-opacity:0; stroke-width: 6; stroke: #005596" x="-440" y="-1440" width="480" height="400"/>
  <g>
    <rect style="fill: #ffffff" x="-200" y="-1140" width="200" height="60"/>
    <rect style="fill: none; fill-opacity:0; stroke-width: 4; stroke: #005596" x="-200" y="-1140" width="200" height="60"/>
    <text font-size="16.9333" style="fill: #005596;text-anchor:middle;font-family:sans-serif;font-style:normal;font-weight:700" x="-100" y="-1104.83">
      <tspan x="-100" y="-1104.83">AXILITE</tspan>
    </text>
  </g>
  <text font-size="22.5778" style="fill: #005596;text-anchor:middle;font-family:sans-serif;font-style:normal;font-weight:700" x="-200" y="-1412.17">
    <tspan x="-200" y="-1412.17">WRAPPER</tspan>
  </text>
  <g>
    <rect style="fill: #ffffff" x="-400" y="-1380" width="80" height="160"/>
    <rect style="fill: none; fill-opacity:0; stroke-width: 4; stroke: #005596" x="-400" y="-1380" width="80" height="160"/>
    <text font-size="16.9333" style="fill: #005596;text-anchor:middle;font-family:sans-serif;font-style:normal;font-weight:700" x="-360" y="-1294.83">
      <tspan x="-360" y="-1294.83">AXIS</tspan>
    </text>
  </g>
  <g>
    <rect style="fill: #ffffff" x="-200" y="-1380" width="200" height="160"/>
    <rect style="fill: none; fill-opacity:0; stroke-width: 4; stroke: #c41230" x="-200" y="-1380" width="200" height="160"/>
    <text font-size="16.9333" style="fill: #c41230;text-anchor:middle;font-family:sans-serif;font-style:normal;font-weight:700" x="-100" y="-1294.83">
      <tspan x="-100" y="-1294.83">USER CODE</tspan>
    </text>
  </g>
  <g>
    <line style="fill: none; fill-opacity:0; stroke-width: 4; stroke: #000000" x1="-160" y1="-1140" x2="-160" y2="-1208.03"/>
    <polygon style="fill: #000000" points="-160,-1215.53 -155,-1205.53 -160,-1208.03 -165,-1205.53 "/>
    <polygon style="fill: none; fill-opacity:0; stroke-width: 4; stroke: #000000" points="-160,-1215.53 -155,-1205.53 -160,-1208.03 -165,-1205.53 "/>
  </g>
  <g>
    <rect style="fill: #ffffff" x="-207.7" y="-1188.22" width="95.4" height="16.45"/>
    <text font-size="14.1111" style="fill: #000000;text-anchor:middle;font-family:sans-serif;font-style:normal;font-weight:normal" x="-160" y="-1175.12">
      <tspan x="-160" y="-1175.12">props_control</tspan>
    </text>
  </g>
  <g>
    <line style="fill: none; fill-opacity:0; stroke-width: 4; stroke: #000000" x1="-40" y1="-1151.97" x2="-40" y2="-1220"/>
    <polygon style="fill: #000000" points="-40,-1144.47 -45,-1154.47 -40,-1151.97 -35,-1154.47 "/>
    <polygon style="fill: none; fill-opacity:0; stroke-width: 4; stroke: #000000" points="-40,-1144.47 -45,-1154.47 -40,-1151.97 -35,-1154.47 "/>
  </g>
  <g>
    <rect style="fill: #ffffff" x="-84.925" y="-1188.22" width="89.85" height="16.45"/>
    <text font-size="14.1111" style="fill: #000000;text-anchor:middle;font-family:sans-serif;font-style:normal;font-weight:normal" x="-40" y="-1175.12">
      <tspan x="-40" y="-1175.12">props_status</tspan>
    </text>
  </g>
  <g>
    <line style="fill: none; fill-opacity:0; stroke-width: 4; stroke: #000000" x1="-320" y1="-1340" x2="-211.972" y2="-1340"/>
    <polygon style="fill: #000000" points="-204.472,-1340 -214.472,-1335 -211.972,-1340 -214.472,-1345 "/>
    <polygon style="fill: none; fill-opacity:0; stroke-width: 4; stroke: #000000" points="-204.472,-1340 -214.472,-1335 -211.972,-1340 -214.472,-1345 "/>
  </g>
  <g>
    <rect style="fill: #ffffff" x="-288.1" y="-1348.22" width="56.2" height="16.45"/>
    <text font-size="14.1111" style="fill: #000000;text-anchor:middle;font-family:sans-serif;font-style:normal;font-weight:normal" x="-260" y="-1335.12">
      <tspan x="-260" y="-1335.12">ports_in</tspan>
    </text>
  </g>
  <g>
    <line style="fill: none; fill-opacity:0; stroke-width: 4; stroke: #000000" x1="-308.028" y1="-1260" x2="-200" y2="-1260"/>
    <polygon style="fill: #000000" points="-315.528,-1260 -305.528,-1265 -308.028,-1260 -305.528,-1255 "/>
    <polygon style="fill: none; fill-opacity:0; stroke-width: 4; stroke: #000000" points="-315.528,-1260 -305.528,-1265 -308.028,-1260 -305.528,-1255 "/>
  </g>
  <g>
    <rect style="fill: #ffffff" x="-293.25" y="-1268.22" width="66.5" height="16.45"/>
    <text font-size="14.1111" style="fill: #000000;text-anchor:middle;font-family:sans-serif;font-style:normal;font-weight:normal" x="-260" y="-1255.12">
      <tspan x="-260" y="-1255.12">ports_out</tspan>
    </text>
  </g>
  <g>
    <line style="fill: none; fill-opacity:0; stroke-width: 4; stroke: #000000" x1="-100" y1="-1068.03" x2="-100" y2="-1011.97"/>
    <polygon style="fill: #000000" points="-100,-1075.53 -95,-1065.53 -100,-1068.03 -105,-1065.53 "/>
    <polygon style="fill: none; fill-opacity:0; stroke-width: 4; stroke: #000000" points="-100,-1075.53 -95,-1065.53 -100,-1068.03 -105,-1065.53 "/>
    <polygon style="fill: #000000" points="-100,-1004.47 -105,-1014.47 -100,-1011.97 -95,-1014.47 "/>
    <polygon style="fill: none; fill-opacity:0; stroke-width: 4; stroke: #000000" points="-100,-1004.47 -105,-1014.47 -100,-1011.97 -95,-1014.47 "/>
  </g>
  <g>
    <line style="fill: none; fill-opacity:0; stroke-width: 4; stroke: #000000" x1="-400" y1="-1340" x2="-468.028" y2="-1340"/>
    <polygon style="fill: #000000" points="-475.528,-1340 -465.528,-1345 -468.028,-1340 -465.528,-1335 "/>
    <polygon style="fill: none; fill-opacity:0; stroke-width: 4; stroke: #000000" points="-475.528,-1340 -465.528,-1345 -468.028,-1340 -465.528,-1335 "/>
  </g>
  <g>
    <line style="fill: none; fill-opacity:0; stroke-width: 4; stroke: #000000" x1="-400" y1="-1320" x2="-468.028" y2="-1320"/>
    <polygon style="fill: #000000" points="-475.528,-1320 -465.528,-1325 -468.028,-1320 -465.528,-1315 "/>
    <polygon style="fill: none; fill-opacity:0; stroke-width: 4; stroke: #000000" points="-475.528,-1320 -465.528,-1325 -468.028,-1320 -465.528,-1315 "/>
  </g>
  <g>
    <line style="fill: none; fill-opacity:0; stroke-width: 4; stroke: #000000" x1="-411.972" y1="-1280" x2="-480" y2="-1280"/>
    <polygon style="fill: #000000" points="-404.472,-1280 -414.472,-1275 -411.972,-1280 -414.472,-1285 "/>
    <polygon style="fill: none; fill-opacity:0; stroke-width: 4; stroke: #000000" points="-404.472,-1280 -414.472,-1275 -411.972,-1280 -414.472,-1285 "/>
  </g>
  <g>
    <line style="fill: none; fill-opacity:0; stroke-width: 4; stroke: #000000" x1="-411.972" y1="-1260" x2="-480" y2="-1260"/>
    <polygon style="fill: #000000" points="-404.472,-1260 -414.472,-1255 -411.972,-1260 -414.472,-1265 "/>
    <polygon style="fill: none; fill-opacity:0; stroke-width: 4; stroke: #000000" points="-404.472,-1260 -414.472,-1255 -411.972,-1260 -414.472,-1265 "/>
  </g>
  <g>
    <rect style="fill: #ffffff" x="-600" y="-1380" width="120" height="160"/>
    <rect style="fill: none; fill-opacity:0; stroke-width: 4; stroke: #000000" x="-600" y="-1380" width="120" height="160"/>
    <text font-size="16.9333" style="fill: #000000;text-anchor:middle;font-family:sans-serif;font-style:normal;font-weight:700" x="-540" y="-1305.42">
      <tspan x="-540" y="-1305.42">AXIS</tspan>
      <tspan x="-540" y="-1284.25">VERIFY</tspan>
    </text>
  </g>
  <g>
    <rect style="fill: #ffffff" x="-200" y="-1000" width="200" height="60"/>
    <rect style="fill: none; fill-opacity:0; stroke-width: 4; stroke: #000000" x="-200" y="-1000" width="200" height="60"/>
    <text font-size="16.9333" style="fill: #000000;text-anchor:middle;font-family:sans-serif;font-style:normal;font-weight:700" x="-100" y="-964.833">
      <tspan x="-100" y="-964.833">AXILITE VERIFY</tspan>
    </text>
  </g>
  <g>
    <rect style="fill: #ffffff" x="-400" y="-1140" width="160" height="60"/>
    <rect style="fill: none; fill-opacity:0; stroke-width: 4; stroke-dasharray: 4; stroke: #005596" x="-400" y="-1140" width="160" height="60"/>
    <text font-size="16.9333" style="fill: #005596;text-anchor:middle;font-family:sans-serif;font-style:normal;font-weight:700" x="-320" y="-1104.83">
      <tspan x="-320" y="-1104.83">PACKAGE</tspan>
    </text>
  </g>
  <g>
    <rect style="fill: #ffffff" x="-740" y="-1060" width="200" height="30"/>
    <rect style="fill: none; fill-opacity:0; stroke-width: 2; stroke: #005596" x="-740" y="-1060" width="200" height="30"/>
    <text font-size="14.1111" style="fill: #005596;text-anchor:middle;font-family:sans-serif;font-style:normal;font-weight:700" x="-640" y="-1040.72">
      <tspan x="-640" y="-1040.72">SOURCE CODE</tspan>
    </text>
  </g>
  <g>
    <rect style="fill: #ffffff" x="-740" y="-1020" width="200" height="30"/>
    <rect style="fill: none; fill-opacity:0; stroke-width: 2; stroke: #000000" x="-740" y="-1020" width="200" height="30"/>
    <text font-size="14.1111" style="fill: #000000;text-anchor:middle;font-family:sans-serif;font-style:normal;font-weight:700" x="-640" y="-1000.72">
      <tspan x="-640" y="-1000.72">SIMULATION CODE</tspan>
    </text>
  </g>
  <text font-size="19.7556" style="fill: #7f7f7f;text-anchor:middle;font-family:sans-serif;font-style:normal;font-weight:700" x="-640" y="-1073.18">
    <tspan x="-640" y="-1073.18">KEY</tspan>
  </text>
  <g>
    <rect style="fill: #ffffff" x="-740" y="-980" width="200" height="30"/>
    <rect style="fill: none; fill-opacity:0; stroke-width: 2; stroke: #c41230" x="-740" y="-980" width="200" height="30"/>
    <text font-size="14.1111" style="fill: #c41230;text-anchor:middle;font-family:sans-serif;font-style:normal;font-weight:700" x="-640" y="-960.719">
      <tspan x="-640" y="-960.719">USER CODE</tspan>
    </text>
  </g>
</svg>
