<?xml version="1.0" encoding="UTF-8" standalone="no"?>
<!DOCTYPE svg PUBLIC "-//W3C//DTD SVG 1.0//EN" "http://www.w3.org/TR/2001/PR-SVG-20010719/DTD/svg10.dtd">
<svg width="59cm" height="39cm" viewBox="699 10 1164 772" xmlns="http://www.w3.org/2000/svg" xmlns:xlink="http://www.w3.org/1999/xlink">
  <g>
    <line style="fill: none; fill-opacity:0; stroke-width: 2; stroke: #000000" x1="709.736" y1="460" x2="1140" y2="460"/>
    <polygon style="fill: #000000" points="702.236,460 712.236,455 709.736,460 712.236,465 "/>
    <polygon style="fill: none; fill-opacity:0; stroke-width: 2; stroke: #000000" points="702.236,460 712.236,455 709.736,460 712.236,465 "/>
  </g>
  <g>
    <line style="fill: none; fill-opacity:0; stroke-width: 2; stroke: #000000" x1="700" y1="300" x2="1130.26" y2="300"/>
    <polygon style="fill: #000000" points="1137.76,300 1127.76,305 1130.26,300 1127.76,295 "/>
    <polygon style="fill: none; fill-opacity:0; stroke-width: 2; stroke: #000000" points="1137.76,300 1127.76,305 1130.26,300 1127.76,295 "/>
  </g>
  <text font-size="12.8" style="fill: #005596;text-anchor:end;font-family:sans-serif;font-style:normal;font-weight:normal" x="1120" y="296.202">
    <tspan x="1120" y="296.202">ports_in.adc.valid</tspan>
  </text>
  <text font-size="12.8" style="fill: #000000;text-anchor:start;font-family:sans-serif;font-style:normal;font-weight:normal" x="600" y="380">
    <tspan x="600" y="380"></tspan>
  </text>
  <g>
    <line style="fill: none; fill-opacity:0; stroke-width: 2; stroke: #000000" x1="700" y1="320" x2="1130.26" y2="320"/>
    <polygon style="fill: #000000" points="1137.76,320 1127.76,325 1130.26,320 1127.76,315 "/>
    <polygon style="fill: none; fill-opacity:0; stroke-width: 2; stroke: #000000" points="1137.76,320 1127.76,325 1130.26,320 1127.76,315 "/>
  </g>
  <text font-size="12.8" style="fill: #005596;text-anchor:end;font-family:sans-serif;font-style:normal;font-weight:normal" x="1120" y="316.202">
    <tspan x="1120" y="316.202">ports_in.adc.last</tspan>
  </text>
  <g>
    <line style="fill: none; fill-opacity:0; stroke-width: 2; stroke: #000000" x1="700" y1="360" x2="1130.26" y2="360"/>
    <polygon style="fill: #000000" points="1137.76,360 1127.76,365 1130.26,360 1127.76,355 "/>
    <polygon style="fill: none; fill-opacity:0; stroke-width: 2; stroke: #000000" points="1137.76,360 1127.76,365 1130.26,360 1127.76,355 "/>
  </g>
  <text font-size="12.8" style="fill: #005596;text-anchor:end;font-family:sans-serif;font-style:normal;font-weight:normal" x="1120" y="356.202">
    <tspan x="1120" y="356.202">ports_in.adc.data</tspan>
  </text>
  <g>
    <line style="fill: none; fill-opacity:0; stroke-width: 2; stroke: #000000" x1="700" y1="420" x2="1130.26" y2="420"/>
    <polygon style="fill: #000000" points="1137.76,420 1127.76,425 1130.26,420 1127.76,415 "/>
    <polygon style="fill: none; fill-opacity:0; stroke-width: 2; stroke: #000000" points="1137.76,420 1127.76,425 1130.26,420 1127.76,415 "/>
  </g>
  <text font-size="12.8" style="fill: #005596;text-anchor:end;font-family:sans-serif;font-style:normal;font-weight:normal" x="1120" y="416.202">
    <tspan x="1120" y="416.202">ports_in.adc.metadata</tspan>
  </text>
  <text font-size="12.8" style="fill: #c41230;text-anchor:end;font-family:sans-serif;font-style:normal;font-weight:normal" x="1120" y="456.202">
    <tspan x="1120" y="456.202">ports_out.adc.ready</tspan>
  </text>
  <g>
    <line style="fill: none; fill-opacity:0; stroke-width: 2; stroke: #000000" x1="1260" y1="300" x2="1850.26" y2="300"/>
    <polygon style="fill: #000000" points="1857.76,300 1847.76,305 1850.26,300 1847.76,295 "/>
    <polygon style="fill: none; fill-opacity:0; stroke-width: 2; stroke: #000000" points="1857.76,300 1847.76,305 1850.26,300 1847.76,295 "/>
  </g>
  <text font-size="12.8" style="fill: #c41230;text-anchor:start;font-family:sans-serif;font-style:normal;font-weight:normal" x="1280" y="296.202">
    <tspan x="1280" y="296.202">ports_out.bands(0).valid</tspan>
  </text>
  <g>
    <line style="fill: none; fill-opacity:0; stroke-width: 2; stroke: #000000" x1="1260" y1="320" x2="1850.26" y2="320"/>
    <polygon style="fill: #000000" points="1857.76,320 1847.76,325 1850.26,320 1847.76,315 "/>
    <polygon style="fill: none; fill-opacity:0; stroke-width: 2; stroke: #000000" points="1857.76,320 1847.76,325 1850.26,320 1847.76,315 "/>
  </g>
  <text font-size="12.8" style="fill: #c41230;text-anchor:start;font-family:sans-serif;font-style:normal;font-weight:normal" x="1280" y="316.202">
    <tspan x="1280" y="316.202">ports_out.bands(0).last</tspan>
  </text>
  <text font-size="12.8" style="fill: #c41230;text-anchor:start;font-family:sans-serif;font-style:normal;font-weight:normal" x="1280" y="356.202">
    <tspan x="1280" y="356.202">ports_out.bands(0).data</tspan>
  </text>
  <text font-size="12.8" style="fill: #c41230;text-anchor:start;font-family:sans-serif;font-style:normal;font-weight:normal" x="1280" y="416.202">
    <tspan x="1280" y="416.202">ports_out.bands(0).metadata</tspan>
  </text>
  <text font-size="12.8" style="fill: #005596;text-anchor:start;font-family:sans-serif;font-style:normal;font-weight:normal" x="1280" y="456.202">
    <tspan x="1280" y="456.202">ports_in.bands(0).ready</tspan>
  </text>
  <text font-size="16.9333" style="fill: #7f7f7f;text-anchor:start;font-family:sans-serif;font-style:normal;font-weight:700" x="760" y="26.6667">
    <tspan x="760" y="26.6667">{</tspan>
    <tspan x="760" y="47.8333">    "name":"adc",</tspan>
    <tspan x="760" y="69">    "direction":"in",</tspan>
    <tspan x="760" y="90.1667">    "supports_backpressure":true,</tspan>
    <tspan x="760" y="111.333">    "num_instances":1,</tspan>
    <tspan x="760" y="132.5">    "use_pipeline":false,</tspan>
    <tspan x="760" y="153.667">    "data":{...},</tspan>
    <tspan x="760" y="174.833">    "metadata":[...]</tspan>
    <tspan x="760" y="196">}</tspan>
  </text>
  <text font-size="12.8" style="fill: #000000;text-anchor:start;font-family:sans-serif;font-style:normal;font-weight:normal" x="720" y="296.95">
    <tspan x="720" y="296.95">s_axis_adc_tvalid</tspan>
  </text>
  <text font-size="12.8" style="fill: #000000;text-anchor:start;font-family:sans-serif;font-style:normal;font-weight:normal" x="720" y="316.95">
    <tspan x="720" y="316.95">s_axis_adc_tlast</tspan>
  </text>
  <text font-size="12.8" style="fill: #000000;text-anchor:start;font-family:sans-serif;font-style:normal;font-weight:normal" x="720" y="356.95">
    <tspan x="720" y="356.95">s_axis_adc_tdata</tspan>
  </text>
  <text font-size="12.8" style="fill: #000000;text-anchor:start;font-family:sans-serif;font-style:normal;font-weight:normal" x="720" y="416.95">
    <tspan x="720" y="416.95">s_axis_adc_tuser</tspan>
  </text>
  <text font-size="12.8" style="fill: #000000;text-anchor:start;font-family:sans-serif;font-style:normal;font-weight:normal" x="720" y="456.95">
    <tspan x="720" y="456.95">s_axis_adc_tready</tspan>
  </text>
  <g>
    <polygon style="fill: #ffffff" points="874.559,340 960,340 945.441,380 860,380 "/>
    <polygon style="fill: none; fill-opacity:0; stroke-width: 2; stroke: #000000" points="874.559,340 960,340 945.441,380 860,380 "/>
    <text font-size="12.8" style="fill: #000000;text-anchor:middle;font-family:sans-serif;font-style:normal;font-weight:normal" x="910" y="363.9">
      <tspan x="910" y="363.9">unserialize</tspan>
    </text>
  </g>
  <g>
    <polygon style="fill: #ffffff" points="874.559,400 960,400 945.441,440 860,440 "/>
    <polygon style="fill: none; fill-opacity:0; stroke-width: 2; stroke: #000000" points="874.559,400 960,400 945.441,440 860,440 "/>
    <text font-size="12.8" style="fill: #000000;text-anchor:middle;font-family:sans-serif;font-style:normal;font-weight:normal" x="910" y="423.9">
      <tspan x="910" y="423.9">unserialize</tspan>
    </text>
  </g>
  <text font-size="12.8" style="fill: #000000;text-anchor:end;font-family:sans-serif;font-style:normal;font-weight:normal" x="1840" y="296.202">
    <tspan x="1840" y="296.202">m00_axis_bands_tvalid</tspan>
  </text>
  <text font-size="12.8" style="fill: #000000;text-anchor:end;font-family:sans-serif;font-style:normal;font-weight:normal" x="1840" y="316.202">
    <tspan x="1840" y="316.202">m00_axis_bands_tlast</tspan>
  </text>
  <g>
    <line style="fill: none; fill-opacity:0; stroke-width: 2; stroke: #000000" x1="1260" y1="360" x2="1850.26" y2="360"/>
    <polygon style="fill: #000000" points="1857.76,360 1847.76,365 1850.26,360 1847.76,355 "/>
    <polygon style="fill: none; fill-opacity:0; stroke-width: 2; stroke: #000000" points="1857.76,360 1847.76,365 1850.26,360 1847.76,355 "/>
  </g>
  <text font-size="12.8" style="fill: #000000;text-anchor:end;font-family:sans-serif;font-style:normal;font-weight:normal" x="1840" y="356.202">
    <tspan x="1840" y="356.202">m00_axis_bands_tdata</tspan>
  </text>
  <g>
    <line style="fill: none; fill-opacity:0; stroke-width: 2; stroke: #000000" x1="1260" y1="420" x2="1850.26" y2="420"/>
    <polygon style="fill: #000000" points="1857.76,420 1847.76,425 1850.26,420 1847.76,415 "/>
    <polygon style="fill: none; fill-opacity:0; stroke-width: 2; stroke: #000000" points="1857.76,420 1847.76,425 1850.26,420 1847.76,415 "/>
  </g>
  <text font-size="12.8" style="fill: #000000;text-anchor:end;font-family:sans-serif;font-style:normal;font-weight:normal" x="1840" y="416.202">
    <tspan x="1840" y="416.202">m00_axis_bands_tuser</tspan>
  </text>
  <g>
    <line style="fill: none; fill-opacity:0; stroke-width: 2; stroke: #000000" x1="1269.74" y1="460" x2="1860" y2="460"/>
    <polygon style="fill: #000000" points="1262.24,460 1272.24,455 1269.74,460 1272.24,465 "/>
    <polygon style="fill: none; fill-opacity:0; stroke-width: 2; stroke: #000000" points="1262.24,460 1272.24,455 1269.74,460 1272.24,465 "/>
  </g>
  <text font-size="12.8" style="fill: #000000;text-anchor:end;font-family:sans-serif;font-style:normal;font-weight:normal" x="1840" y="456.202">
    <tspan x="1840" y="456.202">m00_axis_bands_tready</tspan>
  </text>
  <g>
    <polygon style="fill: #ffffff" points="1494.56,340 1580,340 1565.44,380 1480,380 "/>
    <polygon style="fill: none; fill-opacity:0; stroke-width: 2; stroke: #000000" points="1494.56,340 1580,340 1565.44,380 1480,380 "/>
    <text font-size="12.8" style="fill: #000000;text-anchor:middle;font-family:sans-serif;font-style:normal;font-weight:normal" x="1530" y="363.9">
      <tspan x="1530" y="363.9">serialize</tspan>
    </text>
  </g>
  <g>
    <polygon style="fill: #ffffff" points="1494.56,400 1580,400 1565.44,440 1480,440 "/>
    <polygon style="fill: none; fill-opacity:0; stroke-width: 2; stroke: #000000" points="1494.56,400 1580,400 1565.44,440 1480,440 "/>
    <text font-size="12.8" style="fill: #000000;text-anchor:middle;font-family:sans-serif;font-style:normal;font-weight:normal" x="1530" y="423.9">
      <tspan x="1530" y="423.9">serialize</tspan>
    </text>
  </g>
  <g>
    <line style="fill: none; fill-opacity:0; stroke-width: 2; stroke: #000000" x1="700" y1="240" x2="1130.26" y2="240"/>
    <polygon style="fill: #000000" points="1137.76,240 1127.76,245 1130.26,240 1127.76,235 "/>
    <polygon style="fill: none; fill-opacity:0; stroke-width: 2; stroke: #000000" points="1137.76,240 1127.76,245 1130.26,240 1127.76,235 "/>
  </g>
  <text font-size="12.8" style="fill: #005596;text-anchor:end;font-family:sans-serif;font-style:normal;font-weight:normal" x="1120" y="236.202">
    <tspan x="1120" y="236.202">ports_in.adc.clk</tspan>
  </text>
  <g>
    <line style="fill: none; fill-opacity:0; stroke-width: 2; stroke: #000000" x1="700" y1="260" x2="1130.26" y2="260"/>
    <polygon style="fill: #000000" points="1137.76,260 1127.76,265 1130.26,260 1127.76,255 "/>
    <polygon style="fill: none; fill-opacity:0; stroke-width: 2; stroke: #000000" points="1137.76,260 1127.76,265 1130.26,260 1127.76,255 "/>
  </g>
  <text font-size="12.8" style="fill: #005596;text-anchor:end;font-family:sans-serif;font-style:normal;font-weight:normal" x="1120" y="256.202">
    <tspan x="1120" y="256.202">ports_in.adc.resetn</tspan>
  </text>
  <text font-size="12.8" style="fill: #000000;text-anchor:start;font-family:sans-serif;font-style:normal;font-weight:normal" x="720" y="236.95">
    <tspan x="720" y="236.95">s_axis_adc_aclk</tspan>
  </text>
  <text font-size="12.8" style="fill: #000000;text-anchor:start;font-family:sans-serif;font-style:normal;font-weight:normal" x="720" y="256.95">
    <tspan x="720" y="256.95">s_axis_adc_aresetn</tspan>
  </text>
  <g>
    <line style="fill: none; fill-opacity:0; stroke-width: 2; stroke: #000000" x1="1269.74" y1="240" x2="1860" y2="240"/>
    <polygon style="fill: #000000" points="1262.24,240 1272.24,235 1269.74,240 1272.24,245 "/>
    <polygon style="fill: none; fill-opacity:0; stroke-width: 2; stroke: #000000" points="1262.24,240 1272.24,235 1269.74,240 1272.24,245 "/>
  </g>
  <text font-size="12.8" style="fill: #005596;text-anchor:start;font-family:sans-serif;font-style:normal;font-weight:normal" x="1280" y="236.202">
    <tspan x="1280" y="236.202">ports_in.bands(0).clk</tspan>
  </text>
  <g>
    <line style="fill: none; fill-opacity:0; stroke-width: 2; stroke: #000000" x1="1269.74" y1="260" x2="1860" y2="260"/>
    <polygon style="fill: #000000" points="1262.24,260 1272.24,255 1269.74,260 1272.24,265 "/>
    <polygon style="fill: none; fill-opacity:0; stroke-width: 2; stroke: #000000" points="1262.24,260 1272.24,255 1269.74,260 1272.24,265 "/>
  </g>
  <text font-size="12.8" style="fill: #005596;text-anchor:start;font-family:sans-serif;font-style:normal;font-weight:normal" x="1280" y="256.202">
    <tspan x="1280" y="256.202">ports_in.bands(0).resetn</tspan>
  </text>
  <text font-size="12.8" style="fill: #000000;text-anchor:end;font-family:sans-serif;font-style:normal;font-weight:normal" x="1840" y="236.202">
    <tspan x="1840" y="236.202">m00_axis_bands_aclk</tspan>
  </text>
  <text font-size="12.8" style="fill: #000000;text-anchor:end;font-family:sans-serif;font-style:normal;font-weight:normal" x="1840" y="256.202">
    <tspan x="1840" y="256.202">m00_axis_bands_aresetn</tspan>
  </text>
  <g>
    <rect style="fill: #ffffff" x="1600" y="280" width="40" height="200"/>
    <rect style="fill: none; fill-opacity:0; stroke-width: 2; stroke: #000000" x="1600" y="280" width="40" height="200"/>
    <text font-size="12.7998" style="fill: #000000;text-anchor:middle;font-family:sans-serif;font-style:normal;font-weight:normal" x="1620" y="383.9">
      <tspan x="1620" y="383.9">z^-1</tspan>
    </text>
  </g>
  <g>
    <rect style="fill: #ffffff" x="1140" y="200" width="120" height="580"/>
    <rect style="fill: none; fill-opacity:0; stroke-width: 4; stroke: #000000" x="1140" y="200" width="120" height="580"/>
    <text font-size="19.7556" style="fill: #000000;text-anchor:middle;font-family:sans-serif;font-style:normal;font-weight:700" x="1200" y="483.656">
      <tspan x="1200" y="483.656">User</tspan>
      <tspan x="1200" y="508.35">Core</tspan>
    </text>
  </g>
  <g>
    <line style="fill: none; fill-opacity:0; stroke-width: 2; stroke: #000000" x1="1260" y1="580" x2="1850.26" y2="580"/>
    <polygon style="fill: #000000" points="1857.76,580 1847.76,585 1850.26,580 1847.76,575 "/>
    <polygon style="fill: none; fill-opacity:0; stroke-width: 2; stroke: #000000" points="1857.76,580 1847.76,585 1850.26,580 1847.76,575 "/>
  </g>
  <text font-size="12.8" style="fill: #c41230;text-anchor:start;font-family:sans-serif;font-style:normal;font-weight:normal" x="1280" y="576.202">
    <tspan x="1280" y="576.202">ports_out.bands(1).valid</tspan>
  </text>
  <g>
    <line style="fill: none; fill-opacity:0; stroke-width: 2; stroke: #000000" x1="1260" y1="600" x2="1850.26" y2="600"/>
    <polygon style="fill: #000000" points="1857.76,600 1847.76,605 1850.26,600 1847.76,595 "/>
    <polygon style="fill: none; fill-opacity:0; stroke-width: 2; stroke: #000000" points="1857.76,600 1847.76,605 1850.26,600 1847.76,595 "/>
  </g>
  <text font-size="12.8" style="fill: #c41230;text-anchor:start;font-family:sans-serif;font-style:normal;font-weight:normal" x="1280" y="596.202">
    <tspan x="1280" y="596.202">ports_out.bands(1).last</tspan>
  </text>
  <text font-size="12.8" style="fill: #c41230;text-anchor:start;font-family:sans-serif;font-style:normal;font-weight:normal" x="1280" y="636.202">
    <tspan x="1280" y="636.202">ports_out.bands(1).data</tspan>
  </text>
  <text font-size="12.8" style="fill: #c41230;text-anchor:start;font-family:sans-serif;font-style:normal;font-weight:normal" x="1280" y="696.202">
    <tspan x="1280" y="696.202">ports_out.bands(1).metadata</tspan>
  </text>
  <text font-size="12.8" style="fill: #005596;text-anchor:start;font-family:sans-serif;font-style:normal;font-weight:normal" x="1280" y="736.202">
    <tspan x="1280" y="736.202">ports_in.bands(1).ready</tspan>
  </text>
  <text font-size="12.8" style="fill: #000000;text-anchor:end;font-family:sans-serif;font-style:normal;font-weight:normal" x="1840" y="576.202">
    <tspan x="1840" y="576.202">m01_axis_bands_tvalid</tspan>
  </text>
  <text font-size="12.8" style="fill: #000000;text-anchor:end;font-family:sans-serif;font-style:normal;font-weight:normal" x="1840" y="596.202">
    <tspan x="1840" y="596.202">m01_axis_bands_tlast</tspan>
  </text>
  <g>
    <line style="fill: none; fill-opacity:0; stroke-width: 2; stroke: #000000" x1="1260" y1="640" x2="1850.26" y2="640"/>
    <polygon style="fill: #000000" points="1857.76,640 1847.76,645 1850.26,640 1847.76,635 "/>
    <polygon style="fill: none; fill-opacity:0; stroke-width: 2; stroke: #000000" points="1857.76,640 1847.76,645 1850.26,640 1847.76,635 "/>
  </g>
  <text font-size="12.8" style="fill: #000000;text-anchor:end;font-family:sans-serif;font-style:normal;font-weight:normal" x="1840" y="636.202">
    <tspan x="1840" y="636.202">m01_axis_bands_tdata</tspan>
  </text>
  <g>
    <line style="fill: none; fill-opacity:0; stroke-width: 2; stroke: #000000" x1="1260" y1="700" x2="1850.26" y2="700"/>
    <polygon style="fill: #000000" points="1857.76,700 1847.76,705 1850.26,700 1847.76,695 "/>
    <polygon style="fill: none; fill-opacity:0; stroke-width: 2; stroke: #000000" points="1857.76,700 1847.76,705 1850.26,700 1847.76,695 "/>
  </g>
  <text font-size="12.8" style="fill: #000000;text-anchor:end;font-family:sans-serif;font-style:normal;font-weight:normal" x="1840" y="696.202">
    <tspan x="1840" y="696.202">m01_axis_bands_tuser</tspan>
  </text>
  <g>
    <line style="fill: none; fill-opacity:0; stroke-width: 2; stroke: #000000" x1="1269.74" y1="740" x2="1860" y2="740"/>
    <polygon style="fill: #000000" points="1262.24,740 1272.24,735 1269.74,740 1272.24,745 "/>
    <polygon style="fill: none; fill-opacity:0; stroke-width: 2; stroke: #000000" points="1262.24,740 1272.24,735 1269.74,740 1272.24,745 "/>
  </g>
  <text font-size="12.8" style="fill: #000000;text-anchor:end;font-family:sans-serif;font-style:normal;font-weight:normal" x="1840" y="736.202">
    <tspan x="1840" y="736.202">m01_axis_bands_tready</tspan>
  </text>
  <g>
    <polygon style="fill: #ffffff" points="1494.56,620 1580,620 1565.44,660 1480,660 "/>
    <polygon style="fill: none; fill-opacity:0; stroke-width: 2; stroke: #000000" points="1494.56,620 1580,620 1565.44,660 1480,660 "/>
    <text font-size="12.8" style="fill: #000000;text-anchor:middle;font-family:sans-serif;font-style:normal;font-weight:normal" x="1530" y="643.9">
      <tspan x="1530" y="643.9">serialize</tspan>
    </text>
  </g>
  <g>
    <polygon style="fill: #ffffff" points="1494.56,680 1580,680 1565.44,720 1480,720 "/>
    <polygon style="fill: none; fill-opacity:0; stroke-width: 2; stroke: #000000" points="1494.56,680 1580,680 1565.44,720 1480,720 "/>
    <text font-size="12.8" style="fill: #000000;text-anchor:middle;font-family:sans-serif;font-style:normal;font-weight:normal" x="1530" y="703.9">
      <tspan x="1530" y="703.9">serialize</tspan>
    </text>
  </g>
  <g>
    <line style="fill: none; fill-opacity:0; stroke-width: 2; stroke: #000000" x1="1269.74" y1="520" x2="1860" y2="520"/>
    <polygon style="fill: #000000" points="1262.24,520 1272.24,515 1269.74,520 1272.24,525 "/>
    <polygon style="fill: none; fill-opacity:0; stroke-width: 2; stroke: #000000" points="1262.24,520 1272.24,515 1269.74,520 1272.24,525 "/>
  </g>
  <text font-size="12.8" style="fill: #005596;text-anchor:start;font-family:sans-serif;font-style:normal;font-weight:normal" x="1280" y="516.202">
    <tspan x="1280" y="516.202">ports_in.bands(1).clk</tspan>
  </text>
  <g>
    <line style="fill: none; fill-opacity:0; stroke-width: 2; stroke: #000000" x1="1269.74" y1="540" x2="1860" y2="540"/>
    <polygon style="fill: #000000" points="1262.24,540 1272.24,535 1269.74,540 1272.24,545 "/>
    <polygon style="fill: none; fill-opacity:0; stroke-width: 2; stroke: #000000" points="1262.24,540 1272.24,535 1269.74,540 1272.24,545 "/>
  </g>
  <text font-size="12.8" style="fill: #005596;text-anchor:start;font-family:sans-serif;font-style:normal;font-weight:normal" x="1280" y="536.202">
    <tspan x="1280" y="536.202">ports_in.bands(1).resetn</tspan>
  </text>
  <text font-size="12.8" style="fill: #000000;text-anchor:end;font-family:sans-serif;font-style:normal;font-weight:normal" x="1840" y="516.202">
    <tspan x="1840" y="516.202">m01_axis_bands_aclk</tspan>
  </text>
  <text font-size="12.8" style="fill: #000000;text-anchor:end;font-family:sans-serif;font-style:normal;font-weight:normal" x="1840" y="536.202">
    <tspan x="1840" y="536.202">m01_axis_bands_aresetn</tspan>
  </text>
  <g>
    <rect style="fill: #ffffff" x="1600" y="560" width="40" height="200"/>
    <rect style="fill: none; fill-opacity:0; stroke-width: 2; stroke: #000000" x="1600" y="560" width="40" height="200"/>
    <text font-size="12.7998" style="fill: #000000;text-anchor:middle;font-family:sans-serif;font-style:normal;font-weight:normal" x="1620" y="663.9">
      <tspan x="1620" y="663.9">z^-1</tspan>
    </text>
  </g>
  <text font-size="16.9333" style="fill: #7f7f7f;text-anchor:start;font-family:sans-serif;font-style:normal;font-weight:700" x="1380" y="26.6667">
    <tspan x="1380" y="26.6667">{</tspan>
    <tspan x="1380" y="47.8333">    "name":"bands",</tspan>
    <tspan x="1380" y="69">    "direction":"out",</tspan>
    <tspan x="1380" y="90.1667">    "supports_backpressure":true,</tspan>
    <tspan x="1380" y="111.333">    "num_instances":2,</tspan>
    <tspan x="1380" y="132.5">    "use_pipeline":true,</tspan>
    <tspan x="1380" y="153.667">    "data":{...},</tspan>
    <tspan x="1380" y="174.833">    "metadata":[...]</tspan>
    <tspan x="1380" y="196">}</tspan>
  </text>
</svg>
